<?xml version="1.0" encoding="utf-8"?>
<!-- Generator: Adobe Illustrator 16.0.4, SVG Export Plug-In . SVG Version: 6.00 Build 0)  -->
<!DOCTYPE svg PUBLIC "-//W3C//DTD SVG 1.1//EN" "http://www.w3.org/Graphics/SVG/1.1/DTD/svg11.dtd">
<svg version="1.1" id="Layer_1" xmlns="http://www.w3.org/2000/svg" xmlns:xlink="http://www.w3.org/1999/xlink" x="0px" y="0px"
	 width="24px" height="24px" viewBox="0 0 24 24" enable-background="new 0 0 24 24" xml:space="preserve">
<polygon opacity="0.5" fill="#181818" enable-background="new    " points="20.062,6.548 17.195,3.681 12,8.876 6.805,3.681 
	3.938,6.548 9.133,11.743 3.938,16.939 6.805,19.807 12,14.611 17.195,19.807 20.062,16.938 14.867,11.743 "/>
<polygon fill="#151515" points="20.062,5.702 17.195,2.835 12,8.03 6.805,2.835 3.938,5.702 9.133,10.897 3.938,16.094 
	6.805,18.961 12,13.766 17.195,18.961 20.062,16.093 14.867,10.897 "/>
<polygon fill="#FFFFFF" points="20.062,4.679 17.195,1.812 12,7.007 6.805,1.812 3.938,4.679 9.133,9.875 3.938,15.07 6.805,17.938 
	12,12.742 17.195,17.938 20.062,15.07 14.867,9.875 "/>
</svg>
