<?xml version="1.0" encoding="utf-8"?>
<!-- Generator: Adobe Illustrator 16.0.4, SVG Export Plug-In . SVG Version: 6.00 Build 0)  -->
<!DOCTYPE svg PUBLIC "-//W3C//DTD SVG 1.1//EN" "http://www.w3.org/Graphics/SVG/1.1/DTD/svg11.dtd">
<svg version="1.1" id="Layer_1" xmlns="http://www.w3.org/2000/svg" xmlns:xlink="http://www.w3.org/1999/xlink" x="0px" y="0px"
	 width="24px" height="24px" viewBox="0 0 24 24" enable-background="new 0 0 24 24" xml:space="preserve">
<path opacity="0.5" fill-rule="evenodd" clip-rule="evenodd" d="M19.86,5.125c-1.69-1.835-4.44-2.49-6.773-1.182
	c-0.794,0.445-2.144,2.194-2.144,2.194S9.594,4.388,8.8,3.943C6.467,2.635,3.716,3.29,2.025,5.125
	c-1.69,1.835-2.221,4.797-0.626,7.111c1.763,2.565,3.913,4.918,6.17,7.073c1.995,1.904,2.655,2.771,3.374,2.674
	c0.718,0.098,1.379-0.77,3.373-2.674c2.258-2.154,4.407-4.508,6.172-7.073C22.081,9.923,21.55,6.96,19.86,5.125z"/>
<path fill-rule="evenodd" clip-rule="evenodd" fill="#252525" d="M20.731,4.871c-1.69-1.836-4.44-2.492-6.774-1.183
	c-0.794,0.445-2.143,2.194-2.143,2.194s-1.349-1.749-2.143-2.194C7.337,2.379,4.587,3.035,2.897,4.871
	c-1.69,1.835-2.221,4.795-0.627,7.112c1.764,2.563,3.913,4.918,6.171,7.073c1.995,1.902,2.655,2.77,3.374,2.672
	c0.719,0.098,1.379-0.77,3.374-2.672c2.26-2.154,4.407-4.51,6.172-7.073C22.952,9.666,22.422,6.706,20.731,4.871z"/>
<path fill-rule="evenodd" clip-rule="evenodd" fill="#FFFFFF" d="M21.606,4.36c-1.691-1.836-4.442-2.491-6.774-1.183
	c-0.794,0.445-2.144,2.195-2.144,2.195s-1.349-1.75-2.143-2.195C8.212,1.869,5.461,2.524,3.771,4.36
	c-1.69,1.835-2.221,4.795-0.627,7.112c1.764,2.562,3.913,4.918,6.171,7.074c1.994,1.9,2.655,2.768,3.374,2.67
	c0.72,0.098,1.38-0.77,3.373-2.67c2.259-2.156,4.408-4.512,6.173-7.074C23.827,9.155,23.296,6.195,21.606,4.36z"/>
</svg>
