<?xml version="1.0" encoding="utf-8"?>
<!-- Generator: Adobe Illustrator 16.0.4, SVG Export Plug-In . SVG Version: 6.00 Build 0)  -->
<!DOCTYPE svg PUBLIC "-//W3C//DTD SVG 1.1//EN" "http://www.w3.org/Graphics/SVG/1.1/DTD/svg11.dtd">
<svg version="1.1" id="Layer_1" xmlns="http://www.w3.org/2000/svg" xmlns:xlink="http://www.w3.org/1999/xlink" x="0px" y="0px"
	 width="24px" height="24px" viewBox="0 0 24 24" enable-background="new 0 0 24 24" xml:space="preserve">
<g opacity="0.5">
	<path fill-rule="evenodd" clip-rule="evenodd" fill="#0F0F0F" d="M14.366,12.713h-1.051c-0.569,0-1.033,0.461-1.033,1.032
		s0.463,1.033,1.033,1.033h1.051c0.569,0,1.032-0.462,1.032-1.033S14.936,12.713,14.366,12.713z"/>
	<path fill-rule="evenodd" clip-rule="evenodd" fill="#0F0F0F" d="M9.226,14.766c0.572,0,1.034-0.461,1.034-1.031
		c0-0.571-0.462-1.034-1.034-1.034H8.176c-0.57,0-1.033,0.463-1.033,1.034c0,0.57,0.462,1.031,1.033,1.031H9.226z"/>
	<path fill-rule="evenodd" clip-rule="evenodd" fill="#0F0F0F" d="M20.424,9.913c-0.115,0-0.228,0.017-0.336,0.044
		c-1.084-4.017-4.604-6.963-8.79-6.963c-4.108,0-7.583,2.837-8.734,6.74C2.495,9.723,2.425,9.709,2.353,9.709
		c-0.858,0-1.554,0.799-1.554,1.786v2.435c0,0.985,0.696,1.783,1.554,1.783s1.554-0.798,1.554-1.783v-2.165
		c0.414-3.757,3.758-7.079,7.392-7.079c3.882,0,7.556,3.792,7.556,7.855c0,3.271-2.435,6.445-5.36,7.512
		c-0.316-0.427-0.821-0.708-1.395-0.708H9.807c-0.963,0-1.744,0.78-1.744,1.741c0,0.963,0.781,1.742,1.744,1.742H12.1
		c0.711,0,1.32-0.428,1.591-1.04c2.884-0.817,5.196-3.071,6.201-5.984c0.167,0.07,0.344,0.114,0.532,0.114
		c0.858,0,1.555-0.8,1.555-1.786v-2.433C21.979,10.712,21.282,9.913,20.424,9.913z"/>
	<path fill-rule="evenodd" clip-rule="evenodd" fill="#0F0F0F" d="M7.774,8.848c0.708-0.021,1.178-0.265,1.453-0.654
		C9.333,8.045,9.442,7.9,9.575,7.718c0.056,0.068,0.085,0.101,0.111,0.135c0.583,0.818,1.33,1.091,2.799,0.962
		c0.885-0.078,1.757-0.207,2.632-0.323c0.244-0.033,0.371,0.016,0.41,0.153c0.11,0.398,0.255,0.795,0.303,1.195
		c0.031,0.252,0.079,0.464,0.481,0.554c0.21-0.361,0.326-0.752,0.326-1.16c0-1.839-2.34-3.33-5.229-3.33
		c-2.819,0-5.114,1.419-5.225,3.197c0,0,0.739,0.361,0.983,0C7.413,8.739,7.417,8.859,7.774,8.848z"/>
</g>
<g>
	<path fill-rule="evenodd" clip-rule="evenodd" fill="#0F0F0F" d="M14.894,12.226h-1.05c-0.57,0-1.033,0.462-1.033,1.033
		s0.463,1.033,1.033,1.033h1.05c0.57,0,1.033-0.462,1.033-1.033S15.464,12.226,14.894,12.226z"/>
	<path fill-rule="evenodd" clip-rule="evenodd" fill="#0F0F0F" d="M9.753,14.279c0.572,0,1.034-0.461,1.034-1.031
		c0-0.571-0.461-1.035-1.034-1.035H8.705c-0.57,0-1.033,0.463-1.033,1.035c0,0.57,0.463,1.031,1.033,1.031H9.753z"/>
	<path fill-rule="evenodd" clip-rule="evenodd" fill="#0F0F0F" d="M20.952,9.427c-0.115,0-0.228,0.017-0.336,0.044
		c-1.085-4.017-4.604-6.963-8.79-6.963c-4.109,0-7.583,2.837-8.734,6.74C3.023,9.237,2.954,9.224,2.881,9.224
		c-0.858,0-1.554,0.799-1.554,1.786v2.434c0,0.985,0.696,1.783,1.554,1.783s1.554-0.798,1.554-1.783v-2.165
		C4.848,7.521,8.192,4.2,11.827,4.2c3.882,0,7.556,3.792,7.556,7.854c0,3.271-2.435,6.446-5.36,7.512
		c-0.317-0.427-0.821-0.708-1.395-0.708h-2.293c-0.962,0-1.743,0.78-1.743,1.741c0,0.963,0.781,1.742,1.743,1.742h2.293
		c0.712,0,1.32-0.428,1.591-1.04c2.884-0.817,5.196-3.071,6.201-5.984c0.166,0.069,0.344,0.114,0.532,0.114
		c0.858,0,1.554-0.8,1.554-1.785v-2.434C22.506,10.226,21.811,9.427,20.952,9.427z"/>
	<path fill-rule="evenodd" clip-rule="evenodd" fill="#0F0F0F" d="M8.303,8.362C9.01,8.341,9.48,8.097,9.755,7.708
		C9.861,7.56,9.97,7.414,10.104,7.232c0.055,0.068,0.085,0.101,0.111,0.135c0.583,0.818,1.33,1.091,2.799,0.962
		c0.885-0.078,1.757-0.207,2.632-0.323c0.244-0.033,0.37,0.016,0.41,0.153c0.11,0.398,0.255,0.795,0.303,1.195
		c0.031,0.252,0.079,0.464,0.481,0.554c0.21-0.361,0.326-0.752,0.326-1.16c0-1.839-2.34-3.33-5.229-3.33
		c-2.819,0-5.114,1.419-5.224,3.197c0,0,0.739,0.361,0.983,0C7.941,8.253,7.945,8.373,8.303,8.362z"/>
</g>
<g>
	<path fill-rule="evenodd" clip-rule="evenodd" fill="#FFFFFF" d="M15.59,11.388h-1.05c-0.57,0-1.033,0.462-1.033,1.033
		c0,0.571,0.463,1.034,1.033,1.034h1.05c0.57,0,1.033-0.463,1.033-1.034C16.623,11.85,16.16,11.388,15.59,11.388z"/>
	<path fill-rule="evenodd" clip-rule="evenodd" fill="#FFFFFF" d="M10.449,13.441c0.572,0,1.034-0.461,1.034-1.032
		c0-0.57-0.462-1.033-1.034-1.033H9.4c-0.57,0-1.033,0.463-1.033,1.033c0,0.571,0.463,1.032,1.033,1.032H10.449z"/>
	<path fill-rule="evenodd" clip-rule="evenodd" fill="#FFFFFF" d="M21.648,8.589c-0.116,0-0.228,0.017-0.336,0.044
		c-1.085-4.017-4.605-6.963-8.79-6.963c-4.108,0-7.583,2.836-8.734,6.74C3.719,8.4,3.649,8.386,3.577,8.386
		c-0.858,0-1.554,0.799-1.554,1.785v2.434c0,0.986,0.696,1.783,1.554,1.783s1.554-0.797,1.554-1.783v-2.164
		c0.414-3.758,3.758-7.079,7.392-7.079c3.883,0,7.556,3.792,7.556,7.854c0,3.271-2.435,6.445-5.36,7.512
		c-0.316-0.427-0.821-0.708-1.394-0.708H11.03c-0.962,0-1.743,0.78-1.743,1.741c0,0.963,0.781,1.742,1.743,1.742h2.294
		c0.711,0,1.32-0.428,1.591-1.04c2.884-0.817,5.196-3.071,6.2-5.984c0.167,0.069,0.345,0.114,0.533,0.114
		c0.857,0,1.554-0.799,1.554-1.786v-2.433C23.202,9.389,22.506,8.589,21.648,8.589z"/>
	<path fill-rule="evenodd" clip-rule="evenodd" fill="#FFFFFF" d="M8.999,7.525c0.708-0.021,1.178-0.265,1.453-0.654
		c0.106-0.148,0.215-0.294,0.348-0.476c0.055,0.068,0.085,0.101,0.111,0.135c0.583,0.818,1.33,1.091,2.799,0.962
		c0.886-0.078,1.757-0.208,2.632-0.323c0.244-0.033,0.371,0.016,0.41,0.153c0.111,0.398,0.255,0.794,0.304,1.195
		c0.03,0.252,0.079,0.464,0.48,0.554c0.211-0.361,0.327-0.752,0.327-1.16c0-1.839-2.341-3.33-5.229-3.33
		C9.813,4.581,7.519,6,7.408,7.778c0,0,0.739,0.361,0.983,0C8.637,7.416,8.641,7.536,8.999,7.525z"/>
</g>
</svg>
