<?xml version="1.0" encoding="utf-8"?>
<!-- Generator: Adobe Illustrator 16.0.4, SVG Export Plug-In . SVG Version: 6.00 Build 0)  -->
<!DOCTYPE svg PUBLIC "-//W3C//DTD SVG 1.1//EN" "http://www.w3.org/Graphics/SVG/1.1/DTD/svg11.dtd">
<svg version="1.1" id="Layer_1" xmlns="http://www.w3.org/2000/svg" xmlns:xlink="http://www.w3.org/1999/xlink" x="0px" y="0px"
	 width="84px" height="84px" viewBox="0 0 84 84" enable-background="new 0 0 84 84" xml:space="preserve">
<g id="Body">
	<g>
		<path fill="#D57C28" d="M76.729,66.95c0.256-3.1-1.734-4.235-3.748-5.348c-0.818-0.451-1.646-0.788-2.476-1.024
			c-0.253-0.406-0.438-0.257-0.8-0.194c-0.312-0.064-0.623-0.114-0.938-0.15c-0.001-0.001-0.003-0.002-0.006-0.003
			c-1.154-0.53-2.836-0.153-4.36,0.284c-0.574,0.136-1.149,0.304-1.729,0.508c0.039-0.951,0.08-1.905,0.121-2.854
			c0.229-1.16,0.005-1.896-0.951-2.747c-0.03-0.024-0.057-0.056-0.086-0.081c-0.641-1.876-1.33-3.723-2.666-5.263l-0.083,0.077
			c0.04-0.036,0.083-0.077,0.083-0.077c-0.077-1.247,1.021-1.075,1.665-1.236c5.528-1.391,9.065-8.033,6.953-13.478
			c-0.491-1.266-0.935-2.552-1.463-4.003c2.976,0.789,5.404,0.326,6.954-1.122c0.151-0.013,0.303-0.106,0.454-0.077
			c-0.004-0.097,0.044-0.143,0.141-0.14c0-0.094,0.044-0.142,0.14-0.141c-0.021-0.254,0.106-0.384,0.351-0.415
			c0.271-0.558,0.749-1,0.903-1.622c0.126-1.028,0.464-2.021,0.434-3.08c-0.011-0.393-0.355-0.793-0.017-1.189
			c0.052-0.093,0.041-0.24,0.192-0.255c0.78-0.082,0.578-0.499,0.267-0.878c-0.304-0.374-0.639-0.742-1.024-1.026
			c-0.286-0.212-0.288-0.37-0.084-0.582c0.399-0.405,0.237-0.628-0.176-0.914c-0.287-0.199-0.629-0.214-0.897-0.409
			c-0.302,0.024-0.595,0.007-0.881-0.104c-0.125-0.048-0.301-0.042-0.307-0.218c-0.006-0.208,0.107-0.343,0.332-0.355
			c0.028-0.044,0.057-0.088,0.083-0.132c-0.61-0.781-1.439-0.385-2.182-0.376c-0.296,0.003-0.569,0.108-0.787-0.17
			c0.101-0.347,0.109-0.722,0.352-1.027c0.127-0.161,0.155-0.405-0.147-0.364c-1.778,0.245-3.364,0.851-4.401,2.442
			c-0.044,0.145-0.156,0.17-0.286,0.16c-0.002,0.134-0.003,0.266-0.204,0.222c0,0-0.007,0.001-0.007,0.001
			c0.01,0.022,0.023,0.042,0.033,0.064c-1.255,0.32-1.299-0.808-1.73-1.483c-1.476-2.314-2.892-4.69-5.639-5.758
			c-4.709-2.88-9.921-4.297-15.333-4.764c-2.552-0.221-5.173,0.472-7.45,1.845c-1.082,0.652-1.759,0.573-2.161-0.65
			c-0.198-0.605-0.478-1.083-0.838-1.472c0-0.004,0-0.006,0.001-0.01c-0.002,0.001-0.007,0-0.01,0
			c-0.448-0.477-1.023-0.813-1.769-1.032c-0.059-0.094-0.117-0.187-0.175-0.267c-0.676-0.934-1.588-1.572-2.638-2.024
			c-0.528-0.146-1.104-0.148-1.554-0.525c-0.173,0.025-0.344,0.051-0.517,0.077l-0.041,0.034c0.103,0.292,0.206,0.583,0.309,0.875
			c0.318,0.038,0.268,0.281,0.229,0.472c-0.051,0.252-0.285,0.214-0.451,0.173c-0.586-0.143-1.182-0.12-1.777-0.15
			c-0.563-0.028-0.832,0.14-0.692,0.732c0.349,0.182,0.246,0.346-0.054,0.427c-0.443,0.12-0.881,0.295-1.357,0.259
			c-0.397,0.207-0.83,0.367-0.982,0.643c0.064,0.466,0.904,0.551,0.293,1.063c-0.338,0.283-0.608,0.61-0.912,0.914
			c-0.584,0.584-0.487,0.958,0.315,1.225c-0.01,0.2,0.113,0.36,0.087,0.59c-0.113,1.062-0.181,1.546,0.162,2.579
			c0,0.003,0.006,0.012,0.009,0.018c0.21,0.627,0.578,1.288,1.097,2.016c0.199,0.536,0.676,1.422,1.718,2.001l0,0
			c0.67,0.444,1.461,0.73,2.053,1.276l0.063-0.036c-0.178,0.181-0.357,0.361-0.536,0.542c-2.542,1.813-6.448,6.081-6.78,7.16
			c-0.418,1.355-0.411,2.626-0.313,3.963c-0.052,3.568,4.062,9.344,7.585,10.646c0.8,0.889,1.6,1.778,2.399,2.667
			c-1.001,0.073-1.478,0.737-1.789,1.591c-2.883,3.155-5.26,6.632-6.766,10.662c-0.104,0.22-0.178,0.52-0.242,0.838
			c-0.297,0.497-0.384,1.099-0.424,1.722c-0.096,0.159-0.22,0.232-0.388,0.166c-0.022-0.009-0.049-0.02-0.072-0.028
			c-0.784-0.409-1.565-0.688-2.343-0.852c-0.836-0.238-1.67-0.371-2.274-0.19l0,0c-2.154,0.081-4.295,0.831-6.447,1.716
			c-1.454,0.598-1.514,2.2-2.32,3.243c-1.169,0.965-0.933,2.453-1.168,3.769c0.078,0.178,0.088,0.391,0.086,0.611
			c-0.118,1.39-0.095,2.859,0.214,4.329c-0.015,0.003-0.026,0.003-0.042,0.003c0.038,0.105,0.077,0.21,0.113,0.314
			c0.241,1.009,0.619,2.016,1.187,2.996c-0.002-0.004-0.004-0.007-0.005-0.013c0.001,0.006,0.004,0.012,0.007,0.018
			c0-0.003-0.001-0.003-0.001-0.005c0.001,0.002,0.001,0.005,0.002,0.007c0-0.001,0-0.001,0-0.001
			c0.641,1.353,1.45,2.531,2.671,3.332c1.055,0.934,2.238,1.628,3.565,2.089c0.86,0.493,1.866,0.572,2.839,0.776
			c2.344,0.493,4.593-0.147,6.854-0.62c0.001,0,0.003,0,0.005-0.003c-0.001,0-0.002,0.003-0.003,0.003
			c0.002-0.003,0.004-0.003,0.006-0.003c0.03-0.006,0.059-0.009,0.088-0.017c0.19-0.037,0.369-0.074,0.545-0.11
			c0.01,0,0.021-0.006,0.031-0.006c0.001,0,0.002,0,0.004,0c0.003-0.003,0.007-0.003,0.01-0.003c-0.003,0-0.005,0-0.009,0.003
			c0.003-0.003,0.007-0.003,0.01-0.003c0.352-0.066,0.704-0.126,1.058-0.173c0.126-0.092,0.264-0.126,0.414-0.103
			c1.476-0.878,3.07-1.536,4.485-2.529c1.154-0.147,2.191-0.66,2.979-1.599c0.146,0.047,0.294,0.083,0.443,0.065
			c-0.017-0.034-0.026-0.068-0.042-0.104c2.055,1.155,4.162,2.014,6.54,1.419c1.327,1.729,2.95,1.094,4.547,0.66
			c2.439-0.479,4.947-0.375,7.329-1.416c1.116,0.866,2.512,1.378,3.898,1.438c0.165,0.208,0.34,0.418,0.535,0.623
			c3.375,3.558,7.592,4.586,12.122,4.461c0.836-0.022,1.323-0.73,1.846-1.34c0.025,0.155,0.038,0.317,0.082,0.465
			c0.014,0.051,0.113,0.064,0.176,0.096c0.431-1.124,1.242-1.416,2.273-1.733c1.207-0.371,2.05-1.179,2.486-2.178
			c1.271-1.403,2.503-3.497,3.305-6.662l0,0C76.707,69.936,76.645,68.436,76.729,66.95c-0.322,0.003-0.643,0.003-0.963,0.003
			C76.087,66.953,76.407,66.953,76.729,66.95z"/>
		<path fill="#D57C28" d="M73.662,30.162c-0.003,0-0.005,0-0.006,0c0,0.002-0.002,0.003-0.002,0.005L73.662,30.162z"/>
		<path fill="#D57C28" d="M73.942,29.879c-0.003,0-0.006,0.001-0.006,0.001c0,0.002,0,0.004,0,0.006L73.942,29.879z"/>
		<path fill="#D57C28" d="M73.801,30.02c0,0-0.002,0.001-0.006,0.001c0,0.002,0,0.003,0,0.005L73.801,30.02z"/>
		<polygon fill="#D57C28" points="65.655,19.366 65.659,19.366 65.659,19.359 		"/>
		<path fill="#D57C28" d="M23.245,5.73c0-0.001,0-0.003,0-0.005c-0.003-0.001-0.004-0.002-0.006-0.003L23.245,5.73z"/>
	</g>
	<path fill="#B56A29" d="M31.668,10.385c-1.065-2.336-3.408-3.17-6.082-2.195c-1.908,0.695-3.158,3.39-2.504,5.49
		c0.316,1.015,0.708,1.997-0.438,2.761c0.652,1.265,2.114,1.471,3.064,2.346c1.369-0.871,2.747-1.733,3.439-3.308
		c-0.058-1.494,1.597-1.799,2.043-2.943C32.483,12.071,32.037,11.193,31.668,10.385z"/>
	<path fill="#F9D1A7" d="M29.087,15.459c-1.284,1.119-2.427,0.747-3.386-0.419c-0.951-1.155-0.691-4.281,0.559-4.99
		c1.388-0.788,2.896-0.563,4.145,0.546c0.561,0.499,0.722,1.19,0.726,1.92C30.683,13.661,29.029,13.966,29.087,15.459z"/>
	<path fill="#B56A29" d="M74.92,25.29c0.064-2.902-2.432-3.886-4.136-5.386c-0.919-0.808-2.109,0.005-3.141,0.324
		c-0.855,0.265-1.539,1.011-2.538,1.031c-0.44-1.319,1.462-0.897,1.279-1.928c-1.294,0.354-1.333-0.793-1.768-1.475
		c-1.476-2.315-2.893-4.69-5.64-5.758c0.067,2.487,2.047,4.276,2.398,6.686c0.52,3.576,0.494,7.165,0.474,10.758
		c-0.006,1.045-0.023,2.088,0.567,3.02c1.252,1.977,1.425,4.194,1.354,6.44c-0.083,2.715-2.341,5.116-4.99,5.672
		c-1.2,0.251-1.643-0.141-1.812-1.198c-0.341,2.533-1.15,4.723-3.745,5.875c-0.507,0.225-1.17,0.825-0.819,1.772
		c0.944,2.557,0.825,5.185,0.358,7.818c1.867-1.892,0.921-4.22,0.652-6.251c-0.245-1.869,0.005-2.434,1.891-2.456
		c1.495-0.02,2.967-0.639,4.501-0.333c0,0.001,0.15-0.138,0.15-0.138c-0.078-1.248,1.021-1.075,1.664-1.238
		c5.529-1.39,9.064-8.032,6.954-13.476c-0.491-1.267-0.935-2.553-1.465-4.003c4.802,1.272,8.177-0.706,8.734-4.828
		C75.346,26.101,74.908,25.849,74.92,25.29z"/>
	<path fill="#F9D1A7" d="M72.746,25.634c0,2.242-1.729,2.608-3.362,2.866c-1.312,0.208-2.533-2.037-2.436-4.401
		c0.077-1.796,1.606-1.787,2.794-1.904C71.639,22.003,72.707,23.322,72.746,25.634z"/>
	<g>
		<path fill="#643419" d="M48.53,8.81c3.938,1.004,7.798,2.245,11.236,4.584c1.16,0.792,1.97,1.982,2.798,3.131
			c0.275,1.104,1,1.937,1.569,2.864c0.538,0.003,0.994-0.021,1.343,0.021c0.06-0.33,0.37-0.534,1.134-0.527
			c0.454,0.005,0.356-0.395,0.381-0.69c-0.371-0.195-0.956-0.234-0.611-0.951c-0.892-0.299-1.969,0.188-2.646-1.054
			c-0.824-1.506-0.755-2.177,0.811-2.808c0.815-0.329,1.777-0.332,2.248-1.314c-1.622-0.225-3.073,0.291-4.339,1.318
			c-0.676,0.55-1.055,0.455-1.646-0.142c-1.594-1.609-3.354-3.016-5.35-4.021c-1.236-0.624-2.641-0.931-2.658-2.833
			c-0.005-0.644-0.577-0.974-1.057-1.154c-0.604-0.226-0.659,0.604-0.785,0.86c-0.771,1.551-1.325,1.366-1.958-0.057
			c-0.248-0.556-0.676-1.013-1.013-1.509c-1.276-1.866-3.797-2.65-5.757-1.604c0.791,0.328,1.66,0.397,2.306,1.031
			c0.655,0.646,1.251,1.524,0.721,2.321c-0.566,0.853-1.014-0.427-1.604-0.528c-0.389-0.066-0.726-0.442-1.115-0.53
			c-1.229-0.273-2.52-0.72-3.54,0.713c1.334,0.345,1.334,0.345,1.978,1.418c-2.708,0.313-3.417,0.562-5.648,2.144
			c-0.517,0.366-1.289,0.512-1.775,0.091c0.483,1.89,1.973,0.723,2.839,0.368c0.7-0.288,0.815-0.395,1.549-0.714
			c3.652-1.587,6.277,1.101,9.9-0.601C48.013,8.556,48.296,8.75,48.53,8.81z"/>
		<path fill="#643419" d="M69.35,32.136c-0.091-0.142-0.17-0.275-0.236-0.404c-0.539,0.052-1.197,0.426-3.033-0.376
			c0.201,1.426,0.692,2.847,0.875,4.275c0.329,2.592-0.212,4.982-1.97,7.165c-0.978,1.214-1.859,2.304-3.104,3.296
			c-2.053,1.635-4.227,1.362-6.437,1.524c-0.714,0.053-0.783-0.692-1.218-0.973c-1.123,1.582-2.667,2.277-4.465,2.171
			c-1.409-0.079-2.4,0.296-2.77,1.852c0.366,0.354,0.747,0.232,1.174,0.099c0.574-0.182,1.166-0.385,1.644-0.261
			c0.925-0.643,2.963-1.458,8.877,0.438c0.079,0.025,0.148,0.053,0.224,0.078c1.493-0.421,3.032-0.725,4.245-2.021
			c0.745-0.798,1.017-2.872,2.893-1.838c0.043,0.023,0.353-0.459,0.521-0.717c0.441-0.68,0.997-1.313,1.283-2.061
			c0.572-1.482,1.015-1.372,1.663,0.268c0.481-3.247,2.232-6.013,1.254-9.247C70.421,34.25,69.984,33.144,69.35,32.136z"/>
	</g>
	<path fill="#F6B56B" d="M53.409,38.884c-1.217-0.582-1.828-2.13-3.406-2.132c0.09,1.07-0.33,1.79-1.308,2.322
		c-4.01,2.185-9.845,0.449-11.815-3.616c-0.55-1.135-1.074-2.441,1.134-2.307c0.098-0.103,0.096-0.203-0.008-0.299
		c-0.653-0.523-1.396-0.64-2.226-0.646c-3.283-0.028-6.283,0.759-8.869,2.864c-0.276,1.245-0.835,2.463-0.345,3.779
		c-0.086,0.525-0.171,1.052-0.257,1.578c0.8,0.888,1.6,1.778,2.4,2.666c2.253,0.387,4.252,2.242,4.279,3.978
		c-1.492,2.031-1.862,4.434-2.247,6.83c0.931,1.675,0.499,3.586,0.863,5.377c0.616,3.025,2.311,5.499,3.345,8.287
		c0.171,0.106,0.342,0.21,0.514,0.314c0.211,0.125,0.423,0.249,0.635,0.375c0.439,0.183,0.877,0.364,1.314,0.547
		c0.187,0.141,0.353,0.353,0.563,0.412c4.71,1.374,8.725,0.618,11.522-3.809l-0.005,0.055c0.166-0.23,0.332-0.462,0.498-0.693
		c1.291-1.845,2.435-3.75,2.519-6.093c0.469-2.633,0.589-5.262-0.356-7.817c-0.351-0.948,0.312-1.549,0.819-1.773
		c2.593-1.151,3.403-3.341,3.744-5.874C55.418,41.918,55.085,39.886,53.409,38.884z"/>
	<path fill="#F9D1A7" d="M50.113,36.752c1.579,0.002,2.189,1.55,3.406,2.132c1.104,4.315,1.103,4.338-3.362,4.1
		c-0.604-0.032-0.761,0.167-1.069,0.611c-2.904,4.166-7.865,4.884-12.375,2.463c-3.7-1.987-6.948-4.448-10.036-7.208
		c-0.491-1.314,0.068-2.534,0.346-3.779c2.584-2.104,5.585-2.892,8.868-2.864c0.83,0.007,1.573,0.123,2.226,0.646
		c0.104,0.097,0.105,0.197,0.008,0.3c-2.208-0.135-1.685,1.171-1.134,2.308c1.971,4.064,7.804,5.799,11.814,3.614
		C49.783,38.542,50.204,37.823,50.113,36.752z"/>
	<path fill="#F9D1A7" d="M33.1,47.071c3.265,1.66,6.641,3.003,10.108,4.222c3.629,1.277,5.375,6.265,4.403,10.921
		c-0.867,4.153-4.46,6.832-8.733,6.477c-0.472-0.04-0.928-0.276-1.353,0.111c-0.438-0.181-0.876-0.364-1.315-0.547
		c-0.212-0.124-0.424-0.249-0.635-0.375c-0.171-0.104-0.342-0.208-0.514-0.314c-1.034-2.786-2.729-5.261-3.345-8.287
		c-0.365-1.791,0.068-3.702-0.863-5.377C31.238,51.505,31.609,49.103,33.1,47.071z"/>
	<path fill="#4F1C11" d="M49.881,36.412c-2.088-2.383-4.491-4.147-7.862-4.018c-1.377,0.039-2.756,0.079-4.134,0.119
		c0.103,0.096,0.106,0.196,0.008,0.298c-2.207-0.134-1.684,1.173-1.133,2.309c1.97,4.065,7.804,5.8,11.815,3.615
		C49.551,38.202,49.971,37.482,49.881,36.412z"/>
	<path fill="#FAF9F7" d="M42.413,33.645c0.645,0.738,2.091,0.324,2.339,1.63c-2.277,1.139-4.678,0.687-6.465-1.213
		c0.098-0.102,0.094-0.201-0.008-0.298C39.657,33.723,41.035,33.684,42.413,33.645z"/>
	<path fill="#EFE9DD" d="M50.971,57.223c-0.438-1.602-1.936-2.2-2.808-3.389c-3.706-2.373-7.253-2.259-10.709-0.343L37.45,53.49
		c-0.014,0.009-0.029,0.02-0.043,0.027c-0.713,0.399-1.422,0.868-2.128,1.415c-0.302,0.232-0.541,0.472-0.716,0.742
		c-2.109,2.141-4.096,6.088-2.862,14.381c0.078,0.524,0.165,1.009,0.257,1.465c-0.008,0.249-0.035,0.509-0.032,0.754
		c-0.474,1.126-0.956,2.252-0.328,3.49c2.069,1.167,4.19,2.046,6.586,1.445c1.328,1.728,2.951,1.093,4.547,0.658
		c2.448-0.479,4.963-0.372,7.352-1.424c0.178-0.079,0.354-0.147,0.521-0.221l0,0C52.242,76.198,56.467,70.019,50.971,57.223z"/>
	<path fill="#EED4B1" d="M32.007,76.168c-0.627-1.242-0.146-2.367,0.327-3.49c6.041-0.054,12.074,0.031,18.029,1.227
		c0.664,0.134,1.718,0.09,1.761,1.253c0.039,1.14-0.788,1.318-1.631,1.688c-2.389,1.053-4.905,0.944-7.353,1.424
		c-1.492-0.401-3.005-0.643-4.547-0.657C36.197,78.213,34.075,77.334,32.007,76.168z"/>
	<path fill="#B56A29" d="M31.745,70.423c-0.225-0.005-0.455-0.021-0.685-0.064c-1.376-0.246-2.262,0.131-2.596-0.127l0,0
		c-0.46,0.116-0.921-0.04-1.317-0.218c-1.487-0.675-3.06,0.164-4.573-0.49c-1.276-0.552-1.11,1.72-2.212,1.781
		c-0.181,1.168-0.055,2.354-0.458,3.522c-1.137,3.293-3.238,4.87-6.416,4.782c-0.863-0.024-1.812-0.569-2.612,0.303
		c1,1.343,2.456,1.38,3.841,1.672c2.946,0.617,5.739-0.556,8.598-0.935c0.127-0.091,0.265-0.125,0.414-0.1
		c2.092-1.248,4.43-2.038,6.146-3.99c0.627-0.713,1.18-0.01,1.763-0.075c-0.628-1.241-0.146-2.366,0.328-3.489
		c-0.006-0.469,0.102-0.984-0.033-1.398C31.776,71.121,31.721,70.735,31.745,70.423z"/>
	<path fill="#B56A29" d="M63.408,80.915c-2.633-1.037-4.107-1.48-2.987-6.629c0.058-3.409-2.118-3.172-4.19-3.219
		c-1.184-0.027-2.041-1.113-3.135-1.487c-0.061-0.009-0.128-0.025-0.209-0.06c-0.018-0.009-0.04-0.009-0.06-0.015
		c-0.058-0.014-0.115-0.022-0.174-0.029c-0.135-0.005-0.284,0.021-0.448,0.072c-0.034,0.031-0.068,0.062-0.102,0.096
		c0.006-0.022,0.009-0.045,0.014-0.067c-0.756,0.264-1.717,0.973-2.307,1.439c-0.669,3.238-0.252,5.389,1.703,7.451
		c3.377,3.556,7.592,4.587,12.121,4.459c0.836-0.022,1.325-0.728,1.846-1.34C64.989,80.626,64.087,81.182,63.408,80.915z"/>
	<path fill="#643419" d="M39.066,11.325c1.215,0.247,2.635-0.352,3.617,0.873c0.388,0.484,0.877,1.009,0.494,1.633
		c-0.388,0.634-1.022,0.252-1.489,0.036c-1.81-0.84-3.536-0.778-5.236,0.287c-0.283,0.177-0.708,0.435-0.964-0.006
		c-0.231-0.398,0.135-0.673,0.398-0.922c0.905-0.858,2.102-1.235,3.133-1.884L39.066,11.325z"/>
	<path fill="#643419" d="M62.894,20.654c-0.321,0.771-0.785,0.61-1.278,0.187c-0.676-0.579-1.528-0.74-2.338-1.001
		c-0.927,0.039-1.77-0.292-2.622-0.586c-0.212-0.259-0.186-0.544-0.09-0.838C58.998,16.927,60.875,17.591,62.894,20.654z"/>
	<path fill="#D57C28" d="M40.055,43.896c1.216-0.048,4.033-0.181,4.468-0.39c0,0-3.438-0.572-4.627-0.743
		c-0.002-0.004-0.006-0.009-0.006-0.009l-0.311-0.035h-0.001l0,0l-3.489-0.387c0.121,0.087,2.192,1.392,3.404,1.582h0.001
		c0,0,0.005,0,0.006,0c0.067,0.012,0.133,0.021,0.194,0.023C39.853,43.946,39.968,43.929,40.055,43.896z"/>
	<path fill="#B56A29" d="M26.394,39.857c-0.085,0.526-0.171,1.051-0.256,1.578c-3.524-1.301-7.639-7.077-7.586-10.646
		c2.446,0.761,3.438,3.172,5.247,4.664c0.963,0.796,1.751,1.365,2.941,0.624C26.462,37.323,25.902,38.542,26.394,39.857z"/>
	<path fill="#643419" d="M17.604,24.655c0.972,0.498,1.25,0.673,0.199,1.625c-1.327,1.203-2.266,1.871-1.763,3.961
		c0.077-0.189,0.143-0.588,0.323-0.455c0.399,0.292-0.013,0.622-0.129,0.931c-0.146,0.701-0.289,1.4-0.433,2.1
		c-0.016,0.119-0.032,0.238-0.046,0.356c0.07,0.757-0.033,1.548,0.455,2.241c0.402-0.234,0.416-0.866,1.047-0.902
		c0.375,1.071,0.926,2.151,1.11,3.288c0.293,1.814,0.901,1.208,1.677,0.125c0.571,2.472,2.367,3.055,4.27,4.311
		c0.68-0.202,3.29,1.477,3.932,1.317c-0.295-0.146-2.082-2.062-2.341-2.315c-1.61-1.562-4.453-1.84-4.648-4.694
		c-0.1-1.456-1.681-2.633-2.112-4.253c-0.733-2.77-0.107-5.136,1.504-7.407c1.073-1.514,0.932-1.664,2.275-3.193
		c1.316-1.498,1.36-0.946,1.373-1.814c0.029-0.112,1.151-0.714,1.191-0.821c2.405-2.141-0.489-1.845-1.522-2.051
		c0.333,0.053-0.814-0.244-1.32-0.324c-0.019,0.056,0.722,0.616,0.739,0.633c1.85,1.733-0.885,0.979-1.732,2.277
		c-0.452,0.693,0.259,1.011-0.177,1.714c-0.89,1.999-1.524,0.958-3.312-0.177c-0.59-0.375-1.154-0.792-1.729-1.191
		c-0.288,0.766-0.008,1.375,0.528,1.907c0.218,0.215,0.419,0.45,0.26,0.765c-0.256,0.503-0.561,0.094-0.87,0.041
		c-0.329-0.057-0.685,0.021-1.027,0.042C15.882,23.583,16.704,24.196,17.604,24.655z"/>
	<path fill="#B56A29" d="M11.421,63.045c0.562-0.205,1.152-0.503,1.626-0.886c0.078-0.759,2.317-1.206,2.441-1.961
		c-0.351,0.036-3.623-0.209-3.689-0.889c-1.068-0.681,2.893-1.703,2.634-1.807c-1.189-0.473-5.034,0.914-6.286,1.291
		c0.379,0.109,0.752,0.248,1.14,0.318c0.45,0.083,1.108-0.055,1.095,0.606c-0.012,0.535-0.5,0.751-1.069,0.644
		c-1.297-0.247-1.84,1.094-2.894,1.403c-0.511,0.149-0.342-0.099-0.534-1.138c-1.167,0.14-1.056,2.529-2.022,2.812
		c0,1.609,0,3.217,0,4.825c1.088,1.72,1.053,4.037,2.861,5.373c-0.053-2.285-1.179-4.379-0.987-6.756
		c0.136-1.688,1.246-2.672,2.044-3.834c0.588-0.856,1.92-0.744,2.921-0.444C11.006,62.693,11.238,62.853,11.421,63.045z"/>
</g>
<g id="RightEye">
	<path fill="#E6D7CC" d="M63.106,26.017c-0.252-1.47-0.45-3.051-1.608-4.208c-1.243-1.24-2.91-0.473-4.331-0.89
		c-0.151,0.187-0.306,0.373-0.458,0.56c-0.355,0.5-0.601,1.207-1.086,1.465c-2.509,1.335-3.439,3.861-4.788,6.074
		c-1.057,1.738-0.817,3.755,0.583,5.095c0.489,0.317,0.978,0.635,1.465,0.953c0.186,0.152,0.37,0.306,0.555,0.459
		c0.357-0.337,0.689-0.572,0.786,0.185c0.669,0.577,1.406,0.424,2.149,0.198c0.904,0.283,1.807-0.604,2.711-0.005
		c0.047-0.1,0.114-0.187,0.201-0.257c0.064,0.094,0.145,0.17,0.242,0.229c0.165-0.182,0.115-0.328-0.074-0.451l-0.004-0.023
		c0.162-0.179,0.323-0.357,0.485-0.536c1.393-0.247,2.102-1.343,2.494-2.462C63.146,30.356,63.474,28.171,63.106,26.017z"/>
	<path fill="#643419" d="M57.169,20.913c1.42,0.417,3.088-0.35,4.33,0.891c1.159,1.157,1.356,2.739,1.607,4.209
		c0.368,2.153,0.041,4.339-0.676,6.386c-0.393,1.119-1.101,2.216-2.496,2.462c0.023-0.162,0.045-0.323,0.066-0.484
		c0.495-0.395,0.851-0.89,1.087-1.475c0.225-0.118,0.136-0.257,0.025-0.396c0.848-1.54,0.752-3.192,0.577-4.855
		c-0.099-1.272-0.047-2.642-0.858-3.674c-0.743-0.946-1.465-2.414-3.148-1.325c-0.192-0.1-0.353-0.104-0.422,0.148
		c-0.428,0.303-0.856,0.606-1.283,0.908c-0.492-0.146-0.507,0.208-0.553,0.527c-0.37,0.465-0.739,0.93-1.108,1.396
		c-2.989,2.135-3.684,5.054-2.897,8.479c-1.402-1.341-1.64-3.356-0.582-5.094c1.349-2.215,2.278-4.741,4.786-6.076
		c0.484-0.258,0.73-0.965,1.085-1.465C56.863,21.287,57.018,21.1,57.169,20.913z"/>
	<path fill="#FCFAF8" d="M59.094,35.725c-0.086,0.07-0.154,0.157-0.201,0.258c-0.904-0.599-1.807,0.288-2.711,0.005
		c-0.31-0.434-1.195-0.513-0.836-1.359c0.863,0.107,1.532-0.232,2.062-0.894c1.46-0.428,2.458-1.187,2.085-2.923
		c0.257-0.174,0.054-0.336-0.014-0.5c1.486-0.512,0.522-1.574,0.544-2.414c0.492-0.057,0.984-0.11,1.477-0.166
		c0.174,1.662,0.269,3.314-0.578,4.854c-0.009,0.131-0.017,0.265-0.026,0.397c-0.235,0.584-0.591,1.08-1.087,1.474
		c-0.382-0.183-0.67-0.069-0.845,0.304c-0.152,0.331,0.054,0.537,0.296,0.718l0.003,0.023C59.185,35.56,59.129,35.635,59.094,35.725
		z"/>
	<path fill="#FCFAF8" d="M52.272,30.564c-1.109-1.63,0.652-2.319,1.13-3.425c0.21-0.487,1.204-0.58,0.721-1.426
		c0.37-0.467,0.739-0.931,1.109-1.397c0.395,0.265,0.671-0.009,0.962-0.213c0.829,0.668,1.856-0.838,2.516,0.113
		c0.692,0.998,1.448,2.077,1.199,3.448c-0.098-0.098-0.194-0.196-0.292-0.294c-0.034-0.511-0.286-0.746-0.811-0.632
		c-2.744-0.784-4.86,0.563-6.188,3.935C52.505,30.637,52.388,30.601,52.272,30.564z"/>
	<path fill="#643419" d="M54.271,33.75c-1.972-2.458-0.311-6.903,2.783-7.449c0.356-0.062,0.712-0.125,1.068-0.188
		c1.214,0.547,1.918,0.933,1.712,2.816c-0.222,2.041-0.53,3.784-1.797,5.356c-1.099,0.164-1.474-0.258-2.548-0.178
		C55.12,34.004,54.862,33.924,54.271,33.75z"/>
	<path fill="#E6D7CC" d="M59.509,29.817c-0.237-0.239,0.062-0.657-0.173-0.895c0.232-1.015-0.625-1.204-1.308-1.461
		c-0.249-0.095-0.602,0.052-0.633,0.417c-0.059,0.739,0.543,0.946,1.096,1.187c-0.465,2.38-0.905,2.755-3.574,3.148
		c-0.175,0.025-0.291,0.341-0.438,0.522c0.186,0.8,0.938,0.727,1.518,0.921c0.861,0.115,1.521-0.196,2.038-0.812
		c0.49-1.04,0.271-1.124,1.143-1.901C59.43,30.781,59.579,29.974,59.509,29.817z"/>
</g>
<g id="LeftEye">
	<path fill="#E6D7CC" d="M43.55,18.757c-0.276-1.338-0.513-2.899-1.837-3.604c-1.97-1.051-3.882-0.519-5.574,0.833
		c-2.601,2.077-4.535,4.625-5.458,7.869c0.003,0.542,0.11,1.096,0.39,1.859c0.28,0.764,0.38,1.281,1.429,2.119
		c2.926,2.643,4.507,2.827,7.902,0.925c2.448-1.653,3.109-2.866,3.32-4.56c0.072-0.233,0.174-1.032,0.247-1.264
		C43.84,21.539,43.832,20.12,43.55,18.757z"/>
	<path fill="#643419" d="M30.68,23.854c0.923-3.244,2.857-5.792,5.458-7.868c1.691-1.352,3.604-1.883,5.574-0.834
		c1.325,0.706,1.561,2.268,1.837,3.605c0.28,1.363,0.29,2.781,0.418,4.176c-0.072,0.232-0.192,1.163-0.265,1.396
		c-0.297,1.202-0.109,0.44-0.602,1.842c-0.054,0.103-0.531,0.875-0.572,0.985c-1.222,0.839-1.467,1.645-2.129,1.6
		c2.038-3.179,2.203-6.668,1.648-10.255c-0.214-1.394-1.569-2.3-2.904-2.06c-3.694,0.666-7.452,5.218-7.444,9.02
		C30.927,25.199,31.058,24.366,30.68,23.854z"/>
	<path fill="#FCFAF8" d="M38.872,27.108c0.758-1.872,0.55-3.629,0.174-5.647c-0.346-1.863-1.132-2.028-2.452-2.202
		c0.55-1.417,1.814-2.02,3.097-1.91c1.446,0.123,1.412,1.577,1.543,2.719c0.258,2.229-0.05,4.386-0.888,6.458
		C40.09,27.159,39.854,28.165,38.872,27.108z"/>
	<path fill="#643419" d="M35.38,27.841c-2.597-1.783-2.289-6.519,0.515-7.934c0.322-0.163,0.645-0.326,0.967-0.489
		c1.321,0.173,2.106,0.339,2.453,2.203c0.376,2.018,0.584,3.774-0.173,5.647c-1.006,0.473-1.486,0.178-2.492,0.566
		C36.269,27.839,35.998,27.838,35.38,27.841z"/>
	<path fill="#E6D7CC" d="M39.26,22.564c-0.295-0.16-0.129-0.646-0.423-0.806c-0.07-1.039-0.946-0.973-1.673-1.022
		c-0.267-0.019-0.562,0.223-0.487,0.582c0.157,0.724,0.792,0.749,1.393,0.819c0.242,2.413-0.074,2.901-2.514,4.046
		c-0.16,0.076-0.182,0.412-0.268,0.626c0.409,0.713,1.107,0.425,1.719,0.443c0.858-0.138,1.399-0.627,1.716-1.366
		c0.168-1.138-0.066-1.155,0.544-2.15C39.463,23.511,39.373,22.694,39.26,22.564z"/>
</g>
<g id="RightArm">
	<path fill="#D57C28" d="M47.721,58.943c-1.57,0.786-5.805,6.487-5.805,7.607c0,1.121,0.274,2.97,2.836,3.282
		c2.562,0.313,10.395-0.792,11.967-2.089c1.574-1.298,7.028-6.902,6.046-9.449c-0.98-2.546-4.836-1.85-4.836-1.85
		S49.092,58.257,47.721,58.943z"/>
	<path fill="#E89C4A" d="M54.665,50.012c1.129,0.374,2.259,0.748,3.39,1.122c1.224,1.562,2.296,3.34,3.729,4.615
		c0.956,0.852,1.18,1.588,0.951,2.747c-0.603-0.045-0.727-0.683-1.077-1.043c-0.58-0.591-1.008-0.855-1.13,0.487
		c-0.1,1.071-0.321,1.803-1.896,1.163c-1.386-0.563-3.336-1.167-4.901,0.158c-0.887,0.751-1.418-0.427-2.336-0.273
		c-2.562,0.427-4.052,2.542-5.975,3.956c-0.474,0.349-0.784,0.938-1.457,0.742c1.326-3.348,3.573-5.342,6.856-5.809
		c2.109-0.061,3.977-1.403,6.676-1.188C55.062,54.765,54.562,52.522,54.665,50.012z"/>
	<path fill="#B56A29" d="M50.271,70.936c0.354-0.758,1.481-0.497,3.118-1.049c0.306-0.103,0.567-0.143,0.782-0.14
		c0.938-1.42,2.511-1.836,3.772-2.742c0.459-1.062,1.722-1.448,1.877-2.763c-1.094-0.279-1.65,1.646-2.398,1.163
		c-1.425-0.923-2.668-0.06-3.98-0.019c-3.697,0.122-7.254,2.081-11.033,1.189c-0.034,0.437-0.049,0.887-0.494,1.096
		c0.151,1.381,0.874,2.579,1.944,2.849c1.603,0.402,3.195,1.342,4.965,0.68C49.297,71.026,49.783,70.932,50.271,70.936
		L50.271,70.936z"/>
</g>
<g id="LeftArm">
	<path fill="#D57C28" d="M26.483,56.868c-0.437,1.543-3.106,8.772-2.009,9.683c1.098,0.91,7.351,3.644,9.17,2.486
		c1.82-1.158,5.504-2.989,4.89-5.942c-0.613-2.955-4.321-7.382-7.682-7.271C27.493,55.937,26.483,56.868,26.483,56.868z"/>
	<path fill="#B56A29" d="M28.438,64.403c-2.518-0.663-5.438-0.258-7.345-2.974c-0.807,3.263,1.799,6.181,6.737,7.808
		c1.08,0.312,2.892,0.601,4.097,0.596h0.001c0.298-0.472,0.924-0.673,1.717-0.796c0.749-0.114,1.781,0.056,1.956-1.274
		C33.593,65.645,31.038,65.091,28.438,64.403z"/>
	<path fill="#E89C4A" d="M37.467,65.254c0.165-2.776-0.232-3.19-2.682-2.919c-0.405,0.046-0.941,0.018-1.229-0.238
		c-2.643-2.341-5.769-3.329-9.004-4.044c-0.208-0.044-0.534-0.044-0.6-0.187c-0.921-1.972-2.583-1.392-4.056-1.456
		c0.577-2.491,2.421-4.353,4.514-4.551c0.133,0.157,0.264,0.315,0.396,0.473l-0.011-0.016c-0.047,1.165-1.222,1.651-1.423,2.835
		c1.89,0.091,3.723,0.18,5.554,0.269c1.811,0.117,3.402,1.046,5.079,1.66c3.238,0.147,4.979,4.146,4.435,7.068
		C38.324,64.769,38.346,65.49,37.467,65.254z"/>
</g>
<g id="RightFoot">
	<path fill="#F6B56B" d="M72.239,66.157c-0.309-2.034-1.85-2.45-3.25-3.054c-1.263-0.264-2.396,0.196-3.501,0.824
		c-0.065,0.581-0.332,0.908-0.883,0.884c-0.089,0.069-0.148,0.167-0.177,0.283c-1.836,0.603-2.306,2.893-3.85,3.854
		c0.591,1.261-0.597,2.142-0.585,3.277c-0.132,0.363-0.262,0.729-0.392,1.09c-1.117,5.15,0.357,5.593,2.989,6.63
		c0.679,0.268,1.581-0.291,2.073,0.673c0.025,0.155,0.038,0.317,0.083,0.464c0.015,0.052,0.113,0.065,0.175,0.097
		c0.432-1.125,1.243-1.416,2.273-1.732c1.207-0.372,2.051-1.18,2.487-2.18c1.27-1.403,2.502-3.496,3.306-6.661l0,0
		c0.188-1.465,0.129-2.964,0.211-4.451C72.88,66.157,72.56,66.157,72.239,66.157z"/>
	<path fill="#E89C4A" d="M64.952,81.145c-0.534-1.116-1.521-0.467-2.262-0.773c-2.868-1.192-4.476-1.702-3.237-7.684
		c0.143-0.421,0.285-0.841,0.429-1.264c1.281,3.641,4.353,1.856,6.504,2.87c0.748,0.353,0.794-0.671,1.018-1.195
		c0.356-0.827,0.821-1.307,1.664-1.185c0.791,0.113,1.125,0.578,1.433,1.477c0.906,2.651-0.156,5.516-2.782,6.387
		c-1.125,0.37-2.012,0.713-2.487,2.02c-0.065-0.037-0.176-0.055-0.19-0.114C64.989,81.513,64.978,81.326,64.952,81.145z"/>
	<path fill="#F9D1A7" d="M72.194,70.072c-0.593,0.181-1.323,1.161-1.735-0.036c-0.486-1.41,0.475-1.836,1.683-1.914
		C72.16,68.772,72.177,69.423,72.194,70.072z"/>
	<path fill="#F9D1A7" d="M69.849,65.736c0.002,0.078-0.006,0.16,0.011,0.234c0.302,1.232,0.277,2.413-1.095,2.935
		c-0.634,0.239-1.012-0.476-1.047-0.997c-0.094-1.424,0.643-2.182,2.095-2.188L69.849,65.736z"/>
	<path fill="#F9D1A7" d="M66.414,67.273c-0.592,0.18-1.323,1.159-1.733-0.037c-0.487-1.41,0.476-1.837,1.683-1.912
		C66.38,65.973,66.397,66.622,66.414,67.273z"/>
</g>
<g id="LeftFoot">
	<path fill="#F6B56B" d="M17.344,63.044c-0.791-0.474-1.213-1.7-1.803-2.583c-0.214-0.006-0.435,0.024-0.64-0.021
		c-3.147-0.686-5.947,0.073-8.347,2.539c-0.264,0.743-0.47,1.502-0.625,2.277c-0.274,2.068,0.766,6.378,0.399,7.089c0,0,0,0-0.001,0
		c0.218,0.536,0.284,1.21,0.699,1.499c0.254-1.848,1.344-1.19,2.045-0.68c2.683,1.953,5.868,0.701,8.716,1.723
		c1.209,0.433,1.789-0.933,1.878-2.298c0.065-0.992-0.171-2.147,0.935-2.722C19.927,67.354,19.857,64.55,17.344,63.044z"/>
	<path fill="#E89C4A" d="M20.641,69.062c0.159,0.356,0.317,0.714,0.476,1.07c-0.186,1.263-0.064,2.546-0.471,3.809
		c-1.15,3.561-3.258,5.273-6.436,5.188c-0.863-0.021-1.81-0.607-2.614,0.342c-0.428-0.201-0.856-0.401-1.283-0.6
		c0.095-0.927-0.533-1.248-0.976-1.735c-0.962-1.06-1.901-2.147-2.288-3.726c0.261-1.994,1.349-1.292,2.048-0.742
		c2.676,2.1,5.867,0.736,8.711,1.826c1.208,0.466,1.792-1.013,1.888-2.489C19.765,70.932,19.532,69.685,20.641,69.062z"/>
	<path fill="#F9D1A7" d="M16.17,63.893c-0.422,0.56-0.475,1.849-1.585,1.201c-1.311-0.767-0.706-1.784,0.334-2.698
		C15.335,62.894,15.753,63.393,16.17,63.893z"/>
	<path fill="#F9D1A7" d="M11.377,62.144c0.052,0.06,0.094,0.13,0.156,0.176c1.034,0.756,1.741,1.703,0.826,3.084
		c-0.423,0.638-1.207,0.343-1.56-0.044c-0.964-1.052-0.768-2.168,0.537-3.202C11.336,62.155,11.377,62.144,11.377,62.144z"/>
	<path fill="#F9D1A7" d="M9.231,65.783c-0.422,0.562-0.475,1.849-1.586,1.201c-1.31-0.765-0.705-1.782,0.335-2.697
		C8.398,64.786,8.814,65.284,9.231,65.783z"/>
</g>
<g id="Contour">
	<g>
		<path fill="none" stroke="#000000" stroke-width="0.8263" stroke-miterlimit="10" d="M76.729,66.95
			c0.256-3.1-1.734-4.235-3.748-5.348c-0.818-0.451-1.646-0.788-2.476-1.024c-0.253-0.406-0.438-0.257-0.8-0.194
			c-0.312-0.064-0.623-0.114-0.938-0.15c-0.001-0.001-0.003-0.002-0.006-0.003c-1.154-0.53-2.836-0.153-4.36,0.284
			c-0.574,0.136-1.149,0.304-1.729,0.508c0.016-0.355,0.03-0.712,0.045-1.067c0.18-0.596,0.218-1.137,0.067-1.591
			c0.003-0.065,0.006-0.131,0.009-0.196c0.229-1.16,0.005-1.896-0.951-2.747c-0.03-0.027-0.057-0.056-0.086-0.083
			c-0.543-1.585-1.124-3.148-2.096-4.525c1.248-0.344,2.483-0.735,3.492-1.814c0.354-0.377,0.603-1.037,0.963-1.521
			c0.294-0.179,0.578-0.374,0.854-0.584c0.292-0.042,0.64,0.026,1.079,0.268c0.043,0.023,0.353-0.459,0.521-0.717
			c0.44-0.68,0.994-1.313,1.283-2.061c0.571-1.482,1.013-1.372,1.663,0.268c0.481-3.247,2.232-6.013,1.254-9.247
			c-0.352-1.155-0.789-2.262-1.424-3.269c-0.088-0.141-0.164-0.273-0.232-0.399c0.992-0.017,1.884-0.206,2.656-0.555
			c2.245-0.616,3.725-2.36,4.075-4.962c-0.12-0.028-0.237-0.066-0.346-0.112c0.08-0.441,0.134-0.886,0.122-1.343
			c-0.011-0.394-0.355-0.793-0.019-1.19c0.054-0.093,0.041-0.24,0.193-0.255c0.781-0.081,0.576-0.499,0.268-0.878
			c-0.305-0.374-0.641-0.741-1.024-1.025c-0.288-0.213-0.289-0.371-0.084-0.583c0.398-0.404,0.237-0.628-0.176-0.914
			c-0.288-0.199-0.629-0.214-0.9-0.408c-0.299,0.023-0.592,0.007-0.878-0.104c-0.125-0.048-0.301-0.042-0.307-0.218
			c-0.006-0.208,0.107-0.343,0.332-0.355c0.028-0.044,0.054-0.088,0.082-0.132c-0.609-0.782-1.438-0.384-2.181-0.376
			c-0.296,0.002-0.569,0.107-0.789-0.17c0.103-0.347,0.111-0.722,0.354-1.027c0.127-0.161,0.154-0.405-0.147-0.363
			c-1.307,0.179-2.509,0.559-3.467,1.377c-0.365-0.157-0.813-0.251-0.5-0.899c-0.891-0.3-1.969,0.187-2.647-1.055
			c-0.821-1.505-0.754-2.177,0.813-2.808c0.815-0.328,1.776-0.332,2.248-1.314c-1.624-0.226-3.073,0.291-4.34,1.317
			c-0.377,0.307-0.662,0.406-0.94,0.337c-0.35-0.327-0.725-0.63-1.134-0.898c-1.479-1.433-3.104-2.685-4.921-3.601
			C54.222,8.598,52.816,8.29,52.8,6.387c-0.005-0.643-0.577-0.974-1.057-1.154c-0.604-0.226-0.659,0.604-0.786,0.86
			C50.187,7.645,49.632,7.459,49,6.037c-0.247-0.556-0.677-1.013-1.013-1.509c-1.277-1.866-3.798-2.65-5.757-1.604
			c0.789,0.328,1.658,0.398,2.305,1.031c0.656,0.647,1.252,1.524,0.722,2.321c-0.565,0.852-1.014-0.428-1.604-0.528
			c-0.39-0.067-0.727-0.442-1.116-0.53c-1.229-0.273-2.519-0.719-3.54,0.713c1.334,0.345,1.334,0.345,1.979,1.418
			c-2.71,0.312-3.418,0.561-5.648,2.143c-0.167,0.101-0.32,0.176-0.468,0.241c-0.442,0.159-0.937,0.155-1.292-0.137
			c-0.156-0.172-0.291-0.416-0.402-0.754c-0.199-0.604-0.479-1.083-0.839-1.472c0.001-0.003,0.001-0.006,0.002-0.01
			c-0.002,0.001-0.008-0.001-0.01,0c-0.447-0.478-1.023-0.813-1.77-1.032c-0.059-0.094-0.116-0.187-0.174-0.267
			c-0.676-0.935-1.588-1.572-2.638-2.025c-0.528-0.146-1.104-0.148-1.554-0.525c-0.172,0.025-0.344,0.052-0.516,0.077l-0.042,0.035
			c0.103,0.291,0.206,0.583,0.309,0.875c0.318,0.039,0.267,0.282,0.229,0.472c-0.051,0.252-0.286,0.214-0.452,0.174
			c-0.587-0.144-1.182-0.12-1.777-0.15c-0.563-0.029-0.832,0.14-0.692,0.731c0.349,0.183,0.246,0.347-0.053,0.427
			c-0.444,0.121-0.882,0.294-1.357,0.259c-0.397,0.207-0.83,0.367-0.982,0.643c0.064,0.467,0.903,0.552,0.292,1.063
			c-0.337,0.283-0.608,0.61-0.911,0.914c-0.585,0.584-0.487,0.958,0.315,1.225c-0.011,0.201,0.112,0.36,0.087,0.591
			c-0.113,1.062-0.181,1.546,0.161,2.578c0.001,0.003,0.007,0.012,0.009,0.019c0.21,0.627,0.578,1.288,1.098,2.016
			c0.12,0.327,0.348,0.784,0.742,1.223c-0.001,0-0.001,0-0.002,0c-0.007,0.022,0.093,0.113,0.221,0.221
			c0.142,0.134,0.301,0.262,0.479,0.382c0.023,0.018,0.037,0.029,0.039,0.031c1.851,1.733-0.885,0.979-1.732,2.277
			c-0.452,0.693,0.259,1.011-0.178,1.714c-0.89,1.999-1.524,0.959-3.311-0.177c-0.589-0.375-1.153-0.792-1.729-1.191
			c-0.288,0.766-0.009,1.374,0.528,1.907c0.218,0.215,0.419,0.451,0.261,0.765c-0.257,0.503-0.562,0.093-0.87,0.041
			c-0.33-0.057-0.685,0.021-1.027,0.042c0.557,0.891,1.378,1.504,2.277,1.962c0.974,0.498,1.251,0.673,0.2,1.625
			c-1.327,1.203-2.265,1.87-1.763,3.96c0.078-0.189,0.144-0.587,0.324-0.455c0.399,0.292-0.013,0.623-0.13,0.931
			c-0.145,0.701-0.288,1.401-0.432,2.101c-0.017,0.119-0.033,0.238-0.048,0.356c0.07,0.757-0.032,1.548,0.456,2.241
			c0.402-0.235,0.416-0.866,1.047-0.902c0.375,1.072,0.925,2.15,1.109,3.287c0.294,1.814,0.901,1.208,1.677,0.125
			c0.571,2.473,2.367,3.056,4.27,4.312c0.608-0.181,2.757,1.142,3.663,1.308c0.04,0.043,0.08,0.088,0.119,0.132
			c-1.002,0.073-1.479,0.737-1.789,1.59c-2.884,3.155-5.262,6.633-6.766,10.662c-0.104,0.221-0.179,0.52-0.242,0.838
			c-0.297,0.498-0.384,1.1-0.424,1.722c-0.098,0.159-0.221,0.233-0.39,0.167c-0.022-0.01-0.048-0.021-0.072-0.029
			c-0.784-0.408-1.564-0.688-2.342-0.852c-0.571-0.163-1.14-0.274-1.637-0.271c-1.189-0.473-5.035,0.914-6.287,1.291
			c0.09,0.026,0.181,0.055,0.271,0.083C8.06,59.014,7.703,59.153,7.347,59.3c-0.753,0.31-1.131,0.89-1.434,1.521
			c-0.01-0.064-0.018-0.124-0.032-0.193c-1.166,0.14-1.055,2.529-2.021,2.812c0,1.609,0,3.217,0,4.825
			c0.01,0.014,0.019,0.032,0.028,0.049c-0.006,0.962,0.064,1.949,0.272,2.938c-0.015,0.003-0.026,0.001-0.042,0.004
			c0.039,0.105,0.076,0.208,0.114,0.313c0.241,1.01,0.618,2.016,1.187,2.997c-0.002-0.006-0.004-0.01-0.006-0.014
			c0.002,0.007,0.005,0.01,0.007,0.016c0-0.002,0-0.002,0-0.002c0,0.002,0.001,0.005,0.002,0.006v-0.001
			c0.641,1.354,1.449,2.532,2.671,3.331c0.889,0.788,1.876,1.395,2.956,1.844c-0.059,0.049-0.118,0.103-0.176,0.165
			c1.001,1.343,2.456,1.38,3.842,1.672c2.946,0.615,5.738-0.556,8.599-0.935c0.127-0.091,0.264-0.125,0.413-0.1
			c2.091-1.248,4.429-2.038,6.145-3.99c0.003-0.005,0.006-0.008,0.01-0.01c0.138-0.085,0.273-0.176,0.402-0.278
			c0.465-0.146,0.899,0.261,1.351,0.214c-0.14-0.276-0.217-0.547-0.259-0.814c0.013,0,0.027,0.003,0.041,0.003
			c-0.018-0.035-0.026-0.069-0.042-0.104c0.062,0.035,0.123,0.067,0.185,0.102c0.015,0.031,0.022,0.062,0.039,0.094
			c0.105,0.06,0.211,0.119,0.317,0.176c0.031,0.076,0.053,0.151,0.092,0.228c2.055,1.16,4.165,2.033,6.542,1.452
			c0.013,0.01,0.026,0.021,0.039,0.03c1.077,1.001,2.315,0.729,3.561,0.381c0.332,0.073,0.663,0.15,0.993,0.24
			c2.395-0.47,4.855-0.385,7.198-1.368c0.302,0.538,0.691,1.054,1.176,1.565c3.376,3.558,7.592,4.586,12.122,4.461
			c0.264-0.009,0.489-0.091,0.694-0.207c0.664,0.037,1.337,0.049,2.018,0.028c0.836-0.022,1.323-0.728,1.846-1.34
			c0.025,0.156,0.038,0.317,0.082,0.465c0.014,0.051,0.113,0.067,0.176,0.099c0.431-1.124,1.242-1.416,2.273-1.733
			c1.207-0.374,2.05-1.179,2.486-2.179c1.271-1.402,2.503-3.498,3.305-6.661l0,0C76.707,69.936,76.645,68.436,76.729,66.95
			c-0.322,0.003-0.643,0.003-0.963,0.003C76.087,66.953,76.407,66.953,76.729,66.95z M67.381,31.786
			c-0.024-0.064-0.049-0.129-0.071-0.193c0.616,0.106,1.203,0.152,1.76,0.146C68.692,31.785,68.243,31.962,67.381,31.786z"/>
		<path fill="none" stroke="#000000" stroke-width="0.8263" stroke-miterlimit="10" d="M23.245,5.73c0-0.001,0-0.003,0-0.005
			c-0.003-0.001-0.004-0.002-0.006-0.003L23.245,5.73z"/>
	</g>
	<path fill="none" stroke="#000000" stroke-width="0.8263" stroke-miterlimit="10" d="M30.854,53.22
		c-0.11,0.682,0.504,2.007,0.554,2.414c0.049,0.407,5.263,1.912,5.927,3.31c0.665,1.396,3.323,6.29-1.734,8.82
		c-5.057,2.528-1.448,1.625-3.672,2.071c-2.226,0.444-10.62-1.105-11.326-7.265"/>
	<path fill="none" stroke="#000000" stroke-width="0.8263" stroke-miterlimit="10" d="M55.13,56.868
		c-2.98,0.82-9.643,0.537-12.044,6.855c-3.524,9.271,5.505,7.737,8.335,6.182c2.828-1.555,6.802-2.493,8.4-5.663"/>
</g>
</svg>
