<?xml version="1.0" encoding="utf-8"?>
<!-- Generator: Adobe Illustrator 16.0.4, SVG Export Plug-In . SVG Version: 6.00 Build 0)  -->
<!DOCTYPE svg PUBLIC "-//W3C//DTD SVG 1.1//EN" "http://www.w3.org/Graphics/SVG/1.1/DTD/svg11.dtd">
<svg version="1.1" id="Layer_1" xmlns="http://www.w3.org/2000/svg" xmlns:xlink="http://www.w3.org/1999/xlink" x="0px" y="0px"
	 width="184px" height="84px" viewBox="0 0 184 84" enable-background="new 0 0 184 84" xml:space="preserve">
<g>
	<g id="Body">
		<g>
			<path fill="#D57C28" d="M68.389,74.374c0.143-1.738-0.973-2.375-2.104-3c-0.459-0.254-0.922-0.441-1.388-0.574
				c-0.143-0.229-0.246-0.145-0.449-0.11c-0.174-0.034-0.35-0.063-0.526-0.084c-0.001,0-0.001-0.001-0.003-0.001
				c-0.648-0.299-1.591-0.088-2.446,0.159c-0.322,0.076-0.645,0.171-0.971,0.284c0.022-0.534,0.045-1.068,0.068-1.601
				c0.128-0.652,0.003-1.064-0.534-1.543c-0.017-0.013-0.032-0.03-0.049-0.045c-0.359-1.052-0.746-2.088-1.496-2.953l-0.046,0.042
				c0.022-0.019,0.046-0.042,0.046-0.042c-0.042-0.699,0.574-0.604,0.935-0.693c3.103-0.781,5.087-4.509,3.902-7.562
				c-0.275-0.71-0.524-1.433-0.821-2.246c1.67,0.441,3.033,0.184,3.903-0.63c0.084-0.007,0.169-0.06,0.254-0.042
				c-0.002-0.056,0.024-0.081,0.079-0.08c0-0.052,0.024-0.079,0.078-0.079c-0.012-0.142,0.06-0.215,0.196-0.231
				c0.152-0.314,0.42-0.562,0.507-0.91c0.071-0.578,0.261-1.135,0.243-1.729c-0.005-0.221-0.199-0.444-0.008-0.667
				c0.028-0.052,0.022-0.135,0.107-0.144c0.438-0.046,0.325-0.281,0.15-0.493c-0.171-0.208-0.358-0.415-0.575-0.575
				c-0.161-0.119-0.161-0.207-0.047-0.326c0.224-0.228,0.133-0.352-0.1-0.513c-0.161-0.112-0.352-0.121-0.503-0.23
				c-0.169,0.015-0.333,0.005-0.494-0.057c-0.069-0.028-0.169-0.024-0.171-0.123c-0.004-0.116,0.059-0.192,0.186-0.199
				c0.015-0.026,0.032-0.049,0.046-0.074c-0.342-0.438-0.807-0.217-1.224-0.211c-0.166,0.002-0.319,0.061-0.442-0.096
				c0.057-0.194,0.062-0.404,0.198-0.576c0.072-0.091,0.086-0.228-0.083-0.205c-0.999,0.137-1.888,0.479-2.47,1.372
				c-0.024,0.08-0.088,0.096-0.161,0.09c0,0.074-0.001,0.148-0.114,0.123l-0.004,0.001c0.006,0.012,0.014,0.023,0.019,0.036
				c-0.704,0.18-0.729-0.453-0.971-0.832c-0.828-1.3-1.623-2.631-3.164-3.231c-2.642-1.616-5.567-2.412-8.604-2.673
				c-1.432-0.123-2.903,0.265-4.181,1.036c-0.607,0.366-0.987,0.321-1.213-0.365c-0.111-0.339-0.268-0.607-0.47-0.826
				c0-0.002,0-0.004,0-0.007c0,0.002-0.004,0-0.005,0c-0.251-0.267-0.575-0.455-0.994-0.577c-0.033-0.053-0.065-0.106-0.098-0.151
				c-0.38-0.523-0.893-0.882-1.48-1.135c-0.297-0.082-0.619-0.084-0.872-0.295c-0.098,0.014-0.194,0.029-0.29,0.043l-0.023,0.019
				c0.058,0.166,0.115,0.328,0.173,0.491c0.179,0.021,0.15,0.159,0.128,0.266c-0.028,0.142-0.16,0.119-0.253,0.096
				c-0.329-0.08-0.663-0.067-0.998-0.083c-0.315-0.016-0.467,0.079-0.388,0.411c0.196,0.102,0.138,0.195-0.03,0.239
				c-0.249,0.067-0.494,0.167-0.762,0.146c-0.223,0.116-0.465,0.207-0.55,0.36c0.035,0.261,0.507,0.309,0.165,0.597
				c-0.19,0.159-0.342,0.341-0.512,0.513c-0.328,0.328-0.273,0.536,0.177,0.687c-0.007,0.112,0.062,0.202,0.048,0.332
				c-0.062,0.596-0.101,0.867,0.091,1.448c0,0.001,0.004,0.005,0.005,0.009c0.118,0.351,0.324,0.723,0.616,1.129
				c0.111,0.302,0.378,0.799,0.963,1.126l0,0c0.376,0.247,0.82,0.409,1.152,0.716l0.035-0.022c-0.1,0.104-0.2,0.204-0.301,0.306
				c-1.426,1.018-3.618,3.412-3.804,4.018c-0.235,0.76-0.23,1.474-0.176,2.224c-0.028,2.001,2.28,5.242,4.257,5.973
				c0.45,0.5,0.898,0.998,1.346,1.498c-0.561,0.042-0.829,0.413-1.003,0.893c-1.618,1.771-2.952,3.721-3.797,5.98
				c-0.058,0.125-0.099,0.293-0.135,0.473c-0.167,0.278-0.216,0.615-0.238,0.966c-0.054,0.088-0.124,0.13-0.218,0.093
				c-0.013-0.006-0.027-0.011-0.041-0.016c-0.439-0.229-0.878-0.387-1.315-0.479c-0.469-0.133-0.936-0.206-1.275-0.105l0,0
				c-1.209,0.045-2.41,0.466-3.618,0.962c-0.815,0.336-0.849,1.234-1.301,1.82c-0.656,0.542-0.524,1.377-0.656,2.115
				c0.044,0.1,0.05,0.218,0.049,0.343c-0.067,0.779-0.054,1.604,0.12,2.429c-0.008,0.002-0.016,0.002-0.023,0.002
				c0.021,0.059,0.042,0.117,0.063,0.178c0.135,0.565,0.347,1.131,0.667,1.679c-0.001-0.001-0.002-0.003-0.003-0.006
				c0.001,0.003,0.002,0.006,0.004,0.01c0-0.003,0-0.003,0-0.004c0,0.001,0,0.004,0.001,0.005c0-0.001,0-0.001,0-0.001
				c0.359,0.761,0.812,1.42,1.499,1.87c0.592,0.523,1.256,0.914,2,1.173c0.482,0.277,1.047,0.32,1.593,0.436
				c1.316,0.277,2.578-0.083,3.846-0.349c0,0,0.002,0,0.002-0.002c0,0,0,0.002-0.002,0.002c0.001-0.002,0.002-0.002,0.003-0.002
				c0.018-0.003,0.033-0.005,0.05-0.009c0.106-0.019,0.207-0.041,0.306-0.062c0.006,0,0.011-0.004,0.017-0.004c0,0,0.001,0,0.002,0
				c0.002-0.002,0.004-0.002,0.006-0.002c-0.002,0-0.003,0-0.005,0.002c0.002-0.002,0.005-0.002,0.005-0.002
				c0.198-0.035,0.396-0.07,0.594-0.096c0.071-0.051,0.148-0.07,0.232-0.059c0.828-0.491,1.723-0.861,2.517-1.417
				c0.647-0.084,1.23-0.37,1.671-0.898c0.082,0.026,0.165,0.047,0.249,0.038c-0.01-0.02-0.015-0.04-0.024-0.059
				c1.153,0.648,2.335,1.13,3.669,0.795c0.745,0.97,1.657,0.614,2.552,0.371c1.369-0.269,2.777-0.21,4.114-0.793
				c0.625,0.485,1.409,0.771,2.187,0.805c0.093,0.116,0.19,0.233,0.3,0.35c1.895,1.995,4.26,2.574,6.802,2.504
				c0.469-0.015,0.742-0.411,1.036-0.753c0.014,0.087,0.021,0.178,0.046,0.262c0.008,0.028,0.064,0.035,0.099,0.054
				c0.242-0.631,0.697-0.795,1.276-0.973c0.678-0.21,1.15-0.661,1.396-1.223c0.712-0.787,1.404-1.963,1.854-3.737l0,0
				C68.376,76.05,68.341,75.209,68.389,74.374c-0.181,0.001-0.361,0.001-0.541,0.001C68.027,74.375,68.208,74.375,68.389,74.374z"/>
			<path fill="#D57C28" d="M66.667,53.732c-0.002-0.001-0.003,0-0.003-0.001c0,0.002-0.001,0.002-0.001,0.003L66.667,53.732z"/>
			<path fill="#D57C28" d="M66.824,53.572c-0.001,0-0.003,0.001-0.003,0.001c0,0.001,0,0.003,0,0.004L66.824,53.572z"/>
			<path fill="#D57C28" d="M66.745,53.652c0,0-0.001,0-0.003,0c0,0.001,0,0.002,0,0.004L66.745,53.652z"/>
			<polygon fill="#D57C28" points="62.175,47.673 62.176,47.673 62.176,47.669 			"/>
			<path fill="#D57C28" d="M38.376,40.021c0,0,0-0.001,0-0.002c-0.001,0-0.002-0.001-0.003-0.002L38.376,40.021z"/>
		</g>
		<path fill="#B56A29" d="M43.103,42.633c-0.598-1.311-1.912-1.779-3.412-1.231c-1.07,0.39-1.771,1.902-1.405,3.081
			c0.177,0.568,0.397,1.12-0.247,1.549c0.366,0.71,1.187,0.824,1.72,1.315c0.768-0.489,1.541-0.972,1.929-1.855
			c-0.032-0.838,0.896-1.012,1.147-1.652C43.56,43.579,43.31,43.088,43.103,42.633z"/>
		<path fill="#F9D1A7" d="M41.655,45.479c-0.721,0.63-1.363,0.42-1.901-0.233c-0.533-0.648-0.388-2.402,0.313-2.8
			c0.779-0.442,1.626-0.315,2.325,0.307c0.316,0.279,0.406,0.667,0.409,1.077C42.55,44.473,41.623,44.644,41.655,45.479z"/>
		<path fill="#B56A29" d="M67.373,50.997c0.036-1.627-1.365-2.18-2.321-3.021c-0.515-0.455-1.183,0.003-1.762,0.182
			c-0.48,0.149-0.864,0.568-1.424,0.579c-0.247-0.74,0.82-0.504,0.718-1.081c-0.727,0.198-0.748-0.445-0.992-0.827
			c-0.829-1.299-1.623-2.633-3.164-3.231c0.037,1.395,1.148,2.398,1.345,3.751c0.292,2.007,0.277,4.02,0.266,6.037
			c-0.004,0.586-0.014,1.171,0.318,1.694c0.702,1.109,0.799,2.354,0.76,3.613c-0.046,1.523-1.313,2.871-2.8,3.184
			c-0.673,0.14-0.922-0.079-1.017-0.671c-0.191,1.42-0.645,2.647-2.101,3.295c-0.284,0.126-0.656,0.464-0.46,0.995
			c0.53,1.433,0.463,2.909,0.202,4.387c1.047-1.062,0.517-2.367,0.366-3.509c-0.137-1.049,0.003-1.365,1.061-1.377
			c0.839-0.01,1.666-0.359,2.526-0.187l0.084-0.078c-0.044-0.698,0.573-0.604,0.934-0.693c3.102-0.781,5.085-4.508,3.901-7.562
			c-0.275-0.71-0.524-1.433-0.822-2.247c2.695,0.714,4.588-0.396,4.901-2.708C67.612,51.452,67.367,51.312,67.373,50.997z"/>
		<path fill="#F9D1A7" d="M66.153,51.192c0,1.256-0.971,1.462-1.887,1.606c-0.736,0.116-1.422-1.145-1.367-2.47
			c0.043-1.007,0.902-1.003,1.567-1.067C65.532,49.155,66.131,49.893,66.153,51.192z"/>
		<g>
			<path fill="#643419" d="M52.564,41.75c2.21,0.563,4.376,1.26,6.305,2.572c0.651,0.444,1.106,1.112,1.57,1.758
				c0.155,0.618,0.562,1.086,0.881,1.606c0.302,0.001,0.558-0.011,0.753,0.012c0.033-0.185,0.208-0.3,0.636-0.296
				c0.255,0.003,0.2-0.222,0.214-0.388c-0.208-0.109-0.536-0.13-0.343-0.534c-0.5-0.166-1.105,0.106-1.485-0.591
				c-0.461-0.845-0.423-1.221,0.455-1.575c0.458-0.185,0.998-0.187,1.262-0.738c-0.911-0.127-1.725,0.163-2.435,0.74
				c-0.38,0.31-0.592,0.255-0.924-0.081c-0.894-0.901-1.881-1.69-3.001-2.256c-0.693-0.348-1.481-0.521-1.492-1.588
				c-0.003-0.361-0.323-0.547-0.593-0.647c-0.339-0.126-0.37,0.338-0.44,0.483c-0.432,0.869-0.744,0.765-1.099-0.032
				c-0.139-0.312-0.379-0.569-0.569-0.848c-0.715-1.046-2.13-1.487-3.23-0.899c0.444,0.184,0.931,0.223,1.294,0.578
				c0.368,0.362,0.702,0.855,0.405,1.303c-0.318,0.478-0.569-0.24-0.9-0.296c-0.217-0.037-0.407-0.249-0.625-0.298
				c-0.689-0.153-1.414-0.403-1.986,0.402c0.749,0.192,0.749,0.192,1.11,0.795c-1.521,0.174-1.918,0.314-3.17,1.202
				c-0.29,0.206-0.724,0.287-0.996,0.051c0.271,1.061,1.107,0.406,1.593,0.208c0.393-0.163,0.457-0.223,0.869-0.402
				c2.049-0.89,3.522,0.618,5.555-0.336C52.274,41.607,52.433,41.717,52.564,41.75z"/>
			<path fill="#643419" d="M64.247,54.839c-0.05-0.08-0.096-0.155-0.132-0.228c-0.303,0.029-0.672,0.239-1.702-0.21
				c0.113,0.8,0.389,1.597,0.49,2.397c0.185,1.456-0.118,2.796-1.105,4.021c-0.548,0.682-1.043,1.294-1.742,1.85
				c-1.151,0.916-2.372,0.764-3.611,0.855c-0.401,0.028-0.44-0.389-0.684-0.547c-0.63,0.889-1.496,1.279-2.505,1.219
				c-0.791-0.045-1.347,0.166-1.554,1.039c0.206,0.198,0.419,0.131,0.659,0.054c0.323-0.1,0.655-0.214,0.921-0.145
				c0.52-0.361,1.664-0.816,4.982,0.246c0.044,0.013,0.083,0.029,0.125,0.043c0.838-0.236,1.702-0.406,2.382-1.134
				c0.419-0.448,0.57-1.611,1.623-1.031c0.024,0.013,0.198-0.258,0.292-0.402c0.248-0.382,0.56-0.737,0.721-1.155
				c0.32-0.834,0.568-0.771,0.932,0.15c0.27-1.822,1.252-3.375,0.704-5.189C64.849,56.025,64.603,55.405,64.247,54.839z"/>
		</g>
		<path fill="#F6B56B" d="M55.303,58.625c-0.683-0.325-1.026-1.194-1.912-1.196c0.051,0.602-0.185,1.007-0.733,1.304
			c-2.25,1.227-5.524,0.252-6.63-2.028c-0.308-0.638-0.602-1.37,0.637-1.295c0.054-0.059,0.053-0.114-0.005-0.166
			c-0.366-0.296-0.783-0.36-1.248-0.364c-1.843-0.016-3.526,0.427-4.978,1.607c-0.154,0.698-0.468,1.382-0.192,2.119
			c-0.048,0.295-0.096,0.591-0.144,0.887c0.448,0.498,0.897,0.998,1.346,1.495c1.264,0.219,2.386,1.259,2.401,2.232
			c-0.837,1.14-1.045,2.488-1.261,3.832c0.522,0.94,0.28,2.014,0.484,3.019c0.346,1.697,1.297,3.084,1.877,4.65
			c0.096,0.06,0.191,0.117,0.288,0.177c0.119,0.069,0.237,0.138,0.356,0.208c0.247,0.104,0.492,0.205,0.738,0.309
			c0.105,0.079,0.198,0.197,0.315,0.23c2.644,0.771,4.895,0.347,6.466-2.138l-0.002,0.032c0.093-0.129,0.186-0.26,0.28-0.39
			c0.724-1.036,1.365-2.104,1.413-3.42c0.263-1.477,0.33-2.951-0.2-4.386c-0.196-0.531,0.175-0.868,0.46-0.995
			c1.454-0.646,1.909-1.876,2.101-3.296C56.43,60.328,56.243,59.187,55.303,58.625z"/>
		<path fill="#F9D1A7" d="M53.453,57.429c0.886,0.002,1.229,0.871,1.912,1.196c0.619,2.422,0.618,2.436-1.887,2.302
			c-0.339-0.018-0.427,0.094-0.6,0.342c-1.63,2.338-4.413,2.741-6.944,1.384c-2.076-1.116-3.898-2.497-5.631-4.047
			c-0.275-0.735,0.038-1.421,0.194-2.119c1.45-1.181,3.134-1.622,4.976-1.607c0.466,0.005,0.883,0.068,1.249,0.364
			c0.059,0.054,0.06,0.109,0.005,0.166c-1.24-0.075-0.945,0.657-0.636,1.296c1.105,2.28,4.379,3.254,6.629,2.027
			C53.269,58.436,53.504,58.03,53.453,57.429z"/>
		<path fill="#F9D1A7" d="M43.906,63.22c1.831,0.933,3.726,1.686,5.671,2.37c2.037,0.714,3.017,3.515,2.471,6.127
			c-0.486,2.332-2.503,3.834-4.901,3.635c-0.264-0.024-0.52-0.156-0.759,0.062c-0.246-0.103-0.491-0.205-0.737-0.309
			c-0.119-0.068-0.238-0.139-0.357-0.208c-0.095-0.06-0.192-0.117-0.288-0.177c-0.58-1.565-1.531-2.953-1.876-4.65
			c-0.205-1.005,0.038-2.078-0.484-3.019C42.862,65.708,43.07,64.359,43.906,63.22z"/>
		<path fill="#4F1C11" d="M53.322,57.238c-1.171-1.337-2.52-2.326-4.411-2.255c-0.773,0.021-1.546,0.045-2.319,0.067
			c0.058,0.054,0.059,0.109,0.004,0.166c-1.239-0.073-0.945,0.659-0.636,1.296c1.105,2.281,4.379,3.254,6.629,2.029
			C53.138,58.242,53.373,57.84,53.322,57.238z"/>
		<path fill="#FAF9F7" d="M49.132,55.686c0.362,0.416,1.173,0.182,1.313,0.915c-1.278,0.639-2.625,0.386-3.628-0.683
			c0.055-0.056,0.052-0.112-0.005-0.165C47.586,55.729,48.359,55.708,49.132,55.686z"/>
		<path fill="#EFE9DD" d="M53.935,68.916c-0.246-0.898-1.087-1.234-1.576-1.901c-2.08-1.332-4.07-1.269-6.01-0.192h-0.002
			c-0.008,0.005-0.016,0.01-0.024,0.014c-0.4,0.226-0.798,0.488-1.194,0.795c-0.169,0.131-0.304,0.266-0.402,0.417
			c-1.183,1.2-2.298,3.415-1.606,8.068c0.045,0.296,0.093,0.566,0.145,0.824c-0.004,0.139-0.019,0.284-0.018,0.422
			c-0.266,0.631-0.536,1.265-0.184,1.957c1.161,0.656,2.351,1.149,3.696,0.812c0.746,0.97,1.655,0.612,2.552,0.37
			c1.373-0.269,2.784-0.209,4.125-0.8c0.1-0.044,0.199-0.083,0.293-0.123l0,0C54.648,79.565,57.019,76.098,53.935,68.916z"/>
		<path fill="#EED4B1" d="M43.293,79.547c-0.353-0.696-0.082-1.327,0.184-1.958c3.39-0.03,6.775,0.018,10.116,0.688
			c0.373,0.076,0.963,0.05,0.988,0.703c0.021,0.639-0.442,0.739-0.915,0.948c-1.341,0.59-2.753,0.528-4.125,0.798
			c-0.838-0.225-1.687-0.36-2.552-0.369C45.645,80.693,44.454,80.201,43.293,79.547z"/>
		<path fill="#B56A29" d="M43.146,76.321c-0.126,0-0.254-0.01-0.384-0.034c-0.772-0.138-1.27,0.074-1.456-0.071l0,0
			c-0.258,0.064-0.517-0.022-0.739-0.122c-0.834-0.379-1.718,0.091-2.567-0.276c-0.715-0.308-0.623,0.966-1.24,1.001
			c-0.102,0.655-0.032,1.32-0.257,1.978c-0.638,1.846-1.817,2.731-3.6,2.682c-0.485-0.012-1.017-0.319-1.467,0.17
			c0.562,0.754,1.379,0.774,2.156,0.938c1.653,0.347,3.22-0.312,4.825-0.524c0.071-0.051,0.149-0.07,0.233-0.057
			c1.173-0.699,2.485-1.144,3.447-2.237c0.352-0.4,0.662-0.006,0.989-0.042c-0.353-0.699-0.081-1.329,0.185-1.958
			c-0.004-0.264,0.057-0.554-0.019-0.786C43.164,76.715,43.132,76.497,43.146,76.321z"/>
		<path fill="#B56A29" d="M60.914,82.209c-1.477-0.581-2.305-0.829-1.677-3.716c0.033-1.915-1.188-1.781-2.351-1.809
			c-0.664-0.016-1.145-0.625-1.759-0.834c-0.034-0.004-0.072-0.015-0.118-0.034c-0.009-0.005-0.021-0.005-0.032-0.007
			c-0.033-0.008-0.065-0.013-0.098-0.017c-0.076-0.003-0.159,0.013-0.251,0.039c-0.019,0.019-0.039,0.036-0.057,0.055
			c0.003-0.014,0.005-0.024,0.008-0.038c-0.424,0.146-0.964,0.545-1.296,0.809c-0.375,1.815-0.141,3.022,0.957,4.181
			c1.895,1.994,4.26,2.573,6.801,2.502c0.47-0.012,0.743-0.408,1.036-0.752C61.801,82.048,61.294,82.36,60.914,82.209z"/>
		<path fill="#643419" d="M47.254,43.16c0.682,0.141,1.479-0.196,2.03,0.49c0.218,0.272,0.491,0.567,0.277,0.918
			c-0.217,0.354-0.574,0.141-0.835,0.021c-1.016-0.471-1.983-0.438-2.938,0.159c-0.159,0.1-0.398,0.244-0.542-0.005
			c-0.129-0.223,0.076-0.376,0.224-0.517c0.508-0.48,1.18-0.691,1.758-1.056L47.254,43.16z"/>
		<path fill="#643419" d="M60.625,48.397c-0.18,0.432-0.44,0.341-0.717,0.104c-0.379-0.325-0.857-0.417-1.312-0.562
			c-0.521,0.022-0.993-0.165-1.471-0.329c-0.119-0.146-0.105-0.306-0.051-0.47C58.438,46.306,59.492,46.678,60.625,48.397z"/>
		<path fill="#D57C28" d="M47.809,61.437c0.683-0.025,2.263-0.1,2.507-0.218c0,0-1.929-0.321-2.596-0.415
			c-0.002-0.003-0.004-0.007-0.004-0.007l-0.175-0.02l0,0l0,0l-1.958-0.216c0.068,0.049,1.23,0.78,1.91,0.888h0.001
			c0,0,0.002,0,0.003,0c0.037,0.006,0.074,0.011,0.108,0.013C47.695,61.467,47.761,61.455,47.809,61.437z"/>
		<path fill="#B56A29" d="M40.143,59.172c-0.048,0.295-0.095,0.59-0.144,0.885c-1.977-0.729-4.287-3.971-4.256-5.973
			c1.372,0.428,1.928,1.78,2.944,2.617c0.542,0.446,0.983,0.767,1.651,0.351C40.181,57.751,39.867,58.436,40.143,59.172z"/>
		<path fill="#643419" d="M35.211,50.641c0.545,0.279,0.701,0.379,0.112,0.912c-0.745,0.675-1.272,1.05-0.989,2.224
			c0.042-0.106,0.08-0.329,0.181-0.256c0.224,0.163-0.008,0.35-0.073,0.522c-0.082,0.394-0.162,0.784-0.243,1.178
			c-0.008,0.067-0.018,0.134-0.026,0.201c0.04,0.424-0.019,0.867,0.255,1.257c0.226-0.131,0.232-0.485,0.587-0.505
			c0.209,0.601,0.519,1.205,0.622,1.844c0.165,1.018,0.506,0.678,0.942,0.07c0.319,1.386,1.327,1.714,2.396,2.418
			c0.381-0.113,1.845,0.83,2.206,0.74c-0.167-0.084-1.168-1.158-1.314-1.299c-0.903-0.878-2.498-1.033-2.607-2.636
			c-0.057-0.814-0.944-1.477-1.186-2.386c-0.411-1.555-0.06-2.882,0.845-4.156c0.602-0.85,0.522-0.936,1.276-1.791
			c0.738-0.842,0.764-0.532,0.771-1.019c0.016-0.062,0.646-0.4,0.668-0.461c1.349-1.201-0.274-1.034-0.854-1.151
			c0.186,0.031-0.457-0.136-0.741-0.182c-0.01,0.031,0.405,0.347,0.415,0.357c1.039,0.971-0.497,0.548-0.972,1.276
			c-0.253,0.389,0.146,0.567-0.1,0.962c-0.499,1.122-0.854,0.538-1.857-0.1c-0.331-0.211-0.647-0.444-0.971-0.668
			c-0.161,0.43-0.006,0.771,0.296,1.07c0.122,0.12,0.236,0.252,0.146,0.43c-0.143,0.283-0.314,0.053-0.487,0.022
			c-0.186-0.031-0.385,0.012-0.578,0.023C34.245,50.04,34.707,50.385,35.211,50.641z"/>
		<path fill="#B56A29" d="M31.743,72.183c0.315-0.113,0.646-0.281,0.911-0.497c0.044-0.426,1.301-0.675,1.37-1.101
			c-0.196,0.021-2.032-0.115-2.07-0.497c-0.6-0.382,1.623-0.956,1.478-1.015c-0.667-0.265-2.825,0.513-3.527,0.725
			c0.212,0.062,0.423,0.14,0.64,0.179c0.252,0.047,0.621-0.03,0.613,0.34c-0.007,0.301-0.28,0.422-0.599,0.36
			c-0.729-0.138-1.033,0.615-1.625,0.788c-0.286,0.084-0.192-0.054-0.299-0.638c-0.655,0.078-0.592,1.418-1.135,1.578
			c0,0.904,0,1.806,0,2.707c0.61,0.966,0.59,2.266,1.605,3.018c-0.03-1.284-0.662-2.46-0.554-3.792
			c0.077-0.947,0.699-1.501,1.147-2.153c0.33-0.479,1.078-0.417,1.64-0.247C31.509,71.986,31.639,72.076,31.743,72.183z"/>
	</g>
	<g id="RightEye">
		<path fill="#E6D7CC" d="M60.744,51.406c-0.141-0.826-0.252-1.714-0.902-2.363c-0.698-0.694-1.633-0.265-2.43-0.498
			c-0.085,0.104-0.172,0.209-0.257,0.315c-0.2,0.28-0.338,0.676-0.61,0.819c-1.408,0.751-1.93,2.169-2.686,3.409
			c-0.594,0.977-0.459,2.107,0.326,2.858c0.275,0.179,0.548,0.357,0.822,0.536c0.104,0.086,0.208,0.171,0.311,0.258
			c0.201-0.188,0.388-0.321,0.441,0.104c0.376,0.322,0.789,0.237,1.207,0.11c0.507,0.159,1.013-0.338,1.521-0.003
			c0.026-0.057,0.063-0.104,0.112-0.144c0.036,0.052,0.082,0.096,0.136,0.127c0.092-0.102,0.064-0.183-0.042-0.253l-0.002-0.012
			c0.091-0.103,0.182-0.201,0.273-0.302c0.781-0.14,1.179-0.753,1.399-1.382C60.767,53.842,60.949,52.614,60.744,51.406z"/>
		<path fill="#643419" d="M57.412,48.54c0.797,0.236,1.733-0.194,2.431,0.502c0.65,0.648,0.761,1.535,0.901,2.362
			c0.206,1.207,0.023,2.435-0.38,3.581c-0.22,0.628-0.617,1.244-1.4,1.382c0.013-0.089,0.025-0.181,0.038-0.271
			c0.277-0.222,0.477-0.499,0.609-0.829c0.126-0.064,0.076-0.144,0.014-0.223c0.476-0.862,0.422-1.79,0.324-2.722
			c-0.056-0.715-0.026-1.483-0.482-2.063c-0.417-0.53-0.822-1.354-1.767-0.743c-0.108-0.057-0.198-0.059-0.237,0.084
			c-0.24,0.17-0.48,0.34-0.72,0.508c-0.275-0.081-0.285,0.118-0.31,0.297c-0.208,0.262-0.415,0.521-0.623,0.783
			c-1.677,1.197-2.067,2.836-1.626,4.758c-0.787-0.753-0.92-1.884-0.326-2.859c0.756-1.242,1.278-2.66,2.685-3.409
			c0.271-0.146,0.41-0.541,0.609-0.822C57.241,48.752,57.328,48.646,57.412,48.54z"/>
		<path fill="#FCFAF8" d="M58.493,56.854c-0.048,0.039-0.087,0.088-0.114,0.145c-0.507-0.337-1.013,0.16-1.521,0.004
			c-0.174-0.246-0.671-0.289-0.469-0.765c0.484,0.061,0.86-0.13,1.157-0.502c0.818-0.241,1.379-0.664,1.17-1.639
			c0.145-0.097,0.03-0.188-0.008-0.282c0.833-0.286,0.294-0.882,0.306-1.354c0.275-0.03,0.552-0.062,0.829-0.092
			c0.097,0.932,0.15,1.858-0.325,2.724c-0.005,0.072-0.01,0.148-0.015,0.223c-0.133,0.326-0.332,0.605-0.61,0.825
			c-0.214-0.1-0.376-0.036-0.474,0.172c-0.086,0.186,0.03,0.302,0.166,0.402l0.001,0.014C58.543,56.761,58.512,56.803,58.493,56.854
			z"/>
		<path fill="#FCFAF8" d="M54.665,53.957c-0.623-0.914,0.366-1.301,0.634-1.922c0.118-0.274,0.674-0.326,0.404-0.8
			c0.208-0.262,0.415-0.523,0.623-0.784c0.221,0.148,0.376-0.005,0.54-0.119c0.465,0.375,1.041-0.47,1.412,0.063
			c0.388,0.56,0.812,1.165,0.672,1.934c-0.055-0.054-0.109-0.109-0.164-0.165c-0.019-0.286-0.161-0.417-0.455-0.354
			c-1.54-0.44-2.728,0.315-3.473,2.208C54.795,53.998,54.729,53.978,54.665,53.957z"/>
		<path fill="#643419" d="M55.786,55.745c-1.106-1.379-0.175-3.873,1.562-4.182c0.2-0.032,0.399-0.069,0.6-0.104
			c0.68,0.309,1.076,0.525,0.96,1.582c-0.125,1.145-0.298,2.123-1.009,3.006c-0.616,0.091-0.827-0.146-1.429-0.101
			C56.263,55.887,56.118,55.843,55.786,55.745z"/>
		<path fill="#E6D7CC" d="M58.726,53.537c-0.134-0.133,0.035-0.368-0.098-0.502c0.131-0.568-0.351-0.675-0.733-0.82
			c-0.14-0.052-0.337,0.029-0.355,0.233c-0.033,0.417,0.304,0.532,0.615,0.668c-0.261,1.335-0.508,1.546-2.005,1.767
			c-0.098,0.015-0.163,0.191-0.246,0.292c0.104,0.449,0.527,0.407,0.853,0.518c0.483,0.065,0.854-0.111,1.143-0.456
			c0.276-0.584,0.152-0.632,0.642-1.066C58.681,54.079,58.765,53.627,58.726,53.537z"/>
	</g>
	<g id="LeftEye">
		<path fill="#E6D7CC" d="M49.771,47.334c-0.156-0.754-0.288-1.631-1.031-2.025c-1.106-0.589-2.179-0.289-3.128,0.468
			c-1.46,1.166-2.545,2.594-3.063,4.415c0.002,0.306,0.062,0.616,0.219,1.044c0.157,0.428,0.213,0.719,0.802,1.19
			c1.643,1.48,2.529,1.585,4.435,0.518c1.373-0.928,1.744-1.607,1.863-2.559c0.041-0.131,0.098-0.578,0.139-0.711
			C49.934,48.893,49.929,48.096,49.771,47.334z"/>
		<path fill="#643419" d="M42.548,50.191c0.518-1.821,1.603-3.249,3.063-4.415c0.949-0.757,2.022-1.057,3.128-0.469
			c0.743,0.396,0.875,1.272,1.031,2.025c0.157,0.763,0.163,1.559,0.234,2.341c-0.04,0.131-0.108,0.653-0.149,0.784
			c-0.167,0.676-0.061,0.248-0.337,1.034c-0.03,0.058-0.299,0.492-0.321,0.553c-0.686,0.471-0.823,0.922-1.194,0.897
			c1.143-1.784,1.235-3.74,0.924-5.755c-0.119-0.781-0.88-1.29-1.629-1.154c-2.073,0.373-4.182,2.927-4.178,5.061
			C42.687,50.946,42.76,50.478,42.548,50.191z"/>
		<path fill="#FCFAF8" d="M47.146,52.018c0.425-1.049,0.308-2.037,0.098-3.168c-0.195-1.047-0.636-1.139-1.376-1.235
			c0.309-0.795,1.019-1.136,1.738-1.071c0.812,0.067,0.792,0.883,0.866,1.526c0.145,1.249-0.029,2.459-0.499,3.621
			C47.829,52.047,47.696,52.61,47.146,52.018z"/>
		<path fill="#643419" d="M45.187,52.431c-1.457-1.003-1.285-3.66,0.289-4.454c0.181-0.09,0.362-0.183,0.543-0.274
			c0.741,0.098,1.181,0.191,1.376,1.237c0.211,1.132,0.328,2.117-0.098,3.168c-0.564,0.267-0.834,0.102-1.398,0.319
			C45.685,52.43,45.533,52.428,45.187,52.431z"/>
		<path fill="#E6D7CC" d="M47.364,49.468c-0.167-0.089-0.073-0.363-0.238-0.452c-0.04-0.582-0.53-0.546-0.939-0.574
			c-0.15-0.009-0.315,0.126-0.272,0.327c0.087,0.406,0.444,0.42,0.782,0.46c0.134,1.354-0.041,1.627-1.41,2.271
			c-0.091,0.042-0.103,0.23-0.151,0.353c0.229,0.398,0.621,0.237,0.964,0.246c0.481-0.076,0.785-0.35,0.963-0.764
			c0.094-0.641-0.036-0.648,0.305-1.209C47.477,50,47.426,49.541,47.364,49.468z"/>
	</g>
	<g id="RightArm">
		<path fill="#D57C28" d="M52.111,69.882c-0.881,0.44-3.257,3.641-3.257,4.269c0,0.63,0.153,1.666,1.592,1.841
			c1.437,0.178,5.832-0.443,6.714-1.171c0.883-0.728,3.944-3.873,3.392-5.303c-0.55-1.428-2.713-1.038-2.713-1.038
			S52.88,69.496,52.111,69.882z"/>
		<path fill="#E89C4A" d="M56.007,64.87c0.634,0.209,1.268,0.418,1.902,0.63c0.687,0.874,1.289,1.874,2.092,2.59
			c0.537,0.478,0.662,0.891,0.534,1.542c-0.338-0.027-0.408-0.384-0.605-0.586c-0.325-0.332-0.565-0.48-0.633,0.273
			c-0.056,0.602-0.18,1.011-1.064,0.653c-0.777-0.318-1.872-0.657-2.75,0.087c-0.498,0.423-0.795-0.239-1.311-0.152
			c-1.438,0.24-2.273,1.427-3.353,2.22c-0.266,0.195-0.44,0.525-0.817,0.417c0.744-1.88,2.005-2.998,3.848-3.261
			c1.184-0.033,2.231-0.787,3.746-0.665C56.23,67.537,55.95,66.28,56.007,64.87z"/>
		<path fill="#B56A29" d="M53.542,76.609c0.199-0.425,0.832-0.278,1.75-0.587c0.171-0.058,0.318-0.079,0.439-0.079
			c0.527-0.795,1.409-1.03,2.117-1.539c0.258-0.596,0.966-0.812,1.053-1.549c-0.614-0.157-0.926,0.923-1.346,0.651
			c-0.799-0.519-1.497-0.032-2.234-0.011c-2.074,0.069-4.071,1.169-6.189,0.669c-0.021,0.244-0.028,0.498-0.278,0.615
			c0.084,0.774,0.491,1.446,1.091,1.598c0.9,0.227,1.793,0.753,2.786,0.381C52.995,76.661,53.269,76.609,53.542,76.609
			L53.542,76.609z"/>
	</g>
	<g id="LeftArm">
		<path fill="#D57C28" d="M40.193,68.718c-0.244,0.865-1.742,4.921-1.126,5.433c0.616,0.511,4.124,2.045,5.145,1.395
			c1.021-0.649,3.088-1.677,2.744-3.334c-0.344-1.658-2.424-4.142-4.311-4.08C40.759,68.193,40.193,68.718,40.193,68.718z"/>
		<path fill="#B56A29" d="M41.291,72.946c-1.413-0.372-3.051-0.146-4.121-1.67c-0.453,1.831,1.009,3.469,3.78,4.381
			c0.606,0.175,1.624,0.337,2.299,0.334l0,0c0.168-0.264,0.52-0.377,0.963-0.446c0.42-0.063,1,0.033,1.097-0.715
			C44.183,73.643,42.75,73.331,41.291,72.946z"/>
		<path fill="#E89C4A" d="M46.357,73.423c0.093-1.558-0.13-1.79-1.505-1.638c-0.227,0.025-0.528,0.01-0.689-0.135
			c-1.483-1.312-3.237-1.867-5.053-2.269c-0.116-0.023-0.299-0.023-0.336-0.104c-0.517-1.106-1.45-0.781-2.276-0.816
			c0.324-1.399,1.359-2.443,2.533-2.554c0.074,0.089,0.148,0.175,0.222,0.265l-0.007-0.009c-0.026,0.653-0.685,0.928-0.798,1.591
			c1.061,0.052,2.089,0.102,3.117,0.15c1.017,0.065,1.909,0.587,2.85,0.934c1.817,0.08,2.793,2.325,2.488,3.966
			C46.838,73.151,46.85,73.556,46.357,73.423z"/>
	</g>
	<g id="RightFoot">
		<path fill="#F6B56B" d="M65.869,73.93c-0.173-1.142-1.039-1.376-1.824-1.714c-0.708-0.146-1.344,0.11-1.965,0.464
			c-0.037,0.324-0.186,0.51-0.495,0.495c-0.05,0.038-0.083,0.094-0.1,0.159c-1.029,0.337-1.293,1.623-2.159,2.162
			c0.331,0.707-0.334,1.201-0.328,1.84c-0.075,0.202-0.147,0.409-0.22,0.611c-0.627,2.888,0.201,3.138,1.678,3.72
			c0.38,0.148,0.887-0.163,1.164,0.377c0.013,0.087,0.021,0.178,0.046,0.262c0.008,0.028,0.063,0.035,0.098,0.053
			c0.242-0.63,0.698-0.794,1.276-0.971c0.677-0.21,1.15-0.662,1.396-1.223c0.712-0.789,1.404-1.963,1.855-3.738l0,0
			c0.104-0.822,0.071-1.665,0.119-2.499C66.229,73.93,66.048,73.93,65.869,73.93z"/>
		<path fill="#E89C4A" d="M61.779,82.34c-0.299-0.627-0.854-0.263-1.269-0.434c-1.609-0.669-2.511-0.955-1.816-4.312
			c0.081-0.237,0.16-0.473,0.241-0.71c0.719,2.044,2.442,1.042,3.649,1.611c0.42,0.197,0.446-0.376,0.571-0.672
			c0.2-0.465,0.461-0.732,0.933-0.664c0.445,0.063,0.631,0.324,0.805,0.829c0.508,1.487-0.088,3.095-1.562,3.582
			c-0.631,0.208-1.129,0.401-1.396,1.135c-0.037-0.022-0.099-0.03-0.107-0.065C61.801,82.546,61.794,82.441,61.779,82.34z"/>
		<path fill="#F9D1A7" d="M65.843,76.126c-0.333,0.102-0.742,0.651-0.974-0.021c-0.272-0.791,0.266-1.03,0.944-1.074
			C65.824,75.397,65.833,75.761,65.843,76.126z"/>
		<path fill="#F9D1A7" d="M64.527,73.694c0.001,0.043-0.003,0.087,0.006,0.132c0.169,0.689,0.155,1.354-0.614,1.646
			c-0.356,0.134-0.567-0.267-0.587-0.561c-0.053-0.798,0.36-1.223,1.175-1.227L64.527,73.694z"/>
		<path fill="#F9D1A7" d="M62.6,74.557c-0.332,0.101-0.743,0.649-0.973-0.021c-0.273-0.791,0.268-1.03,0.945-1.072
			C62.581,73.827,62.591,74.191,62.6,74.557z"/>
	</g>
	<g id="LeftFoot">
		<path fill="#F6B56B" d="M35.065,72.182c-0.444-0.266-0.681-0.952-1.012-1.449c-0.122-0.004-0.244,0.014-0.359-0.012
			c-1.766-0.384-3.337,0.042-4.684,1.424c-0.148,0.419-0.264,0.844-0.35,1.278c-0.155,1.162,0.429,3.579,0.224,3.979c0,0,0,0,0,0
			c0.122,0.299,0.159,0.678,0.393,0.841c0.142-1.038,0.753-0.668,1.146-0.382c1.506,1.095,3.293,0.394,4.892,0.968
			c0.678,0.242,1.003-0.524,1.054-1.291c0.037-0.557-0.096-1.205,0.524-1.526C36.514,74.603,36.475,73.028,35.065,72.182z"/>
		<path fill="#E89C4A" d="M36.915,75.56c0.089,0.199,0.178,0.4,0.268,0.601c-0.104,0.709-0.036,1.429-0.265,2.137
			c-0.645,1.998-1.828,2.959-3.611,2.911c-0.484-0.012-1.015-0.34-1.467,0.192c-0.239-0.113-0.48-0.225-0.719-0.336
			c0.052-0.521-0.3-0.701-0.548-0.973c-0.54-0.597-1.066-1.208-1.284-2.093c0.147-1.118,0.758-0.725,1.151-0.416
			c1.501,1.178,3.291,0.413,4.887,1.024c0.677,0.262,1.005-0.568,1.059-1.396C36.424,76.609,36.293,75.909,36.915,75.56z"/>
		<path fill="#F9D1A7" d="M34.406,72.659c-0.236,0.314-0.266,1.037-0.889,0.674c-0.735-0.43-0.396-1.002,0.188-1.516
			C33.939,72.099,34.173,72.378,34.406,72.659z"/>
		<path fill="#F9D1A7" d="M31.717,71.678c0.029,0.033,0.052,0.071,0.087,0.099c0.58,0.424,0.977,0.955,0.464,1.729
			c-0.238,0.357-0.677,0.194-0.875-0.022c-0.542-0.592-0.431-1.219,0.301-1.799C31.693,71.684,31.717,71.678,31.717,71.678z"/>
		<path fill="#F9D1A7" d="M30.514,73.719c-0.238,0.316-0.268,1.038-0.891,0.675c-0.735-0.43-0.396-1,0.188-1.514
			C30.046,73.16,30.279,73.438,30.514,73.719z"/>
	</g>
	<g id="Contour">
		<g>
			<path fill="none" stroke="#000000" stroke-width="0.4636" stroke-miterlimit="10" d="M68.389,74.374
				c0.143-1.738-0.973-2.375-2.104-3c-0.459-0.254-0.922-0.441-1.388-0.574c-0.143-0.229-0.246-0.145-0.449-0.11
				c-0.174-0.034-0.35-0.063-0.526-0.084c-0.001,0-0.001-0.001-0.003-0.001c-0.648-0.299-1.591-0.088-2.446,0.159
				c-0.322,0.076-0.645,0.171-0.971,0.284c0.008-0.199,0.017-0.399,0.025-0.6c0.101-0.334,0.123-0.637,0.038-0.892
				c0.001-0.036,0.003-0.073,0.005-0.109c0.128-0.652,0.003-1.064-0.534-1.543c-0.017-0.015-0.032-0.03-0.049-0.046
				c-0.305-0.89-0.63-1.767-1.175-2.539c0.7-0.193,1.394-0.413,1.959-1.019c0.199-0.21,0.338-0.582,0.54-0.854
				c0.165-0.099,0.324-0.21,0.479-0.327c0.165-0.023,0.358,0.015,0.605,0.149c0.024,0.013,0.198-0.258,0.292-0.402
				c0.248-0.382,0.558-0.737,0.721-1.155c0.32-0.834,0.567-0.771,0.932,0.15c0.27-1.822,1.252-3.375,0.704-5.189
				c-0.197-0.648-0.443-1.269-0.799-1.836c-0.049-0.078-0.092-0.151-0.13-0.223c0.557-0.01,1.057-0.115,1.49-0.31
				c1.26-0.347,2.09-1.325,2.287-2.785c-0.067-0.018-0.132-0.038-0.194-0.062c0.045-0.249,0.075-0.497,0.068-0.755
				c-0.005-0.221-0.199-0.445-0.01-0.667c0.03-0.053,0.023-0.136,0.108-0.144c0.439-0.046,0.324-0.282,0.151-0.493
				c-0.171-0.21-0.36-0.415-0.575-0.576c-0.161-0.119-0.162-0.207-0.047-0.326c0.224-0.228,0.133-0.352-0.1-0.513
				c-0.161-0.112-0.352-0.12-0.505-0.229c-0.167,0.014-0.332,0.005-0.493-0.057c-0.069-0.028-0.169-0.024-0.171-0.125
				c-0.004-0.115,0.059-0.19,0.186-0.198c0.015-0.025,0.03-0.049,0.045-0.073c-0.341-0.439-0.806-0.217-1.223-0.212
				c-0.166,0.002-0.319,0.061-0.442-0.096c0.057-0.194,0.062-0.404,0.198-0.576c0.072-0.09,0.086-0.228-0.083-0.204
				c-0.734,0.102-1.408,0.314-1.946,0.773c-0.205-0.088-0.457-0.144-0.28-0.506c-0.5-0.167-1.105,0.106-1.486-0.591
				c-0.46-0.845-0.423-1.223,0.457-1.576c0.458-0.184,0.997-0.186,1.262-0.737c-0.912-0.127-1.725,0.163-2.436,0.739
				c-0.212,0.173-0.372,0.229-0.528,0.191c-0.196-0.186-0.406-0.354-0.636-0.505c-0.83-0.805-1.742-1.508-2.762-2.022
				c-0.693-0.348-1.481-0.521-1.492-1.588c-0.003-0.361-0.323-0.547-0.592-0.647c-0.34-0.127-0.37,0.338-0.441,0.483
				c-0.433,0.869-0.744,0.765-1.099-0.032c-0.138-0.312-0.38-0.569-0.568-0.848c-0.717-1.046-2.131-1.487-3.23-0.9
				c0.442,0.184,0.93,0.224,1.293,0.578c0.369,0.363,0.703,0.856,0.405,1.304c-0.317,0.478-0.569-0.24-0.9-0.296
				c-0.218-0.039-0.407-0.249-0.626-0.298c-0.69-0.153-1.413-0.403-1.986,0.401c0.748,0.193,0.748,0.193,1.11,0.796
				c-1.521,0.174-1.918,0.314-3.17,1.201c-0.093,0.058-0.18,0.1-0.263,0.134c-0.248,0.091-0.526,0.088-0.725-0.076
				c-0.087-0.096-0.163-0.233-0.226-0.423c-0.111-0.339-0.269-0.607-0.47-0.827c0-0.001,0-0.003,0-0.005c0,0.002-0.004,0-0.005,0
				c-0.251-0.268-0.574-0.455-0.993-0.577c-0.033-0.053-0.065-0.106-0.098-0.151c-0.38-0.523-0.893-0.882-1.481-1.136
				c-0.296-0.081-0.619-0.083-0.871-0.294c-0.098,0.014-0.194,0.029-0.29,0.042l-0.024,0.021c0.059,0.164,0.116,0.328,0.174,0.491
				c0.179,0.021,0.15,0.159,0.128,0.265c-0.028,0.143-0.16,0.12-0.253,0.097c-0.33-0.08-0.663-0.067-0.998-0.083
				c-0.315-0.016-0.467,0.079-0.388,0.41c0.196,0.103,0.137,0.196-0.03,0.24c-0.249,0.067-0.494,0.166-0.762,0.145
				c-0.223,0.116-0.465,0.208-0.55,0.361c0.035,0.261,0.506,0.309,0.164,0.597c-0.189,0.159-0.342,0.341-0.511,0.512
				c-0.328,0.327-0.273,0.537,0.177,0.687c-0.007,0.113,0.062,0.202,0.048,0.333c-0.062,0.595-0.101,0.867,0.091,1.448
				c0,0.001,0.003,0.005,0.005,0.009c0.117,0.351,0.323,0.723,0.616,1.129c0.066,0.186,0.195,0.442,0.416,0.688
				c-0.001,0-0.001,0-0.002,0c-0.003,0.013,0.052,0.064,0.125,0.124c0.08,0.075,0.168,0.147,0.269,0.215
				c0.012,0.01,0.021,0.018,0.021,0.019c1.039,0.971-0.496,0.547-0.971,1.276c-0.254,0.391,0.146,0.567-0.101,0.961
				c-0.5,1.123-0.854,0.54-1.858-0.099c-0.33-0.209-0.647-0.444-0.971-0.668c-0.161,0.431-0.005,0.771,0.297,1.069
				c0.123,0.121,0.235,0.254,0.146,0.431c-0.144,0.283-0.314,0.052-0.488,0.023c-0.186-0.032-0.385,0.011-0.577,0.022
				c0.313,0.5,0.773,0.846,1.278,1.101c0.546,0.279,0.702,0.379,0.112,0.913c-0.744,0.674-1.27,1.048-0.989,2.222
				c0.044-0.106,0.08-0.328,0.182-0.256c0.224,0.163-0.007,0.351-0.074,0.523c-0.081,0.393-0.161,0.785-0.242,1.177
				c-0.01,0.068-0.019,0.135-0.027,0.201c0.04,0.424-0.018,0.868,0.255,1.258c0.226-0.131,0.233-0.485,0.588-0.506
				c0.21,0.602,0.519,1.205,0.622,1.845c0.166,1.019,0.507,0.677,0.941,0.069c0.32,1.387,1.328,1.715,2.396,2.42
				c0.341-0.102,1.547,0.64,2.055,0.732c0.023,0.026,0.045,0.05,0.067,0.076c-0.562,0.041-0.83,0.411-1.003,0.891
				c-1.618,1.771-2.953,3.722-3.797,5.981c-0.059,0.126-0.101,0.293-0.137,0.473c-0.166,0.278-0.214,0.616-0.237,0.965
				c-0.055,0.089-0.124,0.132-0.218,0.093c-0.013-0.005-0.028-0.011-0.041-0.015c-0.439-0.23-0.878-0.388-1.314-0.479
				c-0.321-0.092-0.64-0.153-0.918-0.151c-0.667-0.265-2.825,0.513-3.527,0.725c0.05,0.016,0.101,0.03,0.151,0.047
				c-0.2,0.077-0.399,0.154-0.6,0.236c-0.422,0.174-0.634,0.5-0.804,0.854c-0.005-0.036-0.011-0.069-0.019-0.108
				c-0.653,0.078-0.592,1.418-1.133,1.578c0,0.904,0,1.806,0,2.707c0.005,0.009,0.01,0.02,0.016,0.027
				c-0.004,0.54,0.035,1.095,0.152,1.649c-0.009,0.001-0.016,0-0.023,0.002c0.022,0.059,0.042,0.117,0.063,0.177
				c0.135,0.566,0.347,1.131,0.666,1.68c-0.001-0.003-0.002-0.006-0.003-0.007c0.001,0.004,0.003,0.006,0.004,0.008
				c0-0.001-0.001-0.001-0.001-0.001c0.001,0.001,0.001,0.004,0.001,0.004l0,0c0.36,0.761,0.813,1.42,1.498,1.869
				c0.5,0.443,1.053,0.783,1.659,1.035c-0.033,0.027-0.066,0.058-0.098,0.092c0.562,0.754,1.377,0.774,2.155,0.938
				c1.654,0.346,3.22-0.312,4.826-0.524c0.071-0.051,0.148-0.07,0.232-0.057c1.172-0.699,2.484-1.144,3.448-2.237
				c0.001-0.002,0.003-0.006,0.005-0.006c0.077-0.048,0.152-0.1,0.226-0.156c0.26-0.082,0.503,0.146,0.757,0.121
				c-0.078-0.157-0.121-0.308-0.145-0.459c0.007,0,0.016,0.003,0.024,0.003c-0.011-0.02-0.015-0.04-0.025-0.059
				c0.035,0.019,0.07,0.037,0.104,0.056c0.008,0.019,0.013,0.036,0.022,0.052c0.058,0.036,0.118,0.068,0.177,0.1
				c0.017,0.041,0.03,0.085,0.052,0.128c1.153,0.651,2.337,1.14,3.671,0.815c0.006,0.005,0.013,0.011,0.021,0.017
				c0.605,0.562,1.299,0.41,1.998,0.214c0.187,0.04,0.373,0.085,0.558,0.136c1.343-0.266,2.724-0.218,4.039-0.77
				c0.17,0.303,0.388,0.592,0.66,0.88c1.895,1.994,4.26,2.572,6.802,2.502c0.147-0.005,0.274-0.051,0.389-0.116
				c0.373,0.021,0.751,0.028,1.132,0.016c0.469-0.012,0.742-0.408,1.036-0.751c0.014,0.088,0.021,0.178,0.046,0.261
				c0.008,0.029,0.064,0.037,0.099,0.056c0.242-0.631,0.697-0.795,1.276-0.973c0.678-0.211,1.15-0.661,1.396-1.223
				c0.712-0.787,1.404-1.963,1.854-3.737l0,0C68.376,76.05,68.341,75.209,68.389,74.374c-0.181,0.001-0.361,0.001-0.541,0.001
				C68.027,74.375,68.208,74.375,68.389,74.374z M63.143,54.643c-0.015-0.036-0.027-0.073-0.04-0.108
				c0.346,0.059,0.675,0.085,0.987,0.082C63.879,54.643,63.626,54.743,63.143,54.643z"/>
			<path fill="none" stroke="#000000" stroke-width="0.4636" stroke-miterlimit="10" d="M38.376,40.021c0,0,0-0.001,0-0.002
				c-0.001,0-0.002-0.001-0.003-0.002L38.376,40.021z"/>
		</g>
		<path fill="none" stroke="#000000" stroke-width="0.4636" stroke-miterlimit="10" d="M42.646,66.669
			c-0.062,0.383,0.283,1.127,0.312,1.356c0.027,0.228,2.953,1.072,3.325,1.856c0.374,0.782,1.866,3.53-0.973,4.949
			c-2.837,1.419-0.812,0.911-2.061,1.161c-1.249,0.251-5.958-0.619-6.355-4.076"/>
		<path fill="none" stroke="#000000" stroke-width="0.4636" stroke-miterlimit="10" d="M56.268,68.718
			c-1.672,0.46-5.411,0.302-6.758,3.847c-1.977,5.203,3.089,4.342,4.678,3.469c1.586-0.873,3.816-1.399,4.713-3.178"/>
	</g>
</g>
<g>
	<path fill="#FFFFFF" d="M144.993,26.209c0.751-1.032,1.173-2.186,1.173-3.405c0-4.396-5.467-7.959-12.21-7.959
		c-3.383,0-6.445,0.897-8.657,2.347c-0.627-3.969-5.757-7.064-11.994-7.064c-5.174,0-9.587,2.131-11.298,5.125
		c-2.355-0.879-5.149-1.39-8.146-1.39c-8.409,0-15.225,4.005-15.225,8.943c0,2.824,2.23,5.341,5.71,6.979
		c-1.693,1.599-2.696,3.577-2.696,5.721c0,5.307,6.142,9.609,13.718,9.609c2.198,0,4.273-0.366,6.117-1.01
		c1.112,2.387,5.982,4.183,11.819,4.183c3.74,0,7.085-0.736,9.295-1.896c1.409,1.687,4.413,2.849,7.889,2.849
		c4.829,0,8.744-2.244,8.744-5.013c0-0.428-0.096-0.845-0.272-1.242c0.819,0.105,1.666,0.162,2.532,0.162
		c7.245,0,13.115-3.861,13.115-8.625C154.607,30.555,150.535,27.217,144.993,26.209z"/>
	<path d="M144.86,26.267l0.509-0.883c0.119-0.27,0.216-0.542,0.324-0.809c0.079-0.279,0.128-0.567,0.195-0.848
		c0.035-0.286,0.037-0.576,0.059-0.862c-0.011-0.259-0.055-0.587-0.087-0.873c-0.082-0.271-0.133-0.542-0.232-0.806
		c-0.209-0.532-0.479-1.039-0.826-1.495c-0.686-0.92-1.598-1.656-2.584-2.252c-0.494-0.3-1.014-0.555-1.544-0.789
		c-0.541-0.212-1.08-0.425-1.644-0.574c-0.552-0.178-1.128-0.279-1.696-0.394c-0.575-0.09-1.149-0.174-1.731-0.206
		c-0.562-0.063-1.198-0.04-1.705-0.045l-1.791,0.151c-0.617,0.014-1.144,0.196-1.702,0.302c-0.554,0.119-1.111,0.208-1.644,0.439
		c-0.529,0.213-1.095,0.356-1.597,0.621l-1.489,0.819l-0.852,0.468l-0.201-0.934c-0.107-0.496-0.25-0.987-0.497-1.442
		c-0.238-0.457-0.53-0.896-0.894-1.283c-0.168-0.204-0.358-0.391-0.562-0.567c-0.189-0.188-0.401-0.355-0.62-0.515
		c-0.209-0.171-0.435-0.321-0.668-0.463c-0.225-0.152-0.46-0.291-0.706-0.413c-0.477-0.268-0.986-0.482-1.499-0.683
		c-0.516-0.199-1.047-0.355-1.582-0.5c-0.541-0.123-1.082-0.248-1.634-0.324c-0.547-0.102-1.105-0.134-1.66-0.182l-0.837-0.027
		c-0.198-0.015-0.556,0.021-0.826,0.028c-0.574,0.038-1.186,0.029-1.703,0.139c-0.537,0.098-1.079,0.114-1.615,0.283
		c-0.531,0.156-1.092,0.233-1.598,0.46c-0.511,0.206-1.051,0.361-1.522,0.642c-0.493,0.245-0.987,0.491-1.416,0.827
		c-0.219,0.161-0.459,0.3-0.662,0.477l-0.586,0.557l-0.293,0.279l-0.234,0.321l-0.478,0.64l-0.3,0.403l-0.435-0.137
		c-0.715-0.226-1.411-0.517-2.144-0.693c-0.736-0.16-1.459-0.394-2.214-0.474c-0.749-0.111-1.496-0.245-2.257-0.264
		c-0.768-0.054-1.499-0.103-2.281-0.074c-0.784-0.009-1.513,0.073-2.275,0.136c-0.756,0.09-1.512,0.192-2.253,0.367
		c-0.376,0.066-0.738,0.182-1.106,0.279c-0.37,0.093-0.733,0.204-1.089,0.337c-0.724,0.236-1.422,0.538-2.104,0.868
		c-1.355,0.671-2.63,1.542-3.613,2.675c-0.243,0.285-0.488,0.57-0.666,0.898c-0.215,0.308-0.358,0.649-0.5,0.991
		c-0.166,0.333-0.199,0.708-0.309,1.058c-0.014,0.359-0.099,0.747-0.05,1.081c0.057,0.8,0.222,1.465,0.567,2.124l0.251,0.493
		c0.095,0.158,0.216,0.302,0.322,0.454l0.328,0.45l0.388,0.404c0.253,0.275,0.519,0.538,0.823,0.762
		c0.293,0.235,0.575,0.483,0.903,0.674c0.621,0.431,1.304,0.759,1.979,1.097l0.442,0.222l-0.349,0.358
		c-0.438,0.45-0.858,0.917-1.202,1.436c-0.352,0.512-0.644,1.062-0.854,1.637c-0.22,0.573-0.348,1.174-0.399,1.778l-0.019,0.455
		l-0.005,0.113c0,0.004-0.002,0.07-0.002,0.024l0.005,0.061l0.021,0.243c0.035,0.317,0.037,0.668,0.127,0.933
		c0.24,1.138,0.837,2.27,1.625,3.191c0.393,0.47,0.848,0.886,1.315,1.286l0.745,0.551c0.256,0.174,0.528,0.326,0.79,0.49
		c0.257,0.173,0.549,0.29,0.823,0.435c0.272,0.148,0.555,0.278,0.847,0.389c0.568,0.256,1.167,0.436,1.76,0.627
		c0.607,0.146,1.208,0.322,1.829,0.406c0.614,0.122,1.239,0.169,1.861,0.227c0.616,0.024,1.268,0.063,1.858,0.027
		c0.647-0.037,1.313-0.053,1.899-0.16c0.604-0.062,1.21-0.185,1.818-0.328c0.614-0.11,1.191-0.349,1.788-0.514l0.643-0.177
		l0.346,0.594c0.174,0.299,0.372,0.609,0.682,0.873c0.284,0.274,0.633,0.514,0.993,0.737c0.731,0.44,1.558,0.778,2.406,1.051
		c1.704,0.544,3.52,0.828,5.336,0.926c0.455,0.029,0.91,0.039,1.366,0.04c0.362,0.02,0.91-0.039,1.356-0.056l1.41-0.079
		c0.468-0.029,0.886-0.133,1.332-0.19c0.438-0.071,0.879-0.126,1.316-0.208l1.297-0.353c0.437-0.107,0.867-0.227,1.259-0.42
		l1.209-0.509l0.618-0.26l0.513,0.483c0.263,0.248,0.486,0.523,0.812,0.731c0.285,0.241,0.64,0.415,0.975,0.608
		c0.349,0.175,0.719,0.326,1.086,0.474c0.387,0.11,0.756,0.271,1.157,0.345c0.397,0.082,0.787,0.194,1.196,0.231
		c0.404,0.054,0.809,0.118,1.22,0.122l0.614,0.03c0.15,0.014,0.417-0.005,0.62-0.006c0.455,0,0.813-0.05,1.222-0.082
		c0.405-0.057,0.811-0.109,1.207-0.2c0.399-0.077,0.79-0.19,1.174-0.312c0.386-0.119,0.753-0.275,1.118-0.432
		c0.358-0.17,0.701-0.357,1.025-0.568c0.317-0.217,0.61-0.454,0.868-0.715c0.239-0.269,0.467-0.547,0.601-0.851
		c0.167-0.297,0.208-0.615,0.241-0.931l-0.053-0.557c-0.055-0.136-0.102-0.255-0.134-0.392l-0.278-1.165l1.084,0.083l2.009,0.154
		c0.158,0.01,0.357,0.034,0.481,0.032l0.524-0.011c0.345-0.012,0.71-0.001,1.028-0.042l0.987-0.09l0.996-0.155
		c0.657-0.132,1.318-0.269,1.954-0.479c0.324-0.089,0.641-0.198,0.95-0.326c0.312-0.119,0.627-0.234,0.923-0.387
		c0.61-0.27,1.195-0.593,1.747-0.958c0.552-0.367,1.074-0.777,1.532-1.245c0.229-0.234,0.462-0.467,0.646-0.734l0.297-0.388
		l0.244-0.418c0.34-0.554,0.536-1.171,0.681-1.795c0.036-0.308,0.08-0.657,0.087-0.938c-0.012-0.353-0.024-0.706-0.094-0.993
		c-0.102-0.615-0.337-1.252-0.665-1.819c-0.303-0.588-0.731-1.11-1.179-1.611c-0.475-0.477-0.979-0.939-1.545-1.322
		c-0.552-0.403-1.153-0.74-1.767-1.052c-0.617-0.307-1.259-0.563-1.912-0.794c-0.658-0.218-1.328-0.399-2.008-0.55L144.86,26.267z
		 M145.137,26.151c0.649,0.109,1.296,0.24,1.935,0.411c0.678,0.195,1.349,0.419,2.001,0.697c0.648,0.284,1.29,0.595,1.891,0.982
		c0.615,0.366,1.176,0.82,1.713,1.302c0.512,0.508,1.014,1.047,1.388,1.685c0.392,0.628,0.685,1.308,0.843,2.064
		c0.099,0.394,0.121,0.74,0.147,1.085c0.012,0.415-0.024,0.765-0.056,1.149c-0.134,0.741-0.344,1.478-0.708,2.135l-0.266,0.497
		l-0.32,0.458c-0.203,0.316-0.453,0.59-0.701,0.865c-0.498,0.55-1.062,1.031-1.656,1.461c-0.595,0.429-1.223,0.81-1.877,1.131
		c-0.322,0.175-0.66,0.309-0.997,0.447c-0.334,0.147-0.675,0.273-1.022,0.379c-0.686,0.244-1.393,0.41-2.099,0.57l-1.07,0.193
		l-1.097,0.127c-0.375,0.051-0.71,0.048-1.062,0.069l-0.523,0.023c-0.225,0.008-0.374-0.014-0.564-0.019l-2.173-0.114l0.806-1.082
		c0.103,0.277,0.2,0.57,0.274,0.85l0.039,0.324l0.021,0.162l0.01,0.081l0.005,0.041l0.006,0.108l-0.001,0.025
		c-0.023,0.549-0.117,1.111-0.358,1.591c-0.212,0.498-0.53,0.913-0.862,1.299c-0.346,0.369-0.724,0.69-1.12,0.974
		c-0.399,0.276-0.814,0.516-1.24,0.729c-0.429,0.201-0.864,0.384-1.309,0.529c-0.443,0.147-0.893,0.281-1.346,0.375
		c-0.453,0.108-0.91,0.175-1.367,0.242c-0.459,0.046-0.967,0.105-1.384,0.109c-0.232,0.004-0.401,0.024-0.686,0.014l-0.691-0.024
		c-0.461-0.002-0.92-0.066-1.38-0.123c-0.461-0.039-0.914-0.158-1.37-0.249c-0.457-0.083-0.899-0.259-1.35-0.387
		c-0.44-0.169-0.883-0.345-1.31-0.562c-0.42-0.239-0.849-0.457-1.236-0.775c-0.41-0.271-0.76-0.66-1.116-1.023l1.13,0.224
		l-1.392,0.591c-0.461,0.219-0.937,0.352-1.415,0.471l-1.431,0.384c-0.487,0.092-0.981,0.154-1.473,0.231
		c-0.487,0.064-0.994,0.166-1.466,0.189l-1.411,0.06c-0.494,0.01-0.886,0.06-1.465,0.038c-0.486-0.008-0.972-0.025-1.456-0.063
		c-1.938-0.132-3.874-0.458-5.751-1.084c-0.937-0.316-1.862-0.705-2.739-1.248c-0.435-0.278-0.863-0.58-1.253-0.964
		c-0.402-0.359-0.741-0.839-1.014-1.366l0.988,0.417c-0.656,0.176-1.295,0.422-1.965,0.536c-0.659,0.146-1.327,0.272-2.02,0.332
		c-0.7,0.101-1.336,0.097-1.986,0.118c-0.707,0.023-1.357-0.033-2.036-0.076c-0.67-0.078-1.341-0.147-2-0.294
		c-0.666-0.107-1.313-0.311-1.964-0.486c-0.639-0.222-1.28-0.434-1.893-0.726c-0.625-0.257-1.216-0.603-1.794-0.955
		c-0.282-0.19-0.572-0.368-0.846-0.57l-0.799-0.639c-0.505-0.462-0.991-0.944-1.415-1.488c-0.421-0.542-0.799-1.125-1.089-1.755
		c-0.295-0.626-0.514-1.282-0.631-2c-0.09-0.364-0.074-0.67-0.1-0.999l-0.014-0.244l-0.003-0.061
		c-0.005-0.086,0.001-0.061,0.001-0.097l0.009-0.129l0.038-0.519c0.08-0.687,0.248-1.363,0.514-1.996
		c0.256-0.637,0.599-1.233,1-1.779c0.394-0.554,0.861-1.042,1.346-1.507l0.093,0.58c-0.697-0.375-1.395-0.744-2.038-1.211
		c-0.339-0.204-0.638-0.47-0.944-0.723c-0.317-0.241-0.598-0.523-0.866-0.821l-0.409-0.438l-0.35-0.49
		c-0.113-0.166-0.24-0.323-0.341-0.496l-0.271-0.543c-0.373-0.71-0.561-1.587-0.596-2.324c-0.05-0.436,0.045-0.819,0.069-1.229
		c0.12-0.386,0.169-0.798,0.352-1.16c0.158-0.372,0.32-0.741,0.553-1.068c0.2-0.35,0.446-0.663,0.703-0.969
		c1.028-1.223,2.348-2.15,3.744-2.87c0.702-0.354,1.422-0.678,2.165-0.934c0.366-0.143,0.74-0.264,1.119-0.366
		c0.377-0.106,0.751-0.231,1.136-0.306c0.764-0.184,1.533-0.335,2.31-0.455c0.773-0.097,1.583-0.213,2.346-0.234
		c0.765-0.06,1.577-0.042,2.354-0.017c0.789-0.01,1.571,0.096,2.356,0.182c0.79,0.054,1.557,0.266,2.337,0.406
		c0.776,0.157,1.527,0.434,2.294,0.647l-0.734,0.266l0.532-0.785l0.27-0.392l0.324-0.338l0.656-0.671
		c0.228-0.212,0.487-0.381,0.73-0.573c0.48-0.4,1.018-0.697,1.558-0.992c0.525-0.33,1.11-0.512,1.673-0.751
		c0.56-0.259,1.162-0.361,1.744-0.542c0.576-0.191,1.209-0.238,1.814-0.354c0.627-0.125,1.188-0.112,1.773-0.153
		c0.312-0.01,0.535-0.044,0.919-0.034l0.908,0.026c0.604,0.048,1.211,0.083,1.811,0.19c0.604,0.076,1.195,0.227,1.786,0.371
		c0.587,0.168,1.17,0.349,1.738,0.579c0.566,0.23,1.13,0.479,1.664,0.788c0.273,0.142,0.537,0.303,0.793,0.479
		c0.262,0.166,0.518,0.342,0.758,0.543c0.248,0.189,0.49,0.386,0.713,0.611c0.233,0.21,0.454,0.435,0.655,0.683
		c0.423,0.469,0.78,1.013,1.069,1.591c0.298,0.576,0.481,1.212,0.603,1.857l-1.053-0.466l1.673-0.89
		c0.562-0.282,1.174-0.434,1.758-0.655c0.578-0.238,1.209-0.337,1.829-0.458c0.618-0.11,1.253-0.267,1.842-0.259l1.795-0.085
		c0.688,0.022,1.255,0.027,1.883,0.113c0.615,0.057,1.223,0.168,1.828,0.287c0.6,0.144,1.204,0.274,1.786,0.485
		c0.59,0.18,1.159,0.428,1.725,0.675c0.558,0.271,1.103,0.564,1.622,0.905c1.032,0.687,1.966,1.549,2.659,2.593
		c0.35,0.519,0.615,1.094,0.809,1.69c0.095,0.301,0.14,0.626,0.207,0.935c0.016,0.309,0.04,0.58,0.036,0.917
		c-0.039,0.31-0.061,0.621-0.116,0.925c-0.091,0.297-0.168,0.596-0.274,0.885c-0.138,0.279-0.267,0.563-0.41,0.831L145.137,26.151z"
		/>
</g>
<path fill="#E6E6E6" d="M144.993,26.209c0.751-1.032,1.173-2.186,1.173-3.405c0-4.331-5.308-7.852-11.913-7.955
	c-0.099,1.036,4.297,0.889,3.651,1.781c5.542,1.007,4.814,5.474,4.814,9.44c0,4.763-5.871,8.625-13.112,8.625
	c-0.867,0-1.716-0.057-2.534-0.162c0.176,0.397,0.272,0.813,0.272,1.243c0,2.768-3.915,5.012-8.744,5.012
	c-3.478,0-6.479-1.164-7.888-2.849c-2.212,1.158-5.556,1.897-9.296,1.897c-5.839,0-10.706-1.798-11.819-4.185
	c-1.843,0.645-3.053-5.868-5.252-5.868c-0.591,0-3.049,3.907-2.609,6.797c0.764,4.8,6.574,8.533,13.631,8.533
	c2.198,0,4.273-0.366,6.117-1.01c1.112,2.387,5.98,4.183,11.819,4.183c3.74,0,7.083-0.736,9.295-1.896
	c1.409,1.687,4.413,2.849,7.889,2.849c4.829,0,8.744-2.244,8.744-5.013c0-0.428-0.096-0.845-0.272-1.242
	c0.819,0.105,1.666,0.162,2.532,0.162c7.243,0,13.115-3.861,13.115-8.625C154.607,30.555,150.535,27.217,144.993,26.209z"/>
<g>
	<path d="M144.836,26.075c1.597-2.39,1.192-5.257-0.81-7.268c-1.995-2.005-4.89-2.994-7.642-3.326
		c-2.709-0.326-5.398-0.015-7.982,0.829c-1.299,0.424-2.448,1.167-3.605,1.874c-0.315-1.103-0.544-2.161-1.217-3.115
		c-0.652-0.925-1.521-1.618-2.463-2.225c-2.246-1.445-5.304-2.065-7.881-2.036c-2.577,0.061-5.072,0.478-7.382,1.667
		c-0.966,0.497-1.866,1.136-2.607,1.932c-0.316,0.338-0.579,0.719-0.832,1.104c-0.218,0.328-0.18,0.418-0.547,0.28
		c-1.381-0.52-2.781-0.942-4.234-1.193c-4.596-0.795-9.709-0.474-13.901,1.718c-1.953,1.021-3.908,2.559-4.636,4.722
		c-0.646,1.918-0.07,3.893,1.213,5.408c1.219,1.438,2.852,2.361,4.542,3.131c-0.858,0.938-1.774,1.863-2.252,3.069
		c-0.707,1.78-0.773,3.671,0.061,5.44c2.164,4.585,7.976,6.161,12.62,6.192c2.064-0.049,4.184-0.499,6.233-1.132
		c0.417-0.127,0.51,0.365,0.71,0.702c0.372,0.623,0.97,1.065,1.576,1.442c1.846,1.092,4.006,1.57,6.112,1.835
		c2.38,0.302,4.705,0.156,7.08-0.108c1.338-0.22,2.625-0.532,3.899-0.996c0.428-0.145,0.824-0.36,1.234-0.546
		c0.127-0.056,0.512-0.315,0.639-0.286c0.126,0.031,0.342,0.397,0.43,0.499c0.375,0.433,0.814,0.785,1.298,1.087
		c2.699,1.68,6.997,2.024,10.008,0.884c1.551-0.559,3.823-1.571,3.846-3.518c0.006-0.561-0.408-1.508-0.649-2.16
		c2.65,0.285,5.223,0.487,7.865-0.079c3.696-0.791,8.336-3.153,8.504-7.465c0,0.007,0,0.015,0,0.021
		c-0.221-4.917-5.113-7.246-9.298-8.282C144.791,26.143,144.813,26.109,144.836,26.075z M145.054,26.062
		c4.354,0.768,9.913,3.333,9.923,8.535c0.006,3.98-3.705,6.789-7.094,8.051c-2.942,1.096-6.012,1.301-9.107,1.03
		c0.271-0.365,0.545-0.732,0.817-1.099c1.326,3.342-1.844,5.888-4.768,6.796c-4.12,1.277-10.038,1.007-13.016-2.48
		c0.379,0.075,0.755,0.148,1.132,0.224c-3.128,1.433-6.518,2.054-9.96,1.966c-4.156-0.104-10.002-0.752-12.306-4.729
		c0.33,0.139,0.659,0.277,0.989,0.416c-4.836,1.427-10.088,1.434-14.655-0.965c-3.369-1.769-6.284-5.046-5.854-9.085
		c0.05-2.071,1.485-3.885,2.861-5.283c0.03,0.193,0.061,0.387,0.092,0.58c-2.728-1.353-5.348-3.505-5.792-6.688
		c-0.458-3.277,2.335-5.952,4.939-7.394c5.623-3.113,12.846-3.356,18.875-1.338c-0.243,0.089-0.488,0.178-0.731,0.266
		c2.558-4.303,7.967-5.703,12.663-5.567c4.924,0.142,10.613,2.489,11.845,7.697c-0.359-0.159-0.718-0.319-1.079-0.478
		c3.766-2.194,8.2-2.853,12.48-1.982c2.773,0.564,5.629,1.821,7.461,4.052C146.586,20.803,146.81,23.736,145.054,26.062z"/>
</g>
<g>
	<path d="M100.157,29.331c0.928-0.546,1.674-1.311,2.072-2.364c0.89-2.352-0.259-4.898-2.55-5.829
		c-2.197-0.894-4.687-0.582-6.991-0.463c-0.182,0.009-0.337,0.056-0.472,0.127c-0.341,0.144-0.602,0.457-0.599,0.942
		c0.051,5.49,0.103,10.98,0.151,16.47c0.005,0.479,0.267,0.792,0.604,0.938c0.132,0.072,0.288,0.12,0.466,0.132
		c3.46,0.236,8.816-0.194,10.213-3.988C103.994,32.744,102.339,30.416,100.157,29.331z M98.147,22.888
		c1.651,0.364,2.854,1.873,1.977,3.57c-0.705,1.363-2.585,1.824-4.367,1.933c-0.648-0.027-1.299-0.026-1.938-0.019
		c-0.018-1.875-0.033-3.75-0.051-5.624C95.231,22.654,96.712,22.572,98.147,22.888z M100.897,34.938
		c-0.763,1.524-3.08,1.92-4.586,2.103c-0.795,0.096-1.604,0.144-2.412,0.139c-0.021-2.217-0.041-4.435-0.061-6.653
		c0.485,0.023,1,0.028,1.529,0.005c1.014,0.039,2.022,0.144,3.019,0.409C100.11,31.401,101.874,32.986,100.897,34.938z"/>
	<path d="M118.392,21.63c-2.252,1.818-2.699,5.525-2.998,8.186c-0.317,2.817-0.347,5.713-0.133,8.54c0.106,1.367,2.245,1.376,2.14,0
		c-0.145-1.876-0.146-3.77-0.078-5.649c0.02-0.49,0.039-0.994,0.07-1.505c0,0,0,0,0.002,0c2.463,0,4.928,0,7.391,0
		c-0.026,1.06-0.105,2.104-0.183,3.078c-0.108,1.361-0.235,2.5-0.471,3.792c-0.245,1.348,1.812,1.924,2.063,0.569
		c0.362-1.983,0.559-4.013,0.649-6.026c0.14-3.108,0.071-6.662-1.517-9.435C123.899,20.681,120.699,19.768,118.392,21.63z
		 M119.162,23.995c0.512-0.831,1.28-1.383,2.242-1.243c1.254,0.184,1.961,1.151,2.449,2.239c0.558,1.238,0.812,2.64,0.901,4.072
		c-2.391,0-4.783,0-7.174,0C117.808,27.261,118.246,25.479,119.162,23.995z"/>
	<path d="M113.163,23.08c1.379,0,1.379-2.138,0-2.138c-2.661,0-5.321,0-7.982,0c-0.574,0-1.083,0.486-1.069,1.069
		c0.116,5.415,0.238,10.829,0.355,16.244c0.013,0.568,0.478,1.087,1.07,1.069c2.541-0.08,5.083-0.16,7.626-0.239
		c1.375-0.044,1.379-2.182,0-2.139c-2.195,0.069-4.389,0.138-6.583,0.207c-0.046-2.112-0.093-4.225-0.138-6.336
		c1.146,0,2.295,0,3.441,0c1.379,0,1.379-2.139,0-2.139c-1.162,0-2.325,0-3.489,0c-0.041-1.865-0.081-3.731-0.123-5.597
		C108.568,23.08,110.865,23.08,113.163,23.08z"/>
	<path d="M140.315,37.512c-0.187-0.266-0.081-0.1-0.2-0.472c-0.257-0.789-0.338-1.623-0.395-2.444
		c-0.13-1.863,0.03-3.649-1.473-5.019c-0.282-0.256-0.584-0.467-0.9-0.644c0.759-0.525,1.363-1.219,1.706-2.129
		c0.893-2.352-0.257-4.897-2.55-5.83c-2.196-0.893-4.686-0.582-6.99-0.462c-0.18,0.01-0.337,0.055-0.471,0.127
		c-0.342,0.144-0.603,0.458-0.599,0.942c0.051,5.49,0.103,10.981,0.151,16.471c0.013,1.378,2.151,1.379,2.138,0
		c-0.022-2.559-0.045-5.118-0.07-7.677c0.036-0.002,0.07-0.004,0.106-0.007c0.948,0.04,2.002,0.005,3.036-0.154
		c1.159,0.036,2.262,0.266,3.063,0.996c0.461,0.419,0.623,1.032,0.665,1.634c0.075,1.077,0.047,2.144,0.198,3.218
		c0.115,0.809,0.251,1.834,0.736,2.529C139.254,39.711,141.109,38.645,140.315,37.512z M134.975,22.726
		c1.651,0.363,2.852,1.873,1.976,3.569c-0.582,1.123-1.958,1.634-3.419,1.84c-0.905-0.004-1.817,0.062-2.68,0.103
		c-0.072-0.003-0.141-0.007-0.206-0.01c-0.02-1.881-0.035-3.762-0.054-5.642C132.056,22.493,133.537,22.41,134.975,22.726z"/>
</g>
<ellipse cx="75.407" cy="38.035" rx="5.093" ry="3.809"/>
<ellipse fill="#FFFFFF" cx="74.978" cy="37.554" rx="3.938" ry="2.945"/>
<path fill="#CCCCCC" d="M77.869,35.604c0.281,0.405,0.442,0.864,0.442,1.353c0,1.626-1.763,2.945-3.937,2.945
	c-1.158,0-2.195-0.376-2.916-0.971c0.656,0.944,1.973,1.591,3.495,1.591c2.174,0,3.937-1.318,3.937-2.945
	C78.891,36.817,78.501,36.126,77.869,35.604z"/>
<ellipse cx="67.328" cy="42.402" rx="2.767" ry="2.069"/>
<ellipse fill="#FFFFFF" cx="67.095" cy="42.141" rx="2.139" ry="1.6"/>
<path fill="#CCCCCC" d="M68.666,41.082c0.153,0.221,0.24,0.469,0.24,0.735c0,0.883-0.958,1.6-2.139,1.6
	c-0.629,0-1.192-0.204-1.584-0.527c0.357,0.513,1.072,0.865,1.899,0.865c1.182,0,2.139-0.717,2.139-1.601
	C69.22,41.741,69.009,41.366,68.666,41.082z"/>
<path fill="#005600" d="M0.004,83.724h183.229c0,0-65.914-1.887-70.332-2.695c-4.418-0.806-22.867,0-29.747,1.348
	c-6.881,1.348-23.166,0.056-25.901-1.669C54.519,78.981,0.004,83.724,0.004,83.724z"/>
<path fill="#002D00" d="M143.924,78.053c-2.873,0.394,5.963-1.553,5.963-1.553s-6.813,0.18-9.562,0.971
	c1.263-0.666,3.091-1.674,3.091-1.674s-6.119,1.021-7.147,2.121c-1.027,1.101,1.546-1.956,1.546-1.956s-2.558,1.378-3.18,1.793
	c0.005-0.327-0.48-1.389-0.48-1.389s-2.396,2.957-1.616,1.872c0.779-1.085-4.203-1.431-4.203-1.431s0.265,0.881,0.494,1.454
	c-1.658-0.521-8.881,0.151-8.881,0.151s6.381,1.021,3.888,0.954c-2.493-0.065-7.939,0.967-7.939,0.967s4.56-0.18,9.114-0.021
	c4.552,0.16,6.592,1.269,6.592,1.269c0,0.012,0.055-0.057,0.149-0.182c1.021-0.34,4.717-1.506,9.222-2.149
	c5.315-0.761,10.049-1.146,10.049-1.146S146.799,77.66,143.924,78.053z"/>
<path fill="#005600" d="M138.194,76.809c-3.107,0.513,5.262-1.894,5.262-1.894s-8.562,0.373-10.865,1.33
	c0.57-0.779,1.336-1.958,1.336-1.958s-6.311,1.303-5.89,2.562c0.421,1.262-1.12-2.237-1.12-2.237s-1.118,1.614-1.264,2.095
	c-0.518-0.367-2.845-1.545-2.845-1.545s1.611,3.378,0.894,2.141c-0.72-1.237-7.746-1.501-7.746-1.501s1.751,0.982,2.971,1.622
	c-2.99-0.545-11.293,0.394-11.293,0.394s9.916,0.984,6.57,0.973c-3.343-0.011-8.766,1.285-8.766,1.285s6.039,0.894,12.207,0.956
	c6.169,0.065,10.154,1.692,10.154,1.692c-0.14,1.115,2.912-0.653,2.837-0.793c0.781-0.409,0.817-2.867,5.638-3.705
	c5.688-0.986,11.217-1.539,11.217-1.539S141.299,76.295,138.194,76.809z"/>
<path fill="#008000" d="M140.93,80.67c-2.95-0.187,6.328-0.552,6.328-0.552s-6.777-1.399-9.716-1.049
	c1.434-0.549,3.526-1.395,3.526-1.395s-6.332-0.16-7.66,0.994c-1.328,1.155,2.084-2.123,2.084-2.123s-2.919,1.146-3.652,1.523
	c0.101-0.416-0.08-1.883-0.08-1.883s-3.206,3.192-2.128,1.998c1.079-1.195-3.743-2.829-3.743-2.829s0.011,1.186,0.077,1.974
	c-1.49-1.063-8.815-1.931-8.815-1.931s6.013,2.823,3.568,2.144c-2.444-0.679-8.113-0.666-8.113-0.666s4.552,0.861,9.004,2.152
	c4.453,1.291,6.153,3.188,6.153,3.188c-0.004,0.017,0.068-0.059,0.198-0.192c1.104-0.189,5.083-0.792,9.714-0.535
	c5.465,0.304,10.248,0.942,10.248,0.942S143.879,80.856,140.93,80.67z"/>
<path fill="#002D00" d="M47.457,78.016c-2.873,0.394,5.963-1.552,5.963-1.552s-6.813,0.179-9.562,0.97
	c1.262-0.666,3.09-1.673,3.09-1.673s-6.118,1.021-7.147,2.12c-1.028,1.102,1.547-1.956,1.547-1.956s-2.558,1.38-3.181,1.794
	c0.006-0.327-0.479-1.389-0.479-1.389s-2.397,2.957-1.617,1.872c0.78-1.085-4.203-1.432-4.203-1.432s0.265,0.882,0.495,1.455
	c-1.658-0.521-8.881,0.152-8.881,0.152s6.381,1.019,3.887,0.952c-2.493-0.065-7.939,0.968-7.939,0.968s4.56-0.181,9.114-0.021
	c4.552,0.159,6.592,1.269,6.592,1.269c0,0.011,0.054-0.058,0.149-0.183c1.022-0.339,4.716-1.505,9.222-2.148
	c5.315-0.761,10.049-1.146,10.049-1.146S50.332,77.623,47.457,78.016z"/>
<path fill="#005600" d="M59.803,77.745c-3.108,0.513,5.262-1.894,5.262-1.894s-8.562,0.373-10.865,1.33
	c0.57-0.779,1.336-1.958,1.336-1.958s-6.312,1.303-5.89,2.562c0.421,1.262-1.12-2.237-1.12-2.237s-1.118,1.614-1.264,2.095
	c-0.518-0.367-2.844-1.545-2.844-1.545s1.611,3.378,0.894,2.141c-0.72-1.237-7.747-1.501-7.747-1.501s1.75,0.982,2.971,1.622
	c-2.99-0.546-11.294,0.394-11.294,0.394s9.917,0.984,6.572,0.973c-3.343-0.012-8.767,1.285-8.767,1.285s6.04,0.894,12.208,0.956
	c6.169,0.065,10.155,1.692,10.155,1.692c-0.14,1.115,2.912-0.653,2.836-0.794c0.782-0.408,0.818-2.866,5.639-3.704
	c5.688-0.986,11.216-1.539,11.216-1.539S62.908,77.231,59.803,77.745z"/>
<path fill="#008000" d="M62.535,80.874c-2.951-0.188,6.328-0.552,6.328-0.552s-6.777-1.4-9.716-1.049
	c1.434-0.549,3.526-1.395,3.526-1.395s-6.332-0.16-7.659,0.994c-1.328,1.155,2.083-2.123,2.083-2.123s-2.918,1.146-3.651,1.523
	c0.1-0.416-0.081-1.883-0.081-1.883s-3.205,3.192-2.126,1.998c1.078-1.195-3.744-2.829-3.744-2.829s0.011,1.186,0.077,1.974
	c-1.49-1.063-8.815-1.931-8.815-1.931s6.013,2.823,3.568,2.144c-2.444-0.679-8.112-0.667-8.112-0.667s4.552,0.862,9.004,2.153
	c4.453,1.291,6.153,3.188,6.153,3.188c-0.004,0.017,0.068-0.059,0.198-0.192c1.105-0.189,5.083-0.792,9.714-0.535
	c5.465,0.304,10.248,0.942,10.248,0.942S65.483,81.061,62.535,80.874z"/>
</svg>
