<?xml version="1.0" encoding="utf-8"?>
<!-- Generator: Adobe Illustrator 16.0.4, SVG Export Plug-In . SVG Version: 6.00 Build 0)  -->
<!DOCTYPE svg PUBLIC "-//W3C//DTD SVG 1.1//EN" "http://www.w3.org/Graphics/SVG/1.1/DTD/svg11.dtd">
<svg version="1.1" id="Layer_1" xmlns="http://www.w3.org/2000/svg" xmlns:xlink="http://www.w3.org/1999/xlink" x="0px" y="0px"
	 width="24px" height="24px" viewBox="0 0 24 24" enable-background="new 0 0 24 24" xml:space="preserve">
<path opacity="0.5" fill="#666666" enable-background="new    " d="M17.821,17.43l-5.305-5.305c0.772-1.089,1.231-2.417,1.231-3.854
	c0-3.685-2.986-6.672-6.675-6.672c-3.685,0-6.672,2.988-6.672,6.672s2.987,6.673,6.672,6.673c1.241,0,2.397-0.345,3.393-0.934
	l5.384,5.386c0.273,0.272,0.713,0.272,0.985,0l0.983-0.983C18.093,18.142,18.093,17.701,17.821,17.43z M7.076,13.196
	c-2.72,0-4.925-2.207-4.925-4.926c0-2.719,2.205-4.924,4.925-4.924c2.72,0,4.923,2.204,4.923,4.924
	C11.999,10.991,9.795,13.196,7.076,13.196z"/>
<path fill="#666666" d="M17.852,16.868l-5.305-5.305c0.773-1.089,1.232-2.417,1.232-3.854c0-3.686-2.987-6.671-6.676-6.671
	c-3.685,0-6.672,2.987-6.672,6.671c0,3.684,2.988,6.673,6.672,6.673c1.24,0,2.398-0.345,3.394-0.935l5.385,5.387
	c0.273,0.272,0.714,0.272,0.986,0l0.981-0.983C18.123,17.58,18.123,17.14,17.852,16.868z M7.105,12.634
	c-2.72,0-4.923-2.206-4.923-4.925c0-2.72,2.204-4.924,4.923-4.924c2.719,0,4.925,2.204,4.925,4.924
	C12.03,10.428,9.824,12.634,7.105,12.634z"/>
<path fill="#FFFFFF" d="M17.852,16.197l-5.305-5.305c0.773-1.09,1.232-2.417,1.232-3.854c0-3.685-2.987-6.671-6.676-6.671
	c-3.685,0-6.672,2.987-6.672,6.671c0,3.684,2.988,6.674,6.672,6.674c1.24,0,2.398-0.345,3.394-0.933l5.385,5.384
	c0.273,0.272,0.714,0.272,0.986,0l0.981-0.981C18.123,16.909,18.123,16.47,17.852,16.197z M7.105,11.962
	c-2.72,0-4.923-2.204-4.923-4.924c0-2.72,2.204-4.924,4.923-4.924c2.719,0,4.925,2.204,4.925,4.924
	C12.03,9.758,9.824,11.962,7.105,11.962z"/>
<circle opacity="0.4" fill="#FFFFFF" enable-background="new    " cx="7.063" cy="7.057" r="4.745"/>
</svg>
