<?xml version="1.0" encoding="utf-8"?>
<!-- Generator: Adobe Illustrator 16.0.4, SVG Export Plug-In . SVG Version: 6.00 Build 0)  -->
<!DOCTYPE svg PUBLIC "-//W3C//DTD SVG 1.1//EN" "http://www.w3.org/Graphics/SVG/1.1/DTD/svg11.dtd">
<svg version="1.1" id="Layer_1" xmlns="http://www.w3.org/2000/svg" xmlns:xlink="http://www.w3.org/1999/xlink" x="0px" y="0px"
	 width="24px" height="24px" viewBox="0 0 24 24" enable-background="new 0 0 24 24" xml:space="preserve">
<path opacity="0.5" fill="#1B1B1B" d="M11.542,2.286c-5.614,0-10.165,4.551-10.165,10.165c0,5.613,4.551,10.165,10.165,10.165
	c5.613,0,10.164-4.552,10.164-10.165C21.706,6.837,17.155,2.286,11.542,2.286z M11.542,20.836c-4.631,0-8.386-3.754-8.386-8.385
	c0-4.631,3.755-8.386,8.386-8.386s8.387,3.754,8.387,8.386C19.929,17.082,16.173,20.836,11.542,20.836z"/>
<path opacity="0.5" fill-rule="evenodd" clip-rule="evenodd" fill="#1B1B1B" d="M13.64,7.841c-1.394-1.032-2.887-1.004-4.263,0.044
	c-1.73,1.32-2.071,3.109-1.112,4.964c0.637,1.232,1.485,2.365,2.512,3.827c0.117,0.296,0.42,0.507,0.778,0.507
	c0.353,0,0.653-0.207,0.774-0.496c1.03-1.504,1.876-2.66,2.516-3.912C15.807,10.894,15.377,9.127,13.64,7.841z"/>
<path fill="#1B1B1B" d="M11.959,1.702c-5.614,0-10.165,4.551-10.165,10.165c0,5.613,4.551,10.165,10.165,10.165
	c5.613,0,10.164-4.552,10.164-10.165C22.123,6.253,17.572,1.702,11.959,1.702z M11.959,20.252c-4.631,0-8.386-3.754-8.386-8.385
	c0-4.631,3.755-8.386,8.386-8.386s8.387,3.754,8.387,8.386C20.346,16.498,16.59,20.252,11.959,20.252z"/>
<path fill-rule="evenodd" clip-rule="evenodd" fill="#1B1B1B" d="M14.057,7.257c-1.394-1.032-2.887-1.004-4.263,0.044
	c-1.73,1.32-2.071,3.109-1.112,4.964c0.637,1.232,1.485,2.365,2.512,3.827c0.117,0.296,0.42,0.507,0.778,0.507
	c0.353,0,0.653-0.207,0.774-0.496c1.03-1.504,1.876-2.66,2.516-3.912C16.224,10.309,15.794,8.543,14.057,7.257z"/>
<path fill="#FFFFFF" d="M12.46,1.384c-5.614,0-10.165,4.551-10.165,10.165c0,5.614,4.551,10.165,10.165,10.165
	c5.613,0,10.164-4.551,10.164-10.165C22.624,5.935,18.073,1.384,12.46,1.384z M12.46,19.935c-4.631,0-8.386-3.754-8.386-8.385
	c0-4.632,3.755-8.386,8.386-8.386s8.387,3.754,8.387,8.386C20.847,16.181,17.091,19.935,12.46,19.935z"/>
<path fill-rule="evenodd" clip-rule="evenodd" fill="#FFFFFF" d="M14.558,6.939c-1.395-1.032-2.887-1.004-4.264,0.044
	c-1.73,1.32-2.07,3.109-1.112,4.963c0.638,1.233,1.485,2.366,2.513,3.827c0.117,0.297,0.42,0.508,0.777,0.508
	c0.354,0,0.654-0.207,0.775-0.496c1.029-1.504,1.875-2.66,2.516-3.912C16.724,9.991,16.294,8.226,14.558,6.939z"/>
</svg>
