<?xml version="1.0" encoding="utf-8"?>
<!-- Generator: Adobe Illustrator 16.0.4, SVG Export Plug-In . SVG Version: 6.00 Build 0)  -->
<!DOCTYPE svg PUBLIC "-//W3C//DTD SVG 1.1//EN" "http://www.w3.org/Graphics/SVG/1.1/DTD/svg11.dtd">
<svg version="1.1" id="Layer_1" xmlns="http://www.w3.org/2000/svg" xmlns:xlink="http://www.w3.org/1999/xlink" x="0px" y="0px"
	 width="24px" height="24px" viewBox="0 0 24 24" enable-background="new 0 0 24 24" xml:space="preserve">
<g opacity="0.4">
	<path fill="#202020" d="M12.146,2.832c-4.82,0-8.866,3.267-10.063,7.704l-1.47-0.196L2.5,14.914l3.017-3.922l-1.601-0.213
		c1.066-3.54,4.338-6.122,8.229-6.122c4.746,0,8.6,3.853,8.6,8.607c0,4.751-3.854,8.604-8.6,8.604c-3.311,0-6.179-1.867-7.619-4.604
		l-1.851,0.359c1.653,3.58,5.265,6.07,9.47,6.07c5.753,0,10.425-4.672,10.425-10.431C22.57,7.503,17.898,2.832,12.146,2.832z"/>
	<polygon fill="#202020" points="15.196,17.668 16.302,17.463 15.917,16.396 12.322,14.227 12.322,8.596 11.594,7.735 10.858,8.596 
		10.858,14.914 10.938,14.914 10.858,15.053 	"/>
</g>
<g>
	<path fill="#1E1E1E" d="M12.543,2.301c-4.819,0-8.865,3.266-10.062,7.703L1.011,9.809l1.887,4.572l3.017-3.92l-1.601-0.213
		c1.066-3.539,4.339-6.122,8.229-6.122c4.747,0,8.602,3.853,8.602,8.607c0,4.751-3.854,8.604-8.602,8.604
		c-3.31,0-6.177-1.869-7.618-4.605l-1.851,0.361c1.653,3.582,5.265,6.07,9.469,6.07c5.755,0,10.426-4.672,10.426-10.431
		C22.969,6.971,18.298,2.301,12.543,2.301z"/>
	<polygon fill="#1E1E1E" points="15.594,17.137 16.7,16.93 16.316,15.865 12.719,13.696 12.719,8.065 11.995,7.205 11.257,8.065 
		11.257,14.381 11.336,14.381 11.257,14.521 	"/>
</g>
<g>
	<path fill="#FFFFFF" d="M12.543,1.237c-4.819,0-8.865,3.267-10.062,7.704L1.011,8.745l1.887,4.576l3.017-3.925L4.314,9.185
		c1.066-3.54,4.339-6.122,8.229-6.122c4.747,0,8.602,3.854,8.602,8.607c0,4.752-3.854,8.604-8.602,8.604
		c-3.31,0-6.177-1.865-7.618-4.602l-1.851,0.357c1.653,3.582,5.265,6.07,9.469,6.07c5.755,0,10.426-4.672,10.426-10.431
		C22.969,5.908,18.298,1.237,12.543,1.237z"/>
	<polygon fill="#FFFFFF" points="15.594,16.074 16.7,15.867 16.316,14.803 12.719,12.635 12.719,7.002 11.995,6.141 11.257,7.002 
		11.257,13.321 11.336,13.321 11.257,13.461 	"/>
</g>
</svg>
