<?xml version="1.0" encoding="utf-8"?>
<!-- Generator: Adobe Illustrator 16.0.4, SVG Export Plug-In . SVG Version: 6.00 Build 0)  -->
<!DOCTYPE svg PUBLIC "-//W3C//DTD SVG 1.1//EN" "http://www.w3.org/Graphics/SVG/1.1/DTD/svg11.dtd">
<svg version="1.1" id="Layer_1" xmlns="http://www.w3.org/2000/svg" xmlns:xlink="http://www.w3.org/1999/xlink" x="0px" y="0px"
	 width="78px" height="64px" viewBox="0 0 78 64" enable-background="new 0 0 78 64" xml:space="preserve">
<path fill-rule="evenodd" clip-rule="evenodd" fill="#FFFFFF" d="M74.158,24.525l-0.054-0.086l-0.233-0.173
	c-0.216-0.19-0.463-0.388-0.742-0.604c-0.598-0.488-1.489-1.213-2.59-2.084l-0.05-0.061l-0.126-0.105
	c-1.449-1.219-3.75-2.963-6.3-4.774c-2.808-2.038-5.269-3.666-7.294-4.828c-0.306-0.181-0.599-0.352-0.876-0.502l-2.261-1.252
	l-0.034,0.147c-0.191-0.08-0.374-0.154-0.552-0.221c-2.135-0.924-4.174-1.561-6.233-1.947L46.633,8l-1.137,0.004
	c-0.613,3.476-2.797,7.703-5.864,7.79c-3.39,0.096-5.993-4.055-6.63-7.748l-0.838,0.002l-0.076,0.007
	C25.146,8.628,7.08,19.716,4.275,24.987c-2.928,3.163-0.83,6.051-0.129,7.016c1.438,1.984,3.197,2.4,4.42,2.4
	c0.175,0,0.354-0.009,0.533-0.026c0.395-0.008,0.77-0.079,1.116-0.208c0.941-0.268,1.902-0.757,2.859-1.457
	c0.63-0.339,2.222-1.18,4.009-2.125c3.014-1.594,4.988-2.642,6.115-3.244c-0.01,5.595,0.023,11.256,0.055,16.743
	c0.012,1.949,0.023,3.899,0.031,5.85l-0.035,0.258c-0.387,2.764-0.601,4.283,0.462,5.505c1.044,1.201,2.541,1.201,5.022,1.201
	l10.204-0.006c0,0,7.784,0.006,11.266,0.006c2.481,0,3.981,0,5.024-1.201c1.062-1.222,0.849-2.741,0.462-5.505l-0.06-0.31l0.02-3.29
	c0.032-6.336,0.066-12.672,0.09-19.007c0.68,0.254,1.346,0.535,1.925,0.843c0.567,0.302,1.415,0.783,2.4,1.339
	c2.404,1.363,5.396,3.057,7.469,3.966c0.262,0.122,0.503,0.222,0.732,0.302c0.764,0.293,1.325,0.423,1.822,0.423
	c0.217,0,0.416-0.027,0.592-0.069c1.196-0.078,2.766-0.588,4.069-2.387C76.758,29.237,76.564,26.788,74.158,24.525z"/>
<path fill-rule="evenodd" clip-rule="evenodd" d="M15.887,29.057c-1.852,0-3.389,1.315-5.252-0.915
	c-1.568-1.877-2.428-3.396-0.869-5.232c3.139-2.639,10.414-7.817,14.158-9.891c0.243,1.346,0.562,2.567,0.666,3.806
	c0.209,2.472,0.062,4.937-0.626,7.336c-0.097,0.335-0.37,0.704-0.665,0.882C21.916,25.875,17.34,28.239,15.887,29.057z"/>
<path d="M11.924,31.107c-2.009,1.481-4.459,2.172-6.221-0.254c-1.631-2.249-1.426-3.722,1.586-5.905
	c0.264,1.079-0.016,1.762,1.373,3.748C10.135,30.8,10.777,30.423,11.924,31.107z"/>
<path fill-rule="evenodd" clip-rule="evenodd" d="M62.954,29.057c1.853,0,3.256,1.478,5.118-0.752
	c1.571-1.877,2.564-3.558,1.005-5.394c-3.14-2.639-10.414-7.817-14.156-9.891c-0.245,1.346-0.564,2.567-0.67,3.806
	c-0.205,2.472-0.062,4.937,0.628,7.336c0.098,0.335,0.371,0.704,0.666,0.882C56.927,25.875,61.503,28.239,62.954,29.057z"/>
<path d="M66.918,31.107c2.01,1.481,4.461,2.172,6.222-0.254c1.631-2.249,1.425-3.722-1.586-5.905
	c-0.265,1.079,0.017,1.762-1.373,3.748C68.707,30.8,68.064,30.423,66.918,31.107z"/>
<path fill-rule="evenodd" clip-rule="evenodd" d="M53.723,50.467c-0.026,0-0.054-0.001-0.08-0.001
	c0.04-7.753,0.084-15.505,0.116-23.258c0.002-0.792-0.01-1.608-0.193-2.369c-0.656-2.712-1.039-5.446-0.71-8.229
	c0.165-1.397,0.492-2.776,0.758-4.208c-2.257-1.091-4.62-1.963-7.188-2.444c-0.107,0.47-0.196,0.854-0.285,1.238
	c-0.404,1.755-1.095,3.402-2.373,4.676c-2.948,2.93-7.661,2.285-9.685-1.356c-0.762-1.373-1.216-2.916-1.862-4.51
	c-2.374,0.438-4.771,1.304-7.069,2.464c1.035,3.276,1.21,6.506,0.648,9.782c-0.224,1.298-0.663,2.592-0.667,3.89
	c-0.023,8.108,0.049,16.215,0.087,24.324c-0.019,0-0.038,0.001-0.058,0.001c-0.627,4.472-0.627,4.475,3.545,4.475
	c3.402,0,6.805-0.004,10.205-0.006c0,0,7.784,0.006,11.266,0.006C54.351,54.941,54.351,54.938,53.723,50.467z"/>
<path fill-rule="evenodd" clip-rule="evenodd" d="M6.961,29.458"/>
<g>
	<path fill="#FFFFFF" d="M31.653,47.482c0.454-0.268,0.819-0.643,1.015-1.158c0.438-1.151-0.126-2.398-1.248-2.854
		c-1.076-0.438-2.295-0.285-3.424-0.227c-0.089,0.004-0.164,0.027-0.23,0.062c-0.168,0.07-0.295,0.224-0.293,0.461
		c0.025,2.688,0.051,5.377,0.074,8.064c0.002,0.234,0.13,0.387,0.295,0.459c0.065,0.035,0.141,0.059,0.229,0.064
		c1.694,0.116,4.317-0.096,5-1.952C33.533,49.152,32.723,48.014,31.653,47.482z M30.67,44.327c0.808,0.179,1.396,0.917,0.967,1.749
		c-0.344,0.666-1.265,0.893-2.137,0.945c-0.317-0.012-0.637-0.012-0.949-0.008c-0.009-0.919-0.017-1.836-0.025-2.755
		C29.242,44.213,29.967,44.173,30.67,44.327z M32.016,50.228c-0.373,0.747-1.508,0.94-2.244,1.03
		c-0.39,0.047-0.787,0.07-1.182,0.068c-0.011-1.086-0.02-2.172-0.031-3.258c0.238,0.011,0.492,0.014,0.75,0.003
		c0.496,0.019,0.99,0.069,1.479,0.199C31.631,48.496,32.494,49.272,32.016,50.228z"/>
	<path fill="#FFFFFF" d="M40.584,43.711c-1.103,0.892-1.323,2.705-1.469,4.009c-0.156,1.379-0.17,2.798-0.065,4.182
		c0.052,0.67,1.1,0.675,1.048,0c-0.071-0.919-0.072-1.847-0.038-2.766c0.009-0.24,0.019-0.487,0.035-0.736l0,0
		c1.206,0,2.412,0,3.618,0c-0.012,0.519-0.05,1.029-0.088,1.507c-0.054,0.666-0.116,1.224-0.231,1.855
		c-0.12,0.66,0.888,0.943,1.012,0.279c0.176-0.971,0.273-1.965,0.316-2.95c0.069-1.522,0.034-3.263-0.742-4.62
		C43.279,43.246,41.714,42.8,40.584,43.711z M40.961,44.869c0.249-0.406,0.627-0.677,1.098-0.608c0.614,0.09,0.961,0.563,1.2,1.097
		c0.272,0.606,0.395,1.292,0.44,1.994c-1.171,0-2.343,0-3.514,0C40.298,46.469,40.512,45.596,40.961,44.869z"/>
	<path fill="#FFFFFF" d="M38.022,44.422c0.675,0,0.675-1.047,0-1.047c-1.303,0-2.606,0-3.908,0c-0.28,0-0.53,0.238-0.523,0.523
		c0.057,2.65,0.116,5.303,0.173,7.953c0.008,0.279,0.234,0.533,0.525,0.523c1.244-0.039,2.488-0.078,3.733-0.116
		c0.673-0.022,0.675-1.069,0-1.048c-1.075,0.033-2.149,0.068-3.223,0.102c-0.023-1.035-0.046-2.068-0.068-3.103
		c0.562,0,1.124,0,1.685,0c0.676,0,0.676-1.048,0-1.048c-0.568,0-1.138,0-1.707,0c-0.021-0.912-0.041-1.826-0.061-2.74
		C35.773,44.422,36.896,44.422,38.022,44.422z"/>
	<path fill="#FFFFFF" d="M51.317,51.488c-0.091-0.131-0.039-0.049-0.097-0.23c-0.126-0.387-0.168-0.795-0.194-1.197
		c-0.062-0.912,0.015-1.786-0.722-2.457c-0.136-0.127-0.287-0.229-0.439-0.316c0.372-0.257,0.667-0.597,0.835-1.042
		c0.438-1.151-0.127-2.397-1.25-2.854c-1.074-0.438-2.293-0.285-3.421-0.227c-0.089,0.006-0.166,0.027-0.231,0.062
		c-0.168,0.069-0.296,0.225-0.292,0.461c0.022,2.688,0.048,5.377,0.072,8.065c0.009,0.675,1.055,0.675,1.048,0
		c-0.011-1.253-0.021-2.507-0.035-3.76c0.017-0.001,0.035-0.001,0.054-0.003c0.46,0.02,0.979,0.002,1.485-0.075
		c0.566,0.017,1.107,0.13,1.5,0.487c0.227,0.205,0.306,0.506,0.326,0.8c0.037,0.527,0.023,1.05,0.095,1.576
		c0.056,0.396,0.125,0.897,0.362,1.238C50.799,52.564,51.707,52.043,51.317,51.488z M48.704,44.248
		c0.808,0.178,1.395,0.918,0.967,1.748c-0.285,0.549-0.961,0.801-1.676,0.9c-0.443-0.002-0.891,0.03-1.311,0.051
		c-0.036-0.002-0.069-0.004-0.1-0.005c-0.011-0.921-0.019-1.843-0.029-2.763C47.274,44.135,47.998,44.093,48.704,44.248z"/>
</g>
<path fill-rule="evenodd" clip-rule="evenodd" d="M71.883,29.458"/>
</svg>
