<?xml version="1.0" encoding="utf-8"?>
<!-- Generator: Adobe Illustrator 16.0.4, SVG Export Plug-In . SVG Version: 6.00 Build 0)  -->
<!DOCTYPE svg PUBLIC "-//W3C//DTD SVG 1.1//EN" "http://www.w3.org/Graphics/SVG/1.1/DTD/svg11.dtd">
<svg version="1.1" id="Layer_1" xmlns="http://www.w3.org/2000/svg" xmlns:xlink="http://www.w3.org/1999/xlink" x="0px" y="0px"
	 width="200px" height="440px" viewBox="0 0 200 440" enable-background="new 0 0 200 440" xml:space="preserve">
<g id="Skuggis">
	<path fill="#603813" d="M103.441,370.008c-0.557,5.99-3.1,13.475-2.614,18.322c11.497-5.736,12.934-25.025,11.122-41.887
		C109.426,354.609,105.547,361.42,103.441,370.008C102.885,375.998,105.547,361.42,103.441,370.008z"/>
	<path fill="#603813" d="M134.463,355.607c0-1.469-3.086-3.521-4.575-3.27c-0.381,3.912-5.091,5.711-6.227,9.248
		c-0.16,0.508,2.177,8.422-1.628,8.422c-0.106,2.582,1.639,5.895,4.581,5.895c4.784,0,1.569-6.098,8.508-5.242
		C133.22,365.766,136.639,360.449,134.463,355.607C134.463,355.391,136.52,360.182,134.463,355.607z"/>
	<path fill="#603813" d="M184.06,93.92c0.349-1.731,1.056-3.296,2.116-4.696c-1.95-3.043-3.739-6.186-5.272-9.459
		c-4.275-9.167-1.778-25.085-8.883-31.766c-6.15-5.781-15.446-6.054-22.187-10.895c-0.938-0.678-13.635-19.037-14.712-8.093
		c1.302,2.882,0.102,9.596,0.402,8.127c-0.836,4.037,0.331,6.531-3.022,7.579c-2.958,2.89-15.881-1.361-18.978-2.62
		c-0.899,4.905,0.049,10.442-1.307,15.055c-4.425-0.554-13.689-2.354-15.543,3.003c-1.899,5.5-3.74,10.833-5.403,16.63
		c0,2.821-0.654,6.561-0.654,9.818c0,5.719-1.68,1.489-3.274,5.888c-3.876,2.54-4.672,7.104-5.786,11.235
		c-1.189,4.436,2.033,4.157-3.056,5.189c-2.31,0.466-3.967,2.159-6.17,2.861c-4.176,1.328-2.209,2.464-2.004,6.917
		c0.164,3.525,0.103,7.078-0.244,10.592c-0.514,5.173-2.382,10.705-4.618,15.393c-1.88,3.946-5.591,7.651-6.344,12.058
		c-0.785,4.587,5.077,8.892,3.878,14.822c-0.889,4.407-11.851,0.869-16.419,3.054c-4.947,2.365-7.956,8.634-9.756,13.531
		c-4.372,11.91-3.589,26.917-4.224,39.406c-0.287,5.674,0.99,12.73,4.39,17.396c3.292,4.516,6.347,11.213,2.574,16.406
		c-3.007-0.264-4.987-1.555-7.857-1.961c2.283,10.189,10.292,22.213,1.631,32.297c-4.302,5.008-9.981,2.795-8.829,11.551
		c-2.199,2.576-1.315,13.244-1.964,17.021c-2.414,1.986-5.666-4.25-8.508,1.307c-3.785,4.205,1.061,10.92-1.31,15.709
		c0.932,0.873,2.027,1.082,3.292,0.639c3.435-0.322,3.086,3.857,3.622,6.492c1.181,5.803,1.787,11.701,2.874,17.521
		c1.21,6.48,3.541,22.186,12.044,19.256c0,1.809,0.404,1.713-0.89,1.252c-1.382,1.672,3.688,9.945,3.273,13.09
		c0,2.994-5.192,3.787-5.237,4.58c0.976,4.844,3.068,9.355,6.202,13.176c3.468,4.227-3.986,7.539,0.342,11.041
		c3.024,3.258,7.82,1.93,11.511,1.029c2.015-0.578,4.07-0.922,6.163-1.029c0.65,0.648,3.035,0.66,3.895,0.66
		c0-9.07-2.332-13.893,6.292-18.555c6.976-3.783,15.583-3.658,22.235,0.436c0.552,0.336,1.583-0.15,1.425-1.711
		c-0.152-1.559,2.746-12.344,4.921-18.854c3.746-11.209,4.94-24.201,5.735-35.936c0-4.012,0.722-7.746,0.585-11.85
		c-0.238-7.256,0.67-5.133,5.867-8.535c3.856-2.535,7.42-5.299,7.58-10.297l0,0l0,0l0,0c0.273-2.096,2.32-10.551,2.984-9.896
		c0.676,0.652,7.095-0.166,9.698-2.951c5.229-5.605,9.734-10.24,4.698-16.455c-5.551-6.857-12.832-11.984-20.011-17.301
		c-6.456-4.773-6.161-6.713-6.161-14.562c0-7.635,9.729-8.834,6.541-17.449s15.056-39.915,18.329-44.513
		c5.476-3.568,13.17-15.055,20.284-15.055c-1.447-12.72,6.843-13.611,11.134-22.251c-0.573-1.495-2.085-2.764-4.2-4.765
		c-0.064-3.068-4.437-3.25-2.491-6.178c2.19-3.303,3.594-7.407,5.518-10.908c1.886-3.42,3.648-6.881,5.589-10.268
		c1.34-2.341,2.191-5.725,3.991-7.146c2.224-1.755,7.26-0.66,9.918-0.66c9.98-1.069,11.208-6.912,4.586-13.737
		C182.603,100.875,183.187,97.633,184.06,93.92z M114.345,319.49v0.006C114.345,319.496,114.345,319.496,114.345,319.49z"/>
</g>
<g id="Sverige">
	<radialGradient id="SVGID_1_" cx="90.9307" cy="237.5225" r="180.1565" gradientUnits="userSpaceOnUse">
		<stop  offset="0" style="stop-color:#FFDE5C"/>
		<stop  offset="0.0583" style="stop-color:#FFD65D"/>
		<stop  offset="0.2342" style="stop-color:#FFC360"/>
		<stop  offset="0.4154" style="stop-color:#FFB862"/>
		<stop  offset="0.6084" style="stop-color:#FFB463"/>
		<stop  offset="1" style="stop-color:#96632A"/>
	</radialGradient>
	<path fill="url(#SVGID_1_)" stroke="#000000" stroke-width="1.2477" stroke-miterlimit="10" d="M101.912,364.184
		c-0.558,5.99-3.1,13.475-2.614,18.324c11.495-5.738,12.93-25.025,11.125-41.887C107.899,348.785,104.018,355.596,101.912,364.184
		C101.354,370.174,104.018,355.596,101.912,364.184z"/>
	<radialGradient id="SVGID_2_" cx="90.9341" cy="237.5156" r="180.1631" gradientUnits="userSpaceOnUse">
		<stop  offset="0" style="stop-color:#FFDE5C"/>
		<stop  offset="0.0583" style="stop-color:#FFD65D"/>
		<stop  offset="0.2342" style="stop-color:#FFC360"/>
		<stop  offset="0.4154" style="stop-color:#FFB862"/>
		<stop  offset="0.6084" style="stop-color:#FFB463"/>
		<stop  offset="1" style="stop-color:#96632A"/>
	</radialGradient>
	<path fill="url(#SVGID_2_)" stroke="#000000" stroke-width="1.2477" stroke-miterlimit="10" d="M132.937,349.783
		c0-1.469-3.086-3.521-4.581-3.27c-0.375,3.912-5.085,5.711-6.221,9.248c-0.166,0.51,2.175,8.422-1.635,8.422
		c-0.102,2.584,1.641,5.895,4.586,5.895c4.78,0,1.565-6.098,8.509-5.24C131.692,359.939,135.105,354.625,132.937,349.783
		C132.937,349.568,134.988,354.357,132.937,349.783z"/>
	<radialGradient id="SVGID_3_" cx="90.9282" cy="237.5215" r="180.1601" gradientUnits="userSpaceOnUse">
		<stop  offset="0" style="stop-color:#FFDE5C"/>
		<stop  offset="0.0583" style="stop-color:#FFD65D"/>
		<stop  offset="0.2342" style="stop-color:#FFC360"/>
		<stop  offset="0.4154" style="stop-color:#FFB862"/>
		<stop  offset="0.6084" style="stop-color:#FFB463"/>
		<stop  offset="1" style="stop-color:#96632A"/>
	</radialGradient>
	<path fill="url(#SVGID_3_)" stroke="#000000" stroke-width="1.2477" stroke-miterlimit="10" d="M182.533,88.096
		c0.342-1.73,1.05-3.295,2.111-4.696c-1.945-3.042-3.741-6.186-5.268-9.459c-4.28-9.167-1.778-25.085-8.889-31.766
		c-6.15-5.782-15.441-6.055-22.181-10.896c-0.943-0.677-13.636-19.036-14.713-8.092c1.297,2.882,0.097,9.596,0.396,8.127
		c-0.83,4.037,0.338,6.531-3.016,7.579c-2.963,2.89-15.887-1.361-18.982-2.62c-0.9,4.905,0.053,10.442-1.308,15.055
		c-4.426-0.555-13.687-2.354-15.541,3.003c-1.899,5.5-3.74,10.833-5.403,16.63c0,2.821-0.654,6.561-0.654,9.818
		c0,5.719-1.68,1.489-3.274,5.888c-3.876,2.541-4.671,7.105-5.786,11.235c-1.189,4.437,2.034,4.158-3.056,5.189
		c-2.31,0.466-3.967,2.16-6.169,2.861c-4.176,1.328-2.21,2.465-2.003,6.917c0.163,3.524,0.102,7.078-0.245,10.591
		c-0.514,5.173-2.381,10.705-4.618,15.394c-1.88,3.946-5.591,7.65-6.344,12.058c-0.785,4.586,5.077,8.891,3.878,14.822
		c-0.889,4.407-11.851,0.868-16.419,3.053c-4.947,2.365-7.956,8.635-9.756,13.531c-4.372,11.911-3.589,26.918-4.224,39.407
		c-0.287,5.674,0.99,12.73,4.39,17.396c3.292,4.516,6.347,11.213,2.574,16.406c-3.007-0.264-4.987-1.555-7.856-1.961
		c2.282,10.189,10.292,22.213,1.631,32.295c-4.303,5.01-9.982,2.797-8.83,11.553c-2.199,2.576-1.315,13.244-1.963,17.021
		c-2.414,1.988-5.666-4.248-8.508,1.307c-3.785,4.205,1.061,10.92-1.31,15.709c0.932,0.875,2.028,1.082,3.292,0.639
		c3.435-0.322,3.086,3.855,3.622,6.492c1.181,5.803,1.787,11.703,2.874,17.521c1.211,6.482,3.542,22.186,12.045,19.254
		c0,1.811,0.403,1.715-0.89,1.254c-1.382,1.672,3.689,9.945,3.273,13.09c0,2.994-5.192,3.787-5.236,4.58
		c0.975,4.844,3.067,9.355,6.202,13.176c3.468,4.227-3.986,7.537,0.342,11.043c3.024,3.258,7.82,1.928,11.512,1.027
		c2.014-0.578,4.069-0.922,6.161-1.027c0.65,0.648,3.035,0.658,3.895,0.658c0-9.07-2.331-13.893,6.293-18.555
		c6.976-3.781,15.583-3.658,22.234,0.436c0.552,0.338,1.583-0.152,1.425-1.709c-0.152-1.561,2.746-12.346,4.921-18.855
		c3.746-11.207,4.939-24.201,5.736-35.934c0-4.014,0.721-7.748,0.584-11.852c-0.238-7.256,0.669-5.133,5.863-8.535
		c3.863-2.535,7.426-5.299,7.587-10.297l0,0l0,0l0,0c0.273-2.096,2.314-10.549,2.984-9.896c0.669,0.654,7.094-0.166,9.697-2.951
		c5.224-5.605,9.735-10.24,4.699-16.455c-5.551-6.857-12.832-11.984-20.017-17.301c-6.453-4.773-6.162-6.713-6.162-14.561
		c0-7.635,9.73-8.836,6.548-17.451c-3.194-8.615,15.055-39.916,18.323-44.512c5.476-3.569,13.169-15.056,20.29-15.056
		c-1.452-12.72,6.842-13.612,11.128-22.25c-0.568-1.495-2.079-2.765-4.201-4.766c-0.064-3.067-4.437-3.249-2.485-6.177
		c2.191-3.303,3.59-7.407,5.519-10.908c1.886-3.421,3.644-6.882,5.583-10.268c1.339-2.341,2.196-5.725,3.997-7.147
		c2.218-1.754,7.254-0.659,9.911-0.659c9.987-1.069,11.214-6.912,4.586-13.738C181.075,95.051,181.659,91.809,182.533,88.096z
		 M112.818,313.666v0.006C112.818,313.672,112.818,313.672,112.818,313.666z"/>
</g>
<path id="Vattern" fill="#536F8C" stroke="#000000" stroke-width="1.2477" stroke-miterlimit="10" d="M60.534,336.518
	c4.214-5.338,2.821-8.473,8.509-11.777c0,1.094,0,2.18,0,3.273c0.487,2.01-1.795,1.26-1.311,3.273
	c1.029,0.064,2.269-0.086,1.966,1.307c-0.847,1.695-1.358,2.059-3.273,1.309c-0.075,2.324-2.418,2.379-1.966,5.24
	c-0.38,4.854-3.205,7.264-4.581,11.121c-1.479,0.27,0.345,3.838-2.618,2.621c0.472-1.998-0.669-2.385-0.653-3.928
	c0.741-2.314,2.027-4.082,1.964-7.201C58.886,339.672,60.63,339.014,60.534,336.518z"/>
<path id="Vanern" fill="#536F8C" stroke="#000000" stroke-width="1.2477" stroke-miterlimit="10" d="M56.195,313.521
	c-0.084,0.031-0.146,0.068-0.233,0.096c0.589-3.744-2.202-5.229-6.544-5.889c-1.423-0.111-0.298,2.32-0.657,3.273
	c-2.797,0.184-1.565-3.668-4.581-3.273c0,0.221,0,0.436,0,0.66c0.766,0.102,0.548,1.189,0.65,1.961
	c-1.422,0.117-2.079-0.535-1.961-1.961c-2.378,4.619,2.288,10.414,0.651,14.396c-2.141-1.195-1.463-2.797-2.618-3.928
	c-5.138-5.047-4.16,2.33-8.09,5.572v3.15c0.627,0.686,1.763,0.867,2.205,1.74c-0.511,0.146-0.763,0.547-0.656,1.309
	c1.701-0.393,2.357,0.262,1.964,1.965c2.785-1.359,3.822-4.469,6.546-5.893c1.203,1.195,0.346,3.664-0.657,4.58
	c0,0.654,0,1.312,0,1.967c4.524-1.576,6.63-6.848,11.128-6.547c-0.11-2.281,1.481-2.861,2.851-3.67v-0.393
	c-1.393-0.533-0.59-1.617,0-2.57V313.521z"/>
<g id="Pin">
	<path opacity="0.5" fill="#1B1B1B" enable-background="new    " d="M54.683,327.91c-2.534-1.881-5.256-1.826-7.758,0.08
		c-3.15,2.4-3.767,5.658-2.02,9.033c1.157,2.24,2.7,4.303,4.565,6.965c0.214,0.537,0.771,0.922,1.414,0.922
		c0.648,0,1.189-0.375,1.414-0.906c1.876-2.73,3.414-4.838,4.577-7.113C58.626,333.467,57.844,330.246,54.683,327.91z"/>
	<path fill="#1B1B1B" d="M53.806,326.617c-2.534-1.875-5.251-1.826-7.759,0.08c-3.144,2.406-3.766,5.658-2.019,9.039
		c1.157,2.24,2.706,4.303,4.57,6.959c0.214,0.541,0.766,0.928,1.415,0.928c0.643,0,1.189-0.381,1.414-0.906
		c1.87-2.738,3.408-4.838,4.575-7.121C57.754,332.172,56.967,328.959,53.806,326.617z"/>
	<path fill="#008BD0" d="M53.092,324.611c-2.539-1.875-5.255-1.826-7.763,0.08c-3.146,2.4-3.762,5.658-2.026,9.035
		c1.168,2.244,2.706,4.307,4.576,6.963c0.215,0.541,0.766,0.928,1.414,0.928c0.643,0,1.189-0.381,1.416-0.904
		c1.87-2.738,3.407-4.844,4.575-7.121C57.03,330.168,56.248,326.959,53.092,324.611z"/>
	<path fill="#1B1B1B" d="M52.25,330.359c0,1.646-1.328,2.98-2.979,2.98c-1.639,0-2.979-1.334-2.979-2.98
		c0-1.643,1.34-2.973,2.979-2.973C50.922,327.387,52.25,328.717,52.25,330.359z"/>
</g>
<g id="Pin_1_">
	<path opacity="0.5" fill="#1B1B1B" enable-background="new    " d="M125.308,279.473c-2.534-1.881-5.255-1.826-7.758,0.08
		c-3.15,2.4-3.767,5.658-2.02,9.033c1.157,2.238,2.7,4.303,4.564,6.965c0.215,0.537,0.772,0.922,1.414,0.922
		c0.648,0,1.189-0.375,1.415-0.906c1.875-2.732,3.412-4.838,4.575-7.113C129.252,285.029,128.469,281.809,125.308,279.473z"/>
	<path fill="#1B1B1B" d="M124.781,278.305c-2.534-1.875-5.25-1.828-7.758,0.08c-3.146,2.406-3.767,5.658-2.02,9.039
		c1.156,2.238,2.705,4.303,4.569,6.959c0.214,0.543,0.767,0.928,1.414,0.928c0.644,0,1.19-0.381,1.415-0.906
		c1.87-2.736,3.407-4.838,4.576-7.121C128.729,283.861,127.942,280.646,124.781,278.305z"/>
	<path fill="#008BD0" d="M124.251,276.799c-2.54-1.875-5.256-1.826-7.764,0.08c-3.145,2.4-3.761,5.658-2.025,9.033
		c1.169,2.246,2.706,4.309,4.575,6.967c0.216,0.539,0.768,0.926,1.416,0.926c0.643,0,1.188-0.381,1.414-0.906
		c1.869-2.738,3.406-4.842,4.575-7.119C128.189,282.355,127.406,279.146,124.251,276.799z"/>
	<path fill="#1B1B1B" d="M123.409,282.549c0,1.645-1.328,2.979-2.979,2.979c-1.639,0-2.979-1.334-2.979-2.979
		c0-1.646,1.341-2.975,2.979-2.975C122.081,279.574,123.409,280.902,123.409,282.549z"/>
</g>
<g id="Pin_2_">
	<path opacity="0.5" fill="#1B1B1B" enable-background="new    " d="M50.724,388.941c-2.534-1.879-5.255-1.826-7.758,0.082
		c-3.15,2.4-3.767,5.658-2.02,9.033c1.158,2.238,2.7,4.301,4.565,6.965c0.215,0.535,0.772,0.922,1.415,0.922
		c0.647,0,1.188-0.375,1.414-0.906c1.875-2.732,3.413-4.838,4.576-7.115C54.668,394.498,53.885,391.277,50.724,388.941z"/>
	<path fill="#1B1B1B" d="M50.073,387.773c-2.534-1.875-5.25-1.826-7.758,0.08c-3.145,2.406-3.767,5.658-2.02,9.039
		c1.157,2.24,2.706,4.303,4.57,6.961c0.214,0.541,0.766,0.926,1.415,0.926c0.643,0,1.189-0.381,1.415-0.906
		c1.87-2.736,3.407-4.838,4.575-7.119C54.022,393.33,53.234,390.115,50.073,387.773z"/>
	<path fill="#008BD0" d="M49.543,386.268c-2.541-1.875-5.256-1.826-7.764,0.082c-3.145,2.4-3.761,5.658-2.025,9.033
		c1.168,2.244,2.706,4.307,4.577,6.965c0.214,0.541,0.766,0.926,1.414,0.926c0.643,0,1.189-0.379,1.414-0.904
		c1.87-2.738,3.408-4.844,4.576-7.121C53.48,391.824,52.698,388.615,49.543,386.268z"/>
	<path fill="#1B1B1B" d="M48.702,392.018c0,1.645-1.329,2.979-2.979,2.979c-1.64,0-2.979-1.334-2.979-2.979s1.339-2.973,2.979-2.973
		C47.373,389.045,48.702,390.373,48.702,392.018z"/>
</g>
<g id="Pin_3_">
	<path opacity="0.5" fill="#1B1B1B" enable-background="new    " d="M148.446,156.77c-2.529-1.88-5.25-1.828-7.758,0.081
		c-3.15,2.399-3.762,5.657-2.015,9.033c1.157,2.239,2.7,4.302,4.564,6.965c0.214,0.535,0.771,0.922,1.414,0.922
		c0.644,0,1.189-0.376,1.415-0.906c1.876-2.733,3.407-4.838,4.576-7.116C152.39,162.326,151.607,159.105,148.446,156.77z"/>
	<path fill="#1B1B1B" d="M147.892,155.601c-2.539-1.875-5.25-1.826-7.758,0.081c-3.15,2.406-3.772,5.658-2.025,9.038
		c1.157,2.24,2.711,4.302,4.575,6.96c0.214,0.542,0.761,0.927,1.415,0.927c0.643,0,1.189-0.38,1.414-0.906
		c1.864-2.737,3.407-4.838,4.576-7.12C151.835,161.157,151.053,157.942,147.892,155.601z"/>
	<path fill="#008BD0" d="M147.139,154.096c-2.539-1.875-5.25-1.828-7.758,0.081c-3.15,2.4-3.76,5.658-2.025,9.033
		c1.169,2.245,2.7,4.307,4.576,6.965c0.215,0.542,0.761,0.927,1.415,0.927c0.643,0,1.188-0.38,1.414-0.906
		c1.864-2.737,3.408-4.843,4.575-7.12C151.083,159.652,150.3,156.442,147.139,154.096z"/>
	<path fill="#1B1B1B" d="M146.303,159.845c0,1.645-1.328,2.979-2.979,2.979c-1.639,0-2.979-1.334-2.979-2.979
		s1.34-2.974,2.979-2.974C144.975,156.871,146.303,158.2,146.303,159.845z"/>
</g>
</svg>
