<?xml version="1.0" encoding="utf-8"?>
<!-- Generator: Adobe Illustrator 16.0.4, SVG Export Plug-In . SVG Version: 6.00 Build 0)  -->
<!DOCTYPE svg PUBLIC "-//W3C//DTD SVG 1.1//EN" "http://www.w3.org/Graphics/SVG/1.1/DTD/svg11.dtd">
<svg version="1.1" id="Layer_1" xmlns="http://www.w3.org/2000/svg" xmlns:xlink="http://www.w3.org/1999/xlink" x="0px" y="0px"
	 width="64px" height="64px" viewBox="0 0 64 64" enable-background="new 0 0 64 64" xml:space="preserve">
<path fill="#FFFFFF" d="M22.805,60.611c-3.449,0-6.729-0.707-7.417-5.787c-0.025-0.078-0.05-0.16-0.075-0.244
	c-2.86-9.891-2.054-25.362-1.319-33.705c0.16-2.292,0.404-4.581,0.722-6.766l0.025-0.189l0.539-6.051
	c-0.11-1.181-0.079-2.47,0.775-3.438c1.076-1.22,2.605-1.22,5.141-1.22c3.574,0,11.567,0.005,11.567,0.005l10.477-0.005
	c2.516,0,4.033,0,5.11,1.185c0.858,0.944,0.91,2.173,0.809,3.378l0.354,4.918c1.785,11.036,1.226,21.863,0.491,32.012
	c0.077,4.414-0.24,7.719-0.969,10.089c-0.708,5.017-3.976,5.715-7.406,5.715h-0.001c-4.297,0-7.006-2.692-7.478-7.399l-0.034-0.086
	l-0.002-0.207c-0.131-0.76-0.281-2.439-0.373-7.353c-0.416-3.224-0.867-6.479-1.301-9.63c-0.072-0.521-0.145-1.043-0.216-1.566
	c-0.081,0.584-0.162,1.166-0.242,1.748c-0.334,2.407-0.667,4.811-0.989,7.224c0.036,4.009-0.192,7.23-0.676,9.58
	c-0.354,4.882-3.152,7.79-7.507,7.792H22.805z"/>
<path d="M28.132,51.584c0.028,3.583-1.234,7.015-5.539,7.016c-3.991,0-5.563-0.984-5.563-6.326c1.611,0,2.07,1.01,5.552,1.068
	C26.267,53.405,26.372,52.338,28.132,51.584z"/>
<path d="M43.021,5.223c-3.492,0-6.984,0.003-10.477,0.004c0,0-7.992-0.004-11.565-0.004c-4.284,0-4.284,0.001-3.64,4.593
	c4.728,0,15.205,0.477,15.205,0.477c4.7-0.016,9.391-0.477,14.117-0.477C47.305,5.224,47.305,5.223,43.021,5.223z"/>
<path d="M35.869,51.482c-0.029,3.584,1.233,7.016,5.539,7.016c3.99,0,5.563-0.984,5.563-6.326c-1.61,0-2.07,1.01-5.552,1.068
	C37.733,53.303,37.629,52.236,35.869,51.482z"/>
<path d="M47.104,11.751c-0.918-0.058-1.654-0.144-2.393-0.144c-2.127-0.002-5.832,0.524-13.011,0.574
	c-6.018,0.042-10.507-0.475-12.411-0.473c-0.737,0-1.474,0.086-2.392,0.144c-1.991,11.184-1.463,21.959-0.671,32.899
	c0.06,0.833,0.196,1.662,0.244,2.496c0.209,3.611,2.293,4.543,5.97,4.66c1.759,0.057,5.289-0.613,5.715-4.07
	c0.818-6.631,1.78-13.098,2.659-19.721c0.066-0.493,0.285-0.967,0.886-1.482v-0.083h0.621c0.584,0.508,0.8,0.976,0.864,1.463
	c0.879,6.624,1.842,13.091,2.659,19.722c0.427,3.457,3.956,4.127,5.716,4.07c3.677-0.117,5.761-1.049,5.97-4.66
	c0.048-0.834,0.185-1.663,0.245-2.497C48.566,33.71,49.095,22.935,47.104,11.751z"/>
</svg>
