<?xml version="1.0" encoding="utf-8"?>
<!-- Generator: Adobe Illustrator 16.0.4, SVG Export Plug-In . SVG Version: 6.00 Build 0)  -->
<!DOCTYPE svg PUBLIC "-//W3C//DTD SVG 1.1//EN" "http://www.w3.org/Graphics/SVG/1.1/DTD/svg11.dtd">
<svg version="1.1" id="Layer_1" xmlns="http://www.w3.org/2000/svg" xmlns:xlink="http://www.w3.org/1999/xlink" x="0px" y="0px"
	 width="24px" height="24px" viewBox="0 0 24 24" enable-background="new 0 0 24 24" xml:space="preserve">
<g opacity="0.5">
	<path fill-rule="evenodd" clip-rule="evenodd" fill="#171717" d="M20.681,4.547H1.671c-0.729,0-1.321,0.591-1.321,1.321v12.79
		c0,0.729,0.592,1.32,1.321,1.32h19.009c0.73,0,1.32-0.592,1.32-1.32V5.868C22.001,5.139,21.411,4.547,20.681,4.547z M20.411,17.307
		c0,0.66-0.535,1.197-1.197,1.197H3.119c-0.661,0-1.197-0.535-1.197-1.195L1.911,7.106c0-0.661,0.536-1.197,1.197-1.197h16.106
		c0.662,0,1.197,0.536,1.197,1.197V17.307z"/>
	<path fill-rule="evenodd" clip-rule="evenodd" fill="#171717" d="M7.932,19.24v0.893c0,0.496,0.402,0.898,0.898,0.898h4.692
		c0.496,0,0.898-0.402,0.898-0.898V19.24H7.932z"/>
	<path fill="#171717" d="M11.176,6.62c-3.117,0-5.643,2.526-5.643,5.644c0,3.116,2.526,5.643,5.643,5.643
		c3.116,0,5.643-2.527,5.643-5.643C16.819,9.146,14.292,6.62,11.176,6.62z M11.197,16.668c-2.445,0-4.427-1.98-4.427-4.426
		s1.981-4.426,4.427-4.426c2.444,0,4.427,1.98,4.427,4.426S13.642,16.668,11.197,16.668z"/>
	<polygon fill="#171717" points="9.528,9.872 13.669,12.263 9.528,14.654 	"/>
</g>
<g>
	<path fill-rule="evenodd" clip-rule="evenodd" fill="#171717" d="M21.259,3.652H2.249c-0.729,0-1.321,0.591-1.321,1.321v12.789
		c0,0.73,0.592,1.322,1.321,1.322h19.01c0.729,0,1.32-0.592,1.32-1.322V4.973C22.579,4.244,21.987,3.652,21.259,3.652z
		 M20.987,16.412c0,0.66-0.535,1.195-1.197,1.195L3.696,17.609c-0.661,0-1.197-0.537-1.197-1.197L2.488,6.211
		c0-0.661,0.536-1.197,1.197-1.197H19.79c0.662,0,1.197,0.536,1.197,1.197V16.412z"/>
	<path fill-rule="evenodd" clip-rule="evenodd" fill="#171717" d="M8.509,18.344v0.893c0,0.496,0.402,0.898,0.898,0.898h4.691
		c0.496,0,0.898-0.402,0.898-0.898v-0.893H8.509z"/>
	<path fill="#171717" d="M11.753,5.725c-3.117,0-5.643,2.526-5.643,5.644c0,3.116,2.526,5.642,5.643,5.642s5.644-2.525,5.644-5.642
		C17.397,8.251,14.87,5.725,11.753,5.725z M11.774,15.773c-2.445,0-4.427-1.982-4.427-4.426c0-2.445,1.981-4.426,4.427-4.426
		S16.2,8.902,16.2,11.348C16.2,13.791,14.22,15.773,11.774,15.773z"/>
	<polygon fill="#171717" points="10.105,8.977 14.247,11.368 10.105,13.76 	"/>
</g>
<g>
	<path fill-rule="evenodd" clip-rule="evenodd" fill="#FFFFFF" d="M22.329,2.969H3.319c-0.729,0-1.321,0.591-1.321,1.321v12.79
		c0,0.729,0.592,1.32,1.321,1.32h19.01c0.729,0,1.32-0.592,1.32-1.32V4.29C23.649,3.561,23.058,2.969,22.329,2.969z M22.058,15.729
		c0,0.66-0.535,1.197-1.197,1.197H4.767c-0.661,0-1.197-0.535-1.197-1.195L3.559,5.528c0-0.661,0.536-1.197,1.197-1.197H20.86
		c0.662,0,1.197,0.536,1.197,1.197V15.729z"/>
	<path fill-rule="evenodd" clip-rule="evenodd" fill="#FFFFFF" d="M9.58,17.662v0.893c0,0.496,0.402,0.898,0.898,0.898h4.69
		c0.496,0,0.898-0.402,0.898-0.898v-0.893H9.58z"/>
	<path fill="#FFFFFF" d="M12.823,5.042c-3.116,0-5.642,2.526-5.642,5.644c0,3.116,2.526,5.643,5.642,5.643
		c3.117,0,5.645-2.527,5.645-5.643C18.468,7.568,15.94,5.042,12.823,5.042z M12.845,15.09c-2.445,0-4.426-1.98-4.426-4.425
		c0-2.445,1.981-4.426,4.426-4.426c2.445,0,4.428,1.981,4.428,4.426C17.272,13.109,15.29,15.09,12.845,15.09z"/>
	<polygon fill="#FFFFFF" points="11.176,8.293 15.317,10.685 11.176,13.076 	"/>
</g>
</svg>
