<?xml version="1.0" encoding="utf-8"?>
<!-- Generator: Adobe Illustrator 16.0.4, SVG Export Plug-In . SVG Version: 6.00 Build 0)  -->
<!DOCTYPE svg PUBLIC "-//W3C//DTD SVG 1.1//EN" "http://www.w3.org/Graphics/SVG/1.1/DTD/svg11.dtd">
<svg version="1.1" id="Layer_1" xmlns="http://www.w3.org/2000/svg" xmlns:xlink="http://www.w3.org/1999/xlink" x="0px" y="0px"
	 width="320px" height="200px" viewBox="0 0 320 200" enable-background="new 0 0 320 200" xml:space="preserve">
<g>
	<path fill="#A21F00" d="M160.03,48.97c-24.485,0-44.333,19.849-44.333,44.333c0,24.485,19.849,44.333,44.333,44.333
		c24.483,0,44.331-19.848,44.331-44.333C204.361,68.819,184.514,48.97,160.03,48.97z M160.03,134.965
		c-23.008,0-41.66-18.652-41.66-41.661c0-23.008,18.652-41.66,41.66-41.66c23.007,0,41.659,18.652,41.659,41.66
		C201.689,116.312,183.037,134.965,160.03,134.965z"/>
	<polygon fill="#A21F00" points="144.992,74.426 183.99,93.61 144.992,112.793 	"/>
</g>
<g>
	<path fill="#202020" d="M317.109,195.812c0.084,0.534,0.274,0.232,0.236-1.24l-0.323-1.047L317.109,195.812z"/>
	<path fill="#202020" d="M317.707,185.9c-0.157-1.731-0.432-3.729-0.728-2.607c0.31,1.715,0.181,2.131,0.55,3.978
		c0.037,1.476-0.104,2.573-0.223,2.325c0.083,0.521-0.07,2.29,0.132,3.083c0.25-1.918,0.26-4.348,0.054-6.886
		C317.562,185.248,317.647,185.776,317.707,185.9z"/>
	<path fill="#202020" d="M318.21,41.873l-0.038,0.928C318.192,42.547,318.204,42.229,318.21,41.873z"/>
	<path fill="#202020" d="M267.74,2.021c0.68-0.007,0.963-0.04,0.998-0.069C268.107,1.973,267.589,1.993,267.74,2.021z"/>
	<path fill="#202020" d="M252.505,1.665c0.326,0.008,0.602,0.015,0.897,0.022C253.061,1.657,252.715,1.641,252.505,1.665z"/>
	<path fill="#202020" d="M318.21,41.873l0.101-2.384C318.206,39.321,318.233,40.71,318.21,41.873z"/>
	<path fill="#202020" d="M316.929,166.039c0.016,0.499,0.046,0.915,0.085,1.295c-0.012-0.41-0.023-0.807-0.034-1.216
		C316.962,166.096,316.946,166.077,316.929,166.039z"/>
	<path fill="#202020" d="M318.472,81.212v0.726c0.037,0.213,0.081,0.413,0.131,0.601L318.472,81.212z"/>
	<path fill="#202020" d="M318.521,111.399c0.012-0.683-0.262-0.92-0.381-1.182c0.112,0.386,0.166,0.891,0.188,1.489
		C318.379,111.718,318.44,111.629,318.521,111.399z"/>
	<path fill="#202020" d="M318.039,159.272l0.037,0.85C318.066,159.9,318.05,159.529,318.039,159.272z"/>
	<path fill="#202020" d="M318.53,59.604c0.041-0.051,0.077-0.159,0.098-0.275C318.594,59.328,318.562,59.436,318.53,59.604z"/>
	<path fill="#202020" d="M282.761,194.526c-0.021,0.02,0.011,0.032,0.005,0.049C282.944,194.548,282.998,194.528,282.761,194.526z"
		/>
	<path fill="#202020" d="M317.758,195.883l-0.485,0.015c-0.049,0.053-0.103,0.104-0.103,0.153L317.758,195.883z"/>
	<path fill="#202020" d="M224.619,1.314c0.055,0.002,0.073,0.003,0.124,0.005C225.478,1.288,225.062,1.293,224.619,1.314z"/>
	<path fill="#202020" d="M1.969,37.114c0.245-2.896,0.314,4.726,0.586,0.356C2.448,37.88,2.128,33.5,1.969,37.114z"/>
	<path fill="#202020" d="M316.965,165.258c-0.001-0.408-0.002-0.823-0.003-1.238C316.953,164.583,316.954,164.963,316.965,165.258z"
		/>
	<path fill="#202020" d="M2.555,37.47h0.002l0.025-0.453C2.571,37.206,2.565,37.308,2.555,37.47z"/>
	<path fill="#202020" d="M160.367,1.479c0.135,0.048,0.388,0.085,0.658,0.12C161.004,1.57,160.853,1.536,160.367,1.479z"/>
	<path fill="#202020" d="M208.234,1.868l-1.184-0.036C207.521,1.857,207.9,1.865,208.234,1.868z"/>
	<path fill="#202020" d="M135.521,1.865c-0.647-0.021-0.863-0.059-1.748-0.021c0.087,0.011,0.162,0.02,0.27,0.033
		C134.362,1.839,134.788,1.822,135.521,1.865z"/>
	<path fill="#202020" d="M109.651,1.867c0.141,0.017,0.318,0.037,0.475,0.055c0.259-0.004,0.561-0.01,0.82-0.015L109.651,1.867z"/>
	<path fill="#202020" d="M204.151,194.658c0.566,0.077,0.923,0.162,1.192,0.246C204.944,194.71,208.747,194.641,204.151,194.658z"/>
	<path fill="#202020" d="M317.083,166.026c-0.069-0.151-0.104-0.372-0.118-0.769c0.005,0.296,0.01,0.582,0.015,0.86
		C317.02,166.193,317.059,166.209,317.083,166.026z"/>
	<path fill="#202020" d="M134.464,4.027l-4.11-0.041C131.508,4.013,132.997,4.027,134.464,4.027z"/>
	<path fill="#202020" d="M18.577,194.697l0.949-0.033C19.159,194.658,18.825,194.666,18.577,194.697z"/>
	<path fill="#202020" d="M118.163,4.027c-0.733-0.097-1.51-0.153-2.319-0.189c-0.167,0.021-0.361,0.039-0.475,0.07L118.163,4.027z"
		/>
	<path fill="#202020" d="M205.354,194.907c-0.011-0.001-0.011-0.003-0.011-0.003S205.344,194.906,205.354,194.907z"/>
	<path fill="#202020" d="M232.422,194.257c-3.916-0.008-1.834,0.353-2.664,0.559c-4.677,0.103-2.169-0.265-3.755-0.449
		c-2.923,0.096-5.156,0.426-7.336,0.412c-0.161-0.06-0.582-0.081-0.086-0.155c-3.086,0.286-9.159,0.014-12.757,0.374
		c-0.265-0.032-0.405-0.062-0.47-0.09c0.583,0.181,0.669,0.363,0.55,0.494c-1.753,0.007-3.258,0.228-3.916-0.008
		c1.079,0.007,1.165-0.088,1.673-0.162l-1.845,0.104c-1.651-0.339,2.514-0.117,2.514-0.368c-3.588,0.109-7.768,0.39-10.519,0.295
		c-0.572-0.332,6.43-0.112,2.762-0.406l4.25,0.127c-3.247-0.522,2.59,0.036-0.399-0.522c-5.599-0.096-6.257,0.168-11.845,0.072
		c-1.252,0.184,0.42,0.271-0.842,0.456c-7.93,0.33-6.246-0.832-12.077-0.392c-1.511,0.221-2.099,0.64-6.252,0.418l1.418-0.374
		c-5.421-0.037-3.091,0.538-8.765,0.285c1.003-0.146,4.256-0.123,3.436-0.168c-3.673-0.295-2.6,0.212-5.426,0.212l-0.588-0.331
		c-5.766,0.109-12.122,0.23-18.513,0.353c0.356-0.1,1.451-0.203-0.043-0.304c-8.059,0.165-17.202-0.041-24.975-0.237l-2.966,0.286
		c-0.691-0.003-1.284-0.129-0.54-0.186c-3.026-0.108-0.151,0.183-1.607,0.295c-1.726,0.02-2.276-0.165-1.187-0.251
		c-5.345,0.243-15.228,0.522-20.859,0.217l1.095-0.085c-4.38-0.116-4.946,0.586-9.014,0.319l0.782-0.051
		c-9.521-0.124-20.039,0.138-27.305-0.294c-1.381,0.412-9.418-0.184-10.033,0.391c-5.432-0.284-3.873-0.388-11.533-0.578
		c-2.039-0.027-3.042,0.358-5.572,0.418l-0.06-0.3l-3.431,0.314l-1.829-0.358l-2.368,0.076c0.939,0.019,2.007,0.136,1.861,0.223
		c-1.853,0.067-4.109,0.015-5.914-0.073c-1.805-0.089-3.159-0.214-3.208-0.291c0,0-2.19,0.063-4.38,0.127
		c-1.095,0.032-2.19,0.063-3.012,0.088c-0.263,0.006-0.24,0.011-0.315,0.016c-0.057,0.005-0.107,0.01-0.148,0.013
		c-0.085,0.007-0.134,0.011-0.134,0.011c0.08-0.06,0.231-0.101,0.371-0.136c-0.014-0.009,0.203-0.018,0.33-0.025
		c0.146-0.008,0.297-0.017,0.449-0.024c0.304-0.019,0.614-0.036,0.906-0.054c-0.444,0.025-0.812,0.047-1.116,0.064
		c-0.242,0.009-0.434,0.017-0.587,0.022c-0.098,0.004-0.141-0.014-0.151-0.039c-0.019-0.051,0.052-0.136,0.007-0.154
		c0.006-0.025,0.005-0.048-0.006-0.081c-0.007-0.018-0.015-0.038-0.024-0.062l-0.018-0.046c-0.007-0.104-0.015-0.216-0.023-0.334
		c-0.068,0.571-0.179-0.312-0.24-0.41c0.182-2.136,0.183-7.001,0.106-10.594l0.207,0.69c0.053-6.5-0.099-13.701-0.095-20.994
		c-0.096,2.616-0.455,2.018-0.49-0.124l0.317-0.857c-0.196-1.381-0.12,2.232-0.36-0.599c0.036-2.725,0.361-1.829,0.464-0.265
		l-0.11-3.312c0.095-0.193,0.145,0.583,0.266,0.782c-0.197-1.359,0.319-5.718-0.024-7.676l0.094-0.188
		c0.003-7.288-0.106-10.6-0.122-16.533c-0.274-0.118-0.213-2.438-0.435-4.207c0.087-4.37,0.303-9.214,0.279-14.468
		c-0.137-3.7-0.232-1.078-0.395-2.74c0.25-0.274,0.226-5.523,0.405-2.805c-0.04-6.312-0.05-8.058-0.252-16.038
		c-0.102,0.868-0.146,1.845-0.231,1.337c-0.042-1.445,0.105-3.296,0.225-3.085l0.026,0.378c-0.375-8.955,0.728-20.676,0.208-27.812
		l0.025,0.399L4.01,57.391c0.043-3.404,0.188,2.044,0.342-0.48c-0.416-7.978,0.061-12.606-0.217-19.182
		c0.737-5.082-0.051-18.049,0.419-24.916L4.38,13.207c-0.17-1.769,0.1-2.147,0.139-3.452c-0.135,0.184-0.156,1.926-0.25,0.82
		C4.251,8.335,4.234,6.071,4.216,3.763c2.79,0.017,5.608,0.035,8.442,0.052c3.208,0.043,6.433,0.086,9.662,0.129
		c6.458,0.094,12.929,0.189,19.301,0.282c5.632,0.046,3.193-0.897,10.303-0.483l-2.018,0.322c11.376-0.387,23.26,0.013,34.398-0.314
		c-0.664,0.074-0.685,0.17-1.769,0.169c2.352,0.234,8.701,0.012,8.738-0.18c1.731,0.022,0.405,0.173,1.473,0.271
		c2.357,0.138,5.923-0.299,7.174-0.066c0.216,0.038-0.664,0.076-1.095,0.094c1.538-0.113,7.164,0.029,5.691-0.241
		c4.181,0.128,7.994-0.12,11.328,0.04c2.179-0.302,7.158,0.145,7.849-0.282c-0.297,0.44,7.331,0.355,9.974,0.148
		c-0.885,0.133,2.298,0.138,1.262,0.323c3.01-0.007,5.777-0.088,5.254-0.315c5.556,0.527,11.166-0.425,14.294,0.251
		c8.96-0.237,17.251-0.397,25.31-0.5c-0.291,0.439-8.911,0.044-8.566,0.505c7.649-0.181,12.062-0.558,19.641-0.453
		c1.964,0.06-1.114,0.191-1.777,0.266c7.638-0.181,14.77,0.04,21.565-0.199c-0.019,0.041-0.752,0.085-1.445,0.119
		c1.341-0.014,3.115,0.065,2.964-0.135l-1.306,0.055c-2.139-0.291,5.319-0.606,5.56-0.759c-2.274,0.573,6.713,0.144,3.102,0.868
		c0.882-0.038,1.987-0.132,1.785-0.266c1.308,0.039,1.724,0.117,0.396,0.269c4.798-0.109,3.094-0.321,7.441-0.316
		c-0.017,0.096-0.893,0.134-1.344,0.248c2.201-0.188,4.413-0.377,8.086-0.295c-0.221,0.059,0.205,0.134-0.89,0.133
		c6.309-0.029,10.753-0.502,17.674-0.32c-2.042,0.42,2.354,0.139,2.722,0.502l3.722-0.108l-1.494-0.176
		c3.261,0.006,6.141-0.259,8.943-0.14l-2.422,0.15l6.108-0.069l-3.457-0.138c3.298-0.188-0.354-0.46,3.986-0.359
		c-0.882,0.037,3.261,0.004,4.96,0.219c0,0-0.011,0-0.011,0.001c1.612-0.116,3.271-0.238,5.683-0.147
		c0.625,0.116-0.505,0.402-0.098,0.48c1.592-0.305,7.636-0.085,9.65-0.408c-0.672,0.076-0.707,0.266-0.485,0.305l1.335-0.247
		c1.511,0.079,1.731,0.117,1.486,0.27c4.542,0.045-1.443-0.461,3.948-0.263c-0.424,0.02-0.221,0.057-1.104,0.094
		c5.416,0.104,10.462-0.157,15.438-0.035c1.467,0.366-4.348,0.09-2.667,0.398c1.445-0.023,2.911-0.047,4.389-0.071
		c0.738-0.018,1.479-0.035,2.222-0.052l0.907-0.028l0.643-0.028l0.042,0.971l0.04,1.648c0.022,1.098,0.045,2.191,0.066,3.276
		c0.036,2.171,0.051,4.309,0.025,6.381l0.04-1.294c0.517,0.963-0.255,5.17-0.011,8.682c-0.039-0.86-0.288-1.127-0.229-0.896
		c-0.084,4.755,0.126,9.72,0.289,16.924l-0.133-0.893c-0.118,2.802-0.068,7.379-0.129,10.405c0.133,0.898,0.111,2.629,0.305,1.578
		c-0.757,9.332,0.405,17.801-0.225,26.081c-0.002-0.99-0.116-2.36-0.117-1.572l0.123,7.053c0.225-0.558,0.136-0.925,0.311-2.406
		c0.134,0.893,0.237,2.883,0.237,4.631c-0.149-3.171-0.361,0.027-0.487,1.397c0.069-0.229,0.146,0.24,0.216,0.124
		c-0.401,3.684,0.453,0.618,0.183,5.647l-0.117-0.267c0.06,1.883,0.216,3.617,0.183,5.648c-0.261,0.841-0.122-2.004-0.336-2.134
		c0.015,2.851,0.493,5.626,0.233,8.203c-0.042-1.21-0.104-2.948-0.146-4.16c-0.307,2.81-0.229,3.135-0.276,5.221l0.006-0.205
		l-0.138,4.828l0.083-1.23c0.679,3.568,0.124,7.266,0.568,12.072c-0.421-4.671-0.243-0.771-0.538-1.13
		c-0.083,1.227-0.174,3.094-0.257,2.562c0.238,2.271-0.188,3.792,0.16,6.998c-0.095,0.144-0.01,2.431-0.248,1.918
		c0.074,2.953,0.165-0.698,0.285-0.45c0.324,4.553-0.395,10.702,0.051,17.25c0.184,5.648,0.505,6.691,0.664,11.933
		c-0.152,1.769-0.347-1.449-0.347-1.449c-0.14,2.854-0.114,5.001-0.005,7.689c-0.083-0.545-0.153,0.017-0.26,0.837
		c0.024,2.157,0.346,1.442,0.205,4.288c-0.105-0.488-0.274-1.114-0.381-2.155c0.115,2.542,0.23,5.056,0.351,7.687
		c-0.166,0.699-0.251-1.588-0.359-2.517c0.074,2.959,0.15,7.666,0.412,8.58l0.093-1.899c0.014,1.079-0.225,0.556-0.272-0.239
		c-0.205-2.535,0.091-3.657,0.187-3.801l0.061,1.875c0.558-1.926-0.09-7.53-0.057-11.304l0.405,1.572l-0.336-3.87
		c0.105-0.822,0.331-1.387,0.392,0.478c0.201-2.705-0.144-2.396,0.08-4.72c0.034-0.257,0.054-0.141,0.07,0.097l-0.121-2.644
		c0.085,0.519,0.286-0.439,0.228,1.185c0.234-4.744-0.304-7.651,0.003-9.438l0.025,0.396c-0.138-6.583-0.298-0.636-0.647-5.574
		l0.734-3.323l-0.298-0.647c0.011-0.68,0.033-2.022,0.152-1.774c-0.203-2.527-0.129,0.432-0.321-1.035
		c0.271-3.27-0.127-9.014,0.347-9.75c-0.226-1.174-0.174,3.126-0.332-0.364c0.511-0.995-0.087-4.035,0.146-7.021
		c0.264,0.917,0.124,3.746,0.359,0.758c-0.444-1.802,0.098-5.815,0.013-8.334c-0.354-0.119-0.148-5.478-0.266-9.704
		c0.118,0.267,0.193-7.95,0.322-11.882l0.059,0.116c-0.357-0.761-0.29-4.817-0.363-7.771c0.214,0.116,0.298,0.647,0.395,2.247
		l-0.002-2.775c-0.114-0.656-0.176-1.521-0.217-3.323l0.268,0.698c-0.014-3.695-0.314-7.441-0.136-12.196
		c-0.249-0.267-0.695,3.782-0.861-1.246c0.135-0.187,0.365-0.373,0.421,0.944c-0.018-0.432-0.112-1.538-0.055-2.406l0.227,2.009
		c0.1-2.166-0.189-1.133-0.168-2.864c0.192,0.035,0.137-1.281,0.29-1.033c0.019,0.442-0.08,1.51-0.004,2.174
		c0.034-1.953,0.148-4.312,0.294-5.092c-0.109,0.17-0.259,0-0.284-1.43c-0.014-3.695,0.231-1.265,0.331-3.42
		c-0.135-0.896,0.005-3.252-0.283-3.314c0.001-1.082,0.136-1.281,0.214-1.699c-0.127-1.912-0.036-8.933-0.343-6.778l-0.021,0.491
		c-0.003-0.092-0.008-0.199-0.012-0.312c0,0.016,0,0,0,0.016v-0.016c-0.287-6.268,0.162-13.021,0.04-19.241l0.096,0.011
		c-0.11-3.714-0.065-8.264-0.272-10.915c0-1.098,0.177-2.592,0.291-2.123c-0.044-1.418-0.068-2.208-0.098-3.154
		c-0.009-0.473-0.009-0.986,0.002-1.637c0.02-0.702,0.043-1.553,0.073-2.66c0.042,0.992,0.072,1.185,0.094,1.307
		c0.021,0.103,0.034,0.013,0.041-0.045c0.013-0.114,0.002-0.097-0.012,1.857c0.051-2.045,0.082-3.355,0.113-4.635
		c-0.46-0.002-0.917-0.005-1.392-0.008c-0.419,0.005-0.854,0.01-1.323,0.016c-0.728,0.02-1.562,0.061-2.619,0.131
		c1.349-0.247-2.775-0.311-4.528-0.236l2.584,0.176c-1.972,0.036-3.695,0.014-5.445-0.007l0.946-0.324
		c-7.546-0.394-13.609,0.671-19.354,0.011c-1.996,0.227,4.099,0.16,2.313,0.424c-3.471-0.043-7.088-0.509-8.175-0.51
		c-4.755-0.18-4.437,0.474-9.413,0.351c0.637,0.115,1.238,0.424-2.48,0.533c-3.475-0.042-4.27-0.485-2.077-0.578
		c0.833-0.009,1.235,0.027,1.2,0.066c1.122-0.042,2.595-0.092,1.219-0.217l-0.45,0.116c-1.724-0.118-6.503-0.105-5.381-0.295
		c-2.624,0.11-1.122,0.19,0.823,0.25c-4.456-0.167-6.962-0.005-11.547-0.118c0.729,0.064,1.4,0.199,0.675,0.198
		c-6.727-0.143-2.962,0.22-7.52,0.271c-2.589-0.177,0.928-0.421-3.66-0.273c-2.802-0.12-0.593-0.308,0.521-0.402
		c-4.181,0.223-7.811-0.146-10.197-0.188l2.2-0.093c-1.315,0.056-2.395,0.054-3.492,0.053l1.257,0.231
		c-1.292-0.04-2.387-0.041-2.362-0.137c-1.333,0.151,1.02,0.385-1.624,0.592c-1.724-0.118-5.249,0.126-5.845-0.181
		c5.421,0.104-0.599-0.308,3.989-0.358c-0.885,0.036-1.964,0.035-3.261-0.005c-0.194-0.035,0.184-0.064,0.536-0.081
		c-5.187-0.274-2.384,0.347-7.759,0.34c0.682-0.173-1.246-0.329-2.123-0.292c2.166,0.004,1.036,0.289-0.952,0.421
		c-3.446-0.135-3.746,0.1-5.551,0.084l2.061,0.064c-0.698,0.173-2.422,0.15-4.824,0.205c-0.205-0.135,2.182-0.093,1.324-0.152
		c-2.668,0.305-6.028-0.314-9.748-0.109c-1.723-0.118-0.167-0.326-1.68-0.404c-4.17,0.224-4.515-0.237-8.897-0.052
		c1.262,0.233,1.483,0.176-1.603,0.402l7.204-0.164l-4.623,0.338c2.174,0.003,4.588-0.146,5.891-0.107
		c-2.203,0.19-1.977,0.132-0.936,0.325c-2.976-0.349-5.898,0.203-9.338-0.032l0.108-0.576c-5.173-0.257-9.191,0.295-15.902,0.15
		l2.158,0.1c-0.901,0.229-4.144,0.032-6.322,0.125c0.205-0.192-1.154-0.262-2.082-0.381c0.113,0.143-4.914-0.014-5.524,0.371
		l-2.999-0.254c-5.416-0.104-6.182,0.548-11.393,0.483c1.564-0.209-0.798-0.346,2.687-0.496c-1.737-0.002-3.301-0.037-3.328,0.096
		c-1.02-0.121-4.828,0.259-6.425,0.077c-0.733,0.084-0.971,0.286-2.923,0.27c-0.216-0.039,0.005-0.095,0.005-0.095
		c-0.005,0.095-3.059,0.13-1.354,0.342c-5.356-0.6-14.974,0.043-19.646-0.472c-3.797,0.064-8.372,0.126-11.813,0.14
		c0.216-0.057,0.011-0.096,0.658-0.076c-4.752-0.179-2.923,0.552-8.328,0.353c-2.768-0.311,2.87-0.168,1.144-0.286
		C91.042,1.42,85.259,2.14,81.618,1.771l0.879-0.037c-2.783-0.215-6.786,0.24-11.338,0.194c0,0,0.227-0.056,0.032-0.095
		c-3.112,0.323-8.997,0.429-13.377,0.519c1.365-0.248,1.991-0.131,1.16-0.383c-1.958,0.036,0.577,0.404-3.339,0.475
		c-1.273-0.136-4.1-0.254-4.472-0.522l3.695-0.015c-1.893-0.348-4.779,0.012-6.727-0.048l0.249-0.152
		c-5.659,0.049-5.734,0.432-11.819,0.404l0.626,0.115c-3.323,0.379-2.784-0.213-6.096,0.069l-1.003-0.385
		c-2.195,0.093-7.681,0.372-11.619,0.444c2.233-0.285,6.829-0.431,9.677-0.601c-2.168-0.002-7.384,0.028-8.517,0.218
		c0.879-0.037,1.979-0.131,2.843-0.072C19.806,2.201,16.3,2.35,11.963,2.343c0.252-0.244-0.867-0.348-2.598-0.398
		C8.5,1.931,7.482,1.916,6.407,1.899C5.078,1.89,3.677,1.88,2.323,1.87c-0.01,0.848-0.021,1.681-0.03,2.477
		C2.274,4.893,2.256,5.415,2.24,5.897c-0.045,0.965-0.111,1.776-0.211,2.32c0.276,7.666-0.118,15.201-0.073,24.128
		c0.58-3.167,0.016,2.605,0.612,2.061c0.038,2.077,0.029,2.87-0.01,3.053L2.202,43.76c-0.174,1.5-0.131-1.975-0.265-1.78
		c-0.046,4.553-0.253,1.91-0.411,4.919c0.213-0.615,0.306,1.586,0.224,4.175l0.274-3.652c0.317,6.359-0.5,5.497-0.186,11.916
		L1.651,57.31c0.11,3.291-0.004,12.137,0.475,15.363c-0.069,0.583-0.232,1.348-0.275-0.097C1.779,80.44,2.36,90.084,2.065,96.191
		L1.92,95.597c0.042,1.467,0.273,2.557,0.127,4.391c-0.06-0.097-0.146-0.593-0.154,0.086c0.051,0.776,0.256,3.896,0.17,5.843
		l-0.164-1.661c-0.191,7.67,0.399,11.77,0.499,18.199c-0.429-0.011-0.568,6.021-0.638,9.035l-0.06-0.103
		c-0.053,8.933,0.355,15.169,0.524,23.443c-0.466,5.135-0.195,17.391-0.456,25.644c0.078-1.262,0.334,0.205,0.377,1.673
		c-0.087,1.941,0.298,5.355-0.096,5.049l0.007-0.69c-0.193,0.728-0.264,2.087-0.288,3.652c-0.001,1.788-0.004,3.811-0.006,5.584
		c0,0,0.129,0.175,0.257,0.303c0.128,0.134,0.257,0.22,0.257,0.22c-0.007,0.126-0.014,0.253-0.021,0.393
		c1.284,0.061,2.659,0.125,4.096,0.192c1.142,0.041,2.332,0.062,3.546,0.071c2.428,0.017,4.947-0.021,7.351-0.061
		c4.806-0.077,9.144-0.161,11.34,0.171c1.963-0.128,4.391-0.127,6.338-0.256l-0.103,0.276c5.432,0.07,8.146,0.105,14.866,0.039
		l-1.37,0.197c3.787,0.019,4.779-0.795,8.275-0.812l1.057,0.411c6.608-0.006,13.302,0.355,19.829-0.019
		c-0.108,0.062-0.302,0.181-1.37,0.196c3.112,0.011,12.04,0.279,10.907-0.286c0.076,0.368,6.818,0.036,10.389-0.126l-0.55,0.271
		c3.01-0.348,3.107-0.442,7.314-0.538c0.998,0.035,0.874,0.218-0.453,0.147c3.323,0.143,2.589-0.257,6.624-0.112l-1.505,0.174
		c3.42,0.021,3.145-0.072,5.033-0.274c2.147-0.109,6.484,0.068,6.991,0.314c0.458-0.15,2.331-0.351,4.348-0.279
		c0.27,0.093-0.464,0.15-0.831,0.178c5.718,0.185,8.501-0.315,12.428-0.049c0.086,0.09,0.34,0.135,0.669,0.162
		c-4.542-0.006-8.199-0.021-7.859-0.041c0,0.25,3.668,0.295,0.75,0.64c2.945-0.188,7.983-0.599,11.554-0.48
		c0.172,0.024,0.345,0.048,0.475,0.086l-0.367,0.028c0.82,0.024,1.564,0.002,2.254-0.04c1.144,0.041,1.867,0.071,2.967,0.075
		c0.421,0.207,4.208,0.111,6.031,0.121c-0.151-0.273,2.244-0.229,0-0.455c0.292,0.02-0.345,0.032-1.559,0.044
		c-0.275,0.008-0.599,0.012-0.782,0.028c0.038-0.008,0.081-0.016,0.129-0.024c-1.203,0.005-2.772,0.011-4.553,0.019
		c1.446-0.14,2.956-0.257,4.984-0.104c0.938-0.176,1.969-0.356,2.551-0.442c2.503,0.383,7.331,0.589,8,0.824
		c5.588-0.153,13.161-0.101,16.667-0.616c1.592-0.065,1.829,0.147,2.423,0.229c-0.917,0.052-2.007,0.044-2.503,0.118
		c3.177-0.132,9.407-0.051,10.168-0.411c4.002,0.163-2.255,0.331,3.247,0.272l-0.744,0.11c10.82,0.574,17.59-0.918,29.581-0.181
		c-0.831-0.045-1.24-0.065-1.413-0.126c13.674,0.325,28.179-0.306,41.675,0.21c3.83,0.104,4.251-0.125,6.592-0.3l0.831,0.295
		l4.002-0.34c5.675-0.249,9.828,0.722,17.014,0.252l-0.928-0.198c2.578,0.037,8.172-0.117,7.74,0.11
		c0.265-0.036,0.847-0.205,1.855-0.103l0.081,0.154l6.333-0.264c4.919,0.111-0.767,0.611,6.408,0.641
		c2.664-0.06,7.584-0.448,6.586-0.551c-1.073-0.008-2.745-0.096-2.832-0.251l2.438-0.08c0.442-0.453,2.319-0.918-3.668-1.234
		l-4.164,0.277l-1.349-0.221l3.512-0.014c-1.991-0.207-3.253-0.023-4.666,0.103c-0.335-0.117-0.917-0.199-1.748-0.243l-4.094,0.434
		c-0.497-0.178,1.839-0.353-0.912-0.45c-1.92,0.201,1.84,0.397-1.338,0.53c-1.996-0.206-1.413-0.375-3.754-0.198
		c-0.324-0.117,0.173-0.191,1.101-0.243c-2.088,0.141-5.519,0.06-6.592,0.301c-2.082-0.255-7.04,0.066-6.835-0.363
		c-0.652,0.103-3.673,0.337-5.583,0.354c3.496-0.514-7.168-0.029-6.246-0.581c-2.589,0.463-9.348,0.205-13.933,0.462
		c0.253-0.036,0.76-0.11,1.165-0.088c-2.584-0.038-3.328-0.177-4.99-0.265c-0.334,0.382-4.348,0.469-6.516,0.705
		c-3.161-0.368,1.92-0.448,0.928-0.803c0.162,0.31-5.497,0.309-4.423,0.566c-2.417-0.228-2.083-0.11-3.329-0.427
		c-0.426,0.478-2.249,0.081-4.256,0.374c-3.506-0.235-0.906-0.447-4.746-0.302C229.003,194.426,232.422,194.257,232.422,194.257z
		 M140.959,195.082v-0.006c0.788-0.006,1.462-0.012,1.888-0.015C142.459,195.065,141.909,195.072,140.959,195.082z M133.278,195.087
		c0.933,0.003,2.099,0.007,3.333,0.011c0.27,0.094-0.021,0.191-0.798,0.187C136.234,195.222,134.421,195.167,133.278,195.087z
		 M149.536,196.984c-1.219,0.039-1.629-0.015-1.791-0.07c0.572-0.009,1.24-0.02,2.125-0.033c0.033-0.008,0.107-0.025,0.141-0.033
		C149.897,196.9,149.762,196.948,149.536,196.984z"/>
	<path fill="#202020" d="M151.721,196.626c0.178-0.007,0.275-0.011,0.501-0.02c-0.249-0.021-0.486-0.042-0.723-0.062
		c-0.151,0.03-0.302,0.06-0.432,0.086C151.284,196.629,151.516,196.627,151.721,196.626z"/>
	<path fill="#202020" d="M318.165,42.962l0.007-0.162c-0.012,0.135-0.022,0.259-0.039,0.34
		C318.146,43.033,318.154,43.033,318.165,42.962z"/>
	<polygon fill="#202020" points="27.143,194.562 27.153,194.632 27.822,194.571 	"/>
	<path fill="#202020" d="M317.225,85.296c-0.023,0.081-0.049,0.24-0.069,0.555C317.173,85.827,317.198,85.587,317.225,85.296z"/>
	<path fill="#202020" d="M317.164,103.578l-0.099,2.586C317.121,105.045,317.147,104.23,317.164,103.578z"/>
	<path fill="#202020" d="M317.027,117.638c0.049,0.178,0.085,0.229,0.118,0.275c0-0.011,0.001-0.019,0.002-0.027L317.027,117.638z"
		/>
	<path fill="#202020" d="M209.203,3.701c-0.188,0.004-0.375,0.009-0.542,0.013C207.388,3.767,208.254,3.746,209.203,3.701z"/>
	<path fill="#202020" d="M275.729,3.062c-0.707,0.05-1.403,0.098-2.14,0.13C274.774,3.212,275.694,3.217,275.729,3.062z"/>
	<path fill="#202020" d="M134.917,4.032c0.011-0.002,0-0.003,0.011-0.005c-0.162,0-0.302,0-0.464,0L134.917,4.032z"/>
	<path fill="#202020" d="M270.497,3.187c1.184,0.054,2.174,0.042,3.093,0.005C272.619,3.172,271.476,3.145,270.497,3.187z"/>
	<path fill="#202020" d="M316.903,178.575l-0.012,0.678c0.019-0.012,0.033,0.029,0.045,0.08L316.903,178.575z"/>
	<path fill="#202020" d="M316.937,179.333l0.032,0.753C316.969,179.74,316.966,179.441,316.937,179.333z"/>
	<path fill="#202020" d="M317.037,181.669l-0.068-1.583C316.968,180.634,316.959,181.311,317.037,181.669z"/>
	<path fill="#202020" d="M317.03,159.963l-0.1-0.213C316.951,159.866,316.983,159.941,317.03,159.963z"/>
	<path fill="#202020" d="M317.001,154.308c-0.022,1.349-0.212,3.385-0.149,5.267l0.079,0.176
		C316.783,158.865,317.169,155.588,317.001,154.308z"/>
	<path fill="#202020" d="M318.229,130.7l-0.08,4.738c0.105-0.828,0.249-1.918,0.273,0.237
		C318.738,129.702,318.187,136.908,318.229,130.7z"/>
	<path fill="#202020" d="M318.383,116.003c0.049,2.547,0.153-0.029,0.213,0.105C318.5,114.493,318.476,114.102,318.383,116.003z"/>
	<path fill="#202020" d="M318.384,9.805l0.249,0.256C318.597,8.097,318.536,10.042,318.384,9.805z"/>
	<polygon fill="#202020" points="304.612,3.312 306.521,3.467 307.431,3.239 	"/>
	<polygon fill="#202020" points="292.618,1.536 293.476,1.501 290.201,1.591 	"/>
	<path fill="#202020" d="M114.252,1.625l0.593,0.308C116.173,1.877,116.448,1.532,114.252,1.625z"/>
	<path fill="#202020" d="M37.251,1.938c-0.841-0.154-3.004-0.252-4.337-0.102C34.64,1.857,36.366,1.977,37.251,1.938z"/>
	<polygon fill="#202020" points="6.72,197.024 5.167,197.128 8.09,197.042 	"/>
</g>
</svg>
